<?xml version="1.0" encoding="UTF-8"?>
<!DOCTYPE svg PUBLIC "-//W3C//DTD SVG 1.1//EN"
  "http://www.w3.org/Graphics/SVG/1.1/DTD/svg11.dtd">
<!-- Created with Inkpad (http://www.taptrix.com/) --><svg xmlns:inkpad="http://taptrix.com/inkpad/svg_extensions" height="168pt" xmlns:xlink="http://www.w3.org/1999/xlink" xmlns="http://www.w3.org/2000/svg" width="168pt" version="1.1" viewBox="0,0,168,168">
<defs/>
<g id="Untitled" inkpad:layerName="Untitled">
<path d="M84+168.177C130.421+168.177+168.177+130.421+168.177+84C168.177+37.5789+130.421-0.176946+84-0.176946C37.5787-0.176946-0.176952+37.5789-0.176952+84C-0.176952+130.421+37.5789+168.177+84+168.177L84+168.177ZM101.949+69.7641L65.4316+33.865C65.4316+33.865+72.8592+30.7703+83.3811+30.7703C93.9029+30.7703+101.33+33.865+101.33+33.865L101.33+69.7641L101.95+69.7641L101.949+69.7641ZM106.901+87.0947L106.901+36.341C106.901+36.341+114.329+39.4357+121.756+46.8631C129.183+54.2906+132.278+61.718+132.278+61.718L106.901+87.0949L106.901+87.0947ZM98.2359+101.949L134.135+65.4316C134.135+65.4316+137.23+72.8592+137.23+83.3811C137.23+94.5221+134.135+101.33+134.135+101.33L98.2359+101.33L98.2359+101.95L98.2359+101.949ZM80.9053+106.282L131.659+106.282C131.659+106.282+128.564+113.71+121.137+121.137C113.709+129.183+106.901+132.278+106.901+132.278L80.9051+106.282L80.9053+106.282ZM66.0506+97.6168L102.568+133.516C102.568+133.516+95.1408+136.611+84.6189+136.611C74.0971+136.611+66.6695+133.516+66.6695+133.516L66.6695+97.6168L66.0504+97.6168L66.0506+97.6168ZM61.718+80.9053L61.718+131.659C61.718+131.659+54.2904+128.564+46.8631+121.137C39.4355+113.709+36.341+106.282+36.341+106.282L61.718+80.9051L61.718+80.9053ZM70.3832+66.0506L34.4842+102.568C34.4842+102.568+31.3895+95.1408+31.3895+84.6189C31.3895+73.4779+34.4842+66.6695+34.4842+66.6695L70.3832+66.6695L70.3832+66.0504L70.3832+66.0506ZM87.0947+61.099L36.341+61.099C36.341+61.099+39.4357+53.6715+46.8631+46.2441C54.2906+38.8166+61.718+35.7221+61.718+35.7221L87.0949+61.099L87.0947+61.099ZM87.0947+61.099" opacity="1" fill="#3bb816"/>
</g>
</svg>
