<?xml version="1.0" encoding="UTF-8"?>
<!DOCTYPE svg PUBLIC "-//W3C//DTD SVG 1.1//EN" "http://www.w3.org/Graphics/SVG/1.1/DTD/svg11.dtd">
<!-- Creator: CorelDRAW X6 -->
<svg xmlns="http://www.w3.org/2000/svg" xml:space="preserve" width="35.2778mm" height="35.2778mm" version="1.1" style="shape-rendering:geometricPrecision; text-rendering:geometricPrecision; image-rendering:optimizeQuality; fill-rule:evenodd; clip-rule:evenodd"
viewBox="0 0 769 769"
 xmlns:xlink="http://www.w3.org/1999/xlink">
 <defs>
  <style type="text/css">
   <![CDATA[
    .fil0 {fill:#1A86D4}
    .fil1 {fill:#FEFEFE}
   ]]>
  </style>
 </defs>
 <g id="图层_x0020_1">
  <metadata id="CorelCorpID_0Corel-Layer"/>
  <g id="_910764800">
   <circle class="fil0" cx="384" cy="384" r="384"/>
   <path class="fil1" d="M185 159c2,9 7,66 8,80l302 0c-2,22 -5,57 -8,80l-285 0c0,32 4,47 4,80l277 4c0,14 -5,75 -8,96 -10,5 -79,25 -92,25l-84 -21c-4,-20 -8,-41 -8,-63l-80 0 13 126c26,2 92,25 126,34 58,15 24,15 118,-12l83 -22c0,-85 34,-299 34,-407l-399 0z"/>
  </g>
 </g>
</svg>
