<?xml version="1.0" encoding="UTF-8"?>
<!DOCTYPE svg PUBLIC "-//W3C//DTD SVG 1.1//EN" "http://www.w3.org/Graphics/SVG/1.1/DTD/svg11.dtd">
<!-- Creator: CorelDRAW X6 -->
<svg xmlns="http://www.w3.org/2000/svg" xml:space="preserve" width="13.4036mm" height="12.972mm" version="1.1" style="shape-rendering:geometricPrecision; text-rendering:geometricPrecision; image-rendering:optimizeQuality; fill-rule:evenodd; clip-rule:evenodd"
viewBox="0 0 86 83"
 xmlns:xlink="http://www.w3.org/1999/xlink">
 <defs>
  <style type="text/css">
   <![CDATA[
    .fil0 {fill:gray}
   ]]>
  </style>
 </defs>
 <g id="图层_x0020_1">
  <metadata id="CorelCorpID_0Corel-Layer"/>
  <g id="_162956224">
   <path class="fil0" d="M54 69l0 -40c0,-2 -1,-3 -3,-3 -2,0 -3,1 -3,3l0 40c0,2 1,3 3,3 2,0 3,-1 3,-3zm-15 0l0 -40c0,-2 -1,-3 -3,-3 -1,0 -2,0 -2,1 -1,1 -1,1 -1,2l0 40c0,2 1,3 3,3 2,0 3,-1 3,-3z"/>
   <path class="fil0" d="M73 23c-2,0 -3,1 -3,3l0 48c0,2 -1,3 -2,3l-48 0c-1,0 -2,-1 -2,-3l0 -48c0,-2 -1,-3 -3,-3 -1,0 -2,0 -2,1 -1,1 -1,1 -1,2l0 48c0,5 4,9 9,9l48 0c5,0 9,-4 9,-9l0 -48c0,-2 -2,-3 -3,-3zm10 -11l-80 0c-2,0 -3,1 -3,3 0,2 1,3 3,3l80 0c2,0 3,-1 3,-3 0,-2 -1,-3 -3,-3zm-54 -6l29 0c2,0 3,-1 3,-3 0,-2 -1,-3 -3,-3l-29 0c-2,0 -3,1 -3,3 0,1 0,2 1,2 1,1 1,1 2,1z"/>
  </g>
 </g>
</svg>
