<?xml version="1.0" encoding="UTF-8"?>
<!DOCTYPE svg PUBLIC "-//W3C//DTD SVG 1.1//EN" "http://www.w3.org/Graphics/SVG/1.1/DTD/svg11.dtd">
<!-- Creator: CorelDRAW X6 -->
<svg xmlns="http://www.w3.org/2000/svg" xml:space="preserve" width="35.2778mm" height="35.2778mm" version="1.1" style="shape-rendering:geometricPrecision; text-rendering:geometricPrecision; image-rendering:optimizeQuality; fill-rule:evenodd; clip-rule:evenodd"
viewBox="0 0 769 769"
 xmlns:xlink="http://www.w3.org/1999/xlink">
 <defs>
  <style type="text/css">
   <![CDATA[
    .fil0 {fill:#F74625}
    .fil1 {fill:#FEFEFE}
   ]]>
  </style>
 </defs>
 <g id="图层_x0020_1">
  <metadata id="CorelCorpID_0Corel-Layer"/>
  <g id="_910770016">
   <circle class="fil0" cx="384" cy="384" r="384"/>
   <path class="fil1" d="M207 401l273 0c-7,30 -4,70 -11,100 -16,8 -37,11 -57,16 -31,9 -26,10 -59,1 -17,-5 -50,-11 -55,-19 -9,-16 3,-61 -17,-61l-70 0 9 116c6,19 52,24 93,36 105,30 67,18 191,-13 16,-4 27,-9 42,-10 0,-49 22,-204 22,-247l-288 0c-2,-23 -7,-52 -7,-77l303 0c0,-28 5,-56 7,-81l-399 0 22 240z"/>
  </g>
 </g>
</svg>
