<?xml version="1.0" encoding="UTF-8"?>
<!DOCTYPE svg PUBLIC "-//W3C//DTD SVG 1.1//EN" "http://www.w3.org/Graphics/SVG/1.1/DTD/svg11.dtd">
<!-- Creator: CorelDRAW X6 -->
<svg xmlns="http://www.w3.org/2000/svg" xml:space="preserve" width="17.715mm" height="17.715mm" version="1.1" style="shape-rendering:geometricPrecision; text-rendering:geometricPrecision; image-rendering:optimizeQuality; fill-rule:evenodd; clip-rule:evenodd"
viewBox="0 0 156 156"
 xmlns:xlink="http://www.w3.org/1999/xlink">
 <defs>
  <style type="text/css">
   <![CDATA[
    .str0 {stroke:#F07740;stroke-width:0.67274}
    .fil0 {fill:#F07740}
   ]]>
  </style>
 </defs>
 <g id="图层_x0020_1">
  <metadata id="CorelCorpID_0Corel-Layer"/>
  <path class="fil0" d="M37 80l37 0 0 37c0,2 1,3 3,3 2,0 3,-1 3,-3l0 -37 37 0c2,0 3,-1 3,-3 0,-2 -1,-3 -3,-3l-37 0 0 -37c0,-2 -1,-3 -3,-3 -2,0 -3,1 -3,3l0 37 -37 0c-2,0 -3,1 -3,3 0,2 1,3 3,3z"/>
  <path class="fil0 str0" d="M78 156c43,0 78,-35 78,-78 0,-43 -35,-78 -78,-78 -43,0 -78,35 -78,78 0,43 35,78 78,78zm0 -149c39,0 71,32 71,71 0,39 -32,71 -71,71 -39,0 -71,-32 -71,-71 0,-39 32,-71 71,-71z"/>
 </g>
</svg>
