<svg viewBox="0 0 1024 1024" version="1.1" xmlns="http://www.w3.org/2000/svg" width="200" height="200">
<path d="M959.69595 489.615177 827.048861 489.615177C816.053436 332.888669 691.099562 207.947076 534.384311 196.940394L534.384311 64.303538l-44.769646 0 0 132.636856c-156.715251 11.006681-281.668101 135.948275-292.663526 292.674782L64.303027 489.615177l0 44.769646 132.648113 0C207.946564 691.100074 332.899414 816.052924 489.614665 827.059606l0 132.635833 44.769646 0L534.384311 827.059606c156.715251-11.006681 281.669124-135.959531 292.664549-292.674782l132.647089 0L959.69595 489.615177zM776.201799 489.615177 666.92293 489.615177c-9.837042-68.575842-63.963801-122.69032-132.539642-132.527362L534.383288 247.7762C663.03232 258.552637 765.446851 360.956935 776.201799 489.615177zM489.614665 247.7762l0 109.311615c-68.574818 9.837042-122.700553 63.952544-132.538619 132.527362L247.797178 489.615177C258.553149 360.956935 360.96768 258.552637 489.614665 247.7762zM247.797178 534.384823l109.278869 0c9.837042 68.574818 63.963801 122.69032 132.538619 132.527362l0 109.311615C360.96768 765.447363 258.553149 663.043065 247.797178 534.384823zM534.384311 776.2238 534.384311 666.912186c68.575842-9.837042 122.701576-63.952544 132.539642-132.527362l109.278869 0C765.446851 663.043065 663.03232 765.447363 534.384311 776.2238z" fill="#fff"></path></svg>