<?xml version="1.0" encoding="UTF-8"?>
<!DOCTYPE svg PUBLIC "-//W3C//DTD SVG 1.1//EN" "http://www.w3.org/Graphics/SVG/1.1/DTD/svg11.dtd">
<!-- Creator: CorelDRAW X6 -->
<svg xmlns="http://www.w3.org/2000/svg" xml:space="preserve" width="105.74mm" height="23.4188mm" version="1.1" style="shape-rendering:geometricPrecision; text-rendering:geometricPrecision; image-rendering:optimizeQuality; fill-rule:evenodd; clip-rule:evenodd"
viewBox="0 0 11104 2459"
 xmlns:xlink="http://www.w3.org/1999/xlink">
 <defs>
  <style type="text/css">
   <![CDATA[
    .fil0 {fill:#4D4D4D;fill-rule:nonzero}
   ]]>
  </style>
 </defs>
 <g id="图层_x0020_1">
  <metadata id="CorelCorpID_0Corel-Layer"/>
  <g id="_930929392">
   <path class="fil0" d="M0 1313c33,-241 50,-457 52,-646 -5,-20 -9,-52 -11,-93l0 0c47,0 85,-4 115,-11 42,0 80,0 115,0l0 0c0,151 0,301 0,448 -12,68 -26,179 -42,333l-42 0c-33,-5 -71,-16 -114,-31 -5,0 -16,0 -32,0l-41 0zm354 -1292l375 0c0,96 -4,193 -10,292 0,62 7,156 21,281 26,-12 60,-26 104,-41 12,26 33,75 63,146 0,-33 3,-57 10,-73 0,-21 0,-45 0,-73l104 0c110,12 217,12 323,0 21,-5 31,-12 31,-21 5,-5 9,-19 11,-42 -125,-21 -264,-24 -417,-10l-125 0c0,-104 0,-212 0,-323l0 0 396 0c26,0 50,0 73,0l62 0c5,-12 9,-36 11,-73 0,-21 0,-45 0,-73l375 0 0 0c0,26 -4,50 -11,73 0,33 7,57 21,73 33,0 64,0 94,0 88,0 175,0 261,0 -96,33 -168,71 -219,115 5,5 8,8 10,10 -54,12 -92,30 -115,52 5,5 16,12 32,21 -42,12 -84,36 -125,73 5,0 12,4 21,11 -26,5 -50,23 -73,52 5,0 12,4 21,10 -68,12 -123,33 -167,63 5,5 9,9 10,11l-41 20c5,5 8,9 10,11 -12,5 -26,23 -42,52 0,5 4,12 11,21 -26,0 -47,7 -63,21l21 21c-12,0 -26,3 -42,10 5,0 12,4 21,11l-42 20c5,5 16,12 32,21 -47,5 -124,9 -229,11 -96,0 -165,4 -208,10 12,26 19,40 21,42 12,12 30,19 52,21l125 0c88,0 154,4 198,10l-42 21c5,0 12,4 21,11 -5,0 -8,3 -10,10 5,0 12,4 21,10 -12,0 -26,4 -42,11l42 21c-84,0 -156,38 -219,115 5,5 9,8 11,10 -5,5 -12,16 -21,31l42 21c-33,21 -85,38 -156,52l-167 0 0 0c0,-109 -28,-227 -83,-354 -12,47 -19,120 -21,219 5,47 8,120 10,219 0,42 0,80 0,115 -12,41 -29,73 -52,94 0,5 4,12 10,20 -20,0 -38,7 -52,21 5,5 16,12 32,21 -26,0 -47,7 -63,21 5,5 9,9 10,11 -12,0 -26,3 -41,10 5,5 8,8 10,10 -68,5 -137,33 -209,84 5,5 16,12 32,21 -26,0 -44,4 -52,10l0 -1125c0,-137 0,-280 0,-427 0,-26 0,-57 0,-94l0 -42zm375 1542c12,0 23,-4 32,-10 12,0 22,-4 31,-11 -12,-5 -23,-12 -31,-21 12,-5 22,-12 31,-21 5,0 12,-3 21,-10 0,0 -4,-4 -11,-10 12,0 23,-4 32,-11 5,0 12,-4 20,-10l0 979 0 0 -375 0 0 0c0,-235 0,-474 0,-719 12,-12 29,-19 52,-21 -12,-5 -23,-12 -31,-21 5,0 12,-4 20,-11 26,-12 89,-36 188,-73 0,0 -3,-3 -10,-10 12,-5 26,-9 42,-10 0,0 -4,-4 -11,-11zm1375 -1323c21,-21 42,-32 63,-32 20,-5 41,-16 62,-31 -5,-5 -12,-9 -21,-11 26,-5 64,-8 115,-10 47,0 92,0 136,0l0 0c0,109 0,217 0,323l0 0c-137,0 -280,0 -427,0 -26,0 -54,-4 -84,-11 -41,0 -62,4 -62,11 -5,5 -9,12 -11,20l0 42c54,5 141,9 261,11l250 0c0,83 0,163 0,240l0 0c-75,0 -155,-4 -240,-11 -96,0 -168,4 -219,11 -33,0 -51,21 -52,62 63,5 160,9 292,11 104,0 205,0 302,0 0,109 0,217 0,323l0 0c-422,0 -849,0 -1282,0 5,0 9,0 11,0 12,-26 40,-43 83,-52 -20,-12 -35,-26 -41,-42 5,-5 12,-8 21,-10 -5,-12 -9,-23 -11,-31 84,-54 149,-89 198,-104 -5,-5 -12,-8 -20,-10 12,-5 26,-9 41,-11 -5,-5 -12,-8 -21,-10 0,-5 4,-9 11,-10 -5,-5 -12,-9 -21,-11l42 -21c-5,-5 -12,-8 -21,-10 26,-12 36,-19 31,-21 5,-12 9,-26 11,-42 0,0 -4,-4 -11,-10 5,-5 12,-9 21,-11 -12,-5 -23,-12 -31,-21l41 -20c-5,-5 -12,-9 -20,-11 12,-5 26,-8 41,-10l-21 -21c21,-12 42,-23 63,-32 -5,-5 -8,-12 -10,-20 12,-12 29,-26 52,-42 0,0 -4,-4 -11,-11l42 -20c-5,-5 -12,-9 -21,-11l42 -21 125 -42c-5,-5 -12,-8 -21,-10 26,-26 54,-44 84,-52 -5,-5 -12,-9 -21,-11 12,-12 23,-19 31,-20 12,-5 26,-16 42,-32 -5,-5 -12,-8 -21,-10 12,0 23,0 32,0 5,-5 16,-9 31,-11 -12,-5 -23,-12 -31,-21 41,-26 83,-43 125,-52 -5,-5 -9,-12 -11,-21 12,0 23,-3 32,-10 12,0 22,-4 31,-10zm-886 1021l1125 0c0,318 0,634 0,948 -54,146 -168,229 -344,250 -63,0 -128,0 -198,0 -12,-42 -22,-70 -31,-84 -21,-26 -35,-54 -42,-83 -26,-54 -40,-103 -42,-146l0 0 84 0c88,12 148,-12 177,-73 -104,-21 -229,-24 -375,-11 -33,0 -71,0 -115,0 -5,42 -9,104 -11,188l0 188 -396 0 0 0 0 -1146c54,-21 109,-32 167,-32zm-229 0c-12,0 -33,7 -62,21l0 -21 41 0 21 0zm469 313c75,0 148,0 219,0 75,0 148,0 219,0 12,0 26,-4 42,-11 0,-12 4,-26 10,-42 -104,-21 -229,-24 -375,-10 -33,0 -71,0 -115,0 -5,5 -9,23 -11,52 5,5 9,9 11,11zm10 281l104 0c109,12 220,12 333,0 21,-5 31,-12 31,-21 5,-5 9,-19 10,-41 -104,-21 -229,-24 -375,-11 -33,0 -71,0 -115,0 -5,5 -9,26 -11,63 5,0 12,4 21,10zm1451 -614c21,0 38,-4 52,-11 96,0 158,-10 188,-31 0,-21 0,-45 0,-73l0 -208c-26,-5 -64,-9 -115,-10 -33,0 -71,0 -115,0l0 -438 0 0c63,0 122,0 177,0 0,0 -4,0 -11,0 -5,0 -8,4 -10,11 54,26 99,47 136,62 -5,0 -9,4 -11,11 12,0 23,3 32,10 12,5 26,9 41,11 -12,5 -26,16 -41,31 12,5 26,8 41,10 21,5 38,12 52,21 -5,0 -12,4 -21,11 12,0 22,3 31,10 12,5 23,9 31,10 -12,5 -22,12 -31,21 54,26 99,47 136,63 -21,5 -42,19 -63,42 12,5 23,8 31,10 12,12 26,19 42,21 -5,0 -8,4 -10,10 12,12 19,19 21,21 12,5 22,9 31,11 -5,5 -12,16 -21,31 26,12 44,19 52,21 12,12 19,29 21,52 0,21 0,38 0,52l0 63c0,21 17,38 52,52 42,-12 76,-19 104,-21 26,68 33,176 20,323 0,42 0,80 0,115l0 0c-26,0 -57,0 -93,0 -42,0 -70,10 -84,31 -5,5 -8,29 -10,73 5,21 8,45 10,73l0 209 0 208c-5,109 -71,189 -198,240 -68,26 -182,40 -344,41l0 0c-12,-68 -22,-116 -31,-146 -5,-33 -23,-85 -52,-156 -5,-47 -16,-99 -32,-156l0 0c26,0 51,0 73,0 95,0 148,-24 156,-73 0,0 0,-63 0,-188 0,-12 0,-29 0,-52 -12,-5 -26,-9 -42,-10 -12,5 -29,8 -52,10 -68,12 -116,19 -146,21l0 0 0 -333c0,-12 0,-30 0,-52 0,-12 0,-30 0,-52zm292 -761c26,-12 40,-19 42,-21 12,0 19,-14 21,-42 0,0 0,-101 0,-302 0,-26 0,-57 0,-94 146,0 288,0 427,0l0 0c0,109 0,217 0,323 0,21 -4,38 -11,52 0,33 4,54 11,63 5,5 33,8 83,10 33,0 64,0 94,0l0 438 0 0c-88,0 -148,7 -177,20 -12,-12 -26,-19 -42,-20l-21 -21 21 -21c-26,-12 -44,-23 -52,-32 0,-5 4,-8 10,-10 -12,-12 -22,-19 -31,-21 -5,-5 -16,-8 -31,-10l21 -21c12,-5 22,-12 31,-21 -54,-33 -99,-54 -136,-63 5,-5 16,-12 32,-21 -5,0 -16,-3 -32,-10 -5,-5 -16,-9 -31,-10 5,-5 12,-9 21,-11 -26,-21 -54,-31 -84,-31 5,-12 16,-23 32,-31 -5,0 -16,-4 -32,-11 -5,-5 -16,-8 -31,-10 0,-5 4,-9 10,-11 -33,-21 -68,-38 -104,-52 -12,-5 -26,-9 -42,-10zm678 761c5,0 16,3 31,10 -5,0 -8,4 -10,10 5,5 16,12 31,21 -12,5 -23,16 -31,32 26,12 50,26 73,41 -5,0 -12,4 -21,11 47,26 92,54 135,83 -5,0 -8,4 -10,11 5,5 12,8 21,10 21,12 52,30 94,52 -5,5 -9,12 -11,21l42 21c-5,0 -12,4 -21,11 12,0 26,3 42,10 -21,5 -42,19 -63,42 5,0 23,7 52,21 -5,0 -9,3 -11,10l0 125c0,75 11,137 31,188 54,-42 99,-69 136,-83 42,26 94,50 156,73 -5,0 -12,4 -21,10 12,5 26,9 42,11l125 41c-12,5 -23,16 -31,32 5,0 12,3 20,10 12,5 26,9 42,11 -5,0 -8,3 -10,10 5,5 12,8 21,10 20,12 41,23 62,32 -5,0 -12,4 -21,10 54,26 99,50 136,73 -5,0 -12,4 -21,11 68,26 124,47 167,62 -5,5 -12,9 -21,11 -5,5 -8,16 -10,31 12,5 29,19 52,42 -5,12 -12,23 -21,31 0,12 -4,23 -10,31 -54,-41 -96,-69 -125,-83 -95,-54 -165,-96 -208,-125 -125,104 -229,177 -313,219 -26,-26 -54,-57 -84,-94 -33,-33 -57,-61 -73,-84 -5,26 -8,82 -10,167l-417 0 0 0 0 -1229 0 0c12,5 23,12 31,21 5,0 16,7 32,21zm62 -1157l1334 0c0,220 0,439 0,657 -62,74 -167,127 -313,156 -83,12 -208,19 -375,21 -12,-42 -33,-97 -62,-167 -26,-42 -47,-90 -63,-146 88,0 176,0 261,0 33,0 64,0 94,0 0,0 7,-7 21,-21 -12,12 -5,-9 21,-63 -104,-21 -229,-24 -375,-10 -33,0 -71,0 -115,0 -12,47 -19,120 -21,219 5,47 9,120 11,219 96,12 248,19 458,21 151,0 304,-4 458,-10l0 437c-12,26 -19,47 -21,63 -26,96 -50,168 -73,219 -12,42 -22,76 -31,104 -21,54 -35,88 -42,104 26,21 68,45 125,73 47,26 92,50 135,73l-41 83c-5,21 -23,52 -52,94 -47,75 -81,120 -104,136l0 0c0,-5 4,-9 10,-10l-20 -21c5,-12 12,-23 20,-32 -62,-33 -118,-54 -167,-62 5,-5 12,-9 21,-11 -5,-5 -16,-12 -31,-21 -84,-41 -115,-59 -94,-52 5,-5 12,-8 21,-10 -42,-21 -73,-35 -94,-42 0,-5 4,-9 10,-10 -5,-5 -16,-12 -31,-21 -5,0 -16,-4 -31,-11 5,-5 16,-12 31,-21 -42,-12 -69,-22 -83,-31 -42,-12 -70,-19 -84,-21 5,-5 12,-8 21,-10 -63,-12 -118,-40 -167,-84 12,-12 26,-23 42,-31 -42,-21 -73,-35 -94,-42 21,-12 38,-29 52,-52 -5,-5 -12,-9 -21,-10 5,-5 12,-9 21,-11 -26,-12 -47,-19 -63,-21 -26,-12 -43,-19 -52,-21 0,-5 4,-8 11,-10 -12,-26 -23,-44 -32,-52 -5,0 -12,4 -21,10 -12,-5 -22,-8 -31,-10 21,-21 42,-35 63,-42 -12,-5 -26,-9 -42,-10 5,-5 12,-9 21,-11 -26,-12 -44,-23 -52,-31 5,-5 12,-9 21,-11 -47,-26 -89,-47 -125,-62 0,-5 4,-12 11,-21 -42,-33 -90,-61 -146,-84 5,-5 12,-8 20,-10 -12,-12 -26,-19 -41,-21l-21 -21c5,-5 16,-12 31,-21 -12,-5 -23,-12 -31,-21 0,-5 4,-8 10,-10 -26,-12 -43,-23 -52,-31 -26,-12 -40,-23 -42,-32 -5,-5 -8,-43 -10,-114 5,-33 8,-68 10,-104l0 -583 0 -229 0 -21c-12,-33 -12,-50 0,-52zm438 1646c-5,0 -12,4 -21,11l21 20c-12,5 -26,16 -42,32 -26,-33 -44,-64 -52,-94 5,0 8,0 10,0 5,0 23,7 52,21 5,0 16,3 32,10zm10 104c5,0 12,4 21,11 -12,5 -23,12 -31,21 -12,-26 -23,-44 -32,-52l0 0 42 20zm292 -458c12,21 26,52 42,94 12,12 33,40 63,84 12,-26 26,-61 42,-104 5,-12 16,-40 31,-83 -42,-5 -101,-9 -177,-11 -5,0 -8,4 -10,11 5,5 9,8 10,10z"/>
   <path class="fil0" d="M5819 1969c68,-5 137,-16 208,-31 96,-12 165,-23 209,-31 146,-21 274,-56 385,-104 -88,-88 -189,-224 -302,-406 -84,47 -153,99 -208,156 -12,-26 -26,-44 -42,-52 -54,-83 -96,-142 -125,-177 -33,-54 -71,-113 -115,-177 179,-89 381,-241 604,-459 -62,-12 -160,-19 -292,-21 -68,5 -161,9 -281,11l0 -479 0 0c200,0 398,0 594,0l167 0c42,0 90,-7 146,-21 -20,-42 -31,-84 -31,-125 116,-21 238,-32 365,-32 5,5 9,9 11,11 -47,26 -82,57 -104,94 0,5 4,12 11,21 -12,0 -23,3 -31,10l41 21 -41 21c5,5 8,8 10,10 -12,5 -23,16 -31,32 0,5 4,12 10,20 -5,0 -12,4 -21,11 5,5 12,8 21,10 21,12 42,23 63,32l-21 20c12,12 23,19 31,21 63,47 104,75 125,84 -26,5 -43,19 -52,42 5,0 16,3 32,10 -5,0 -12,4 -21,10l41 21c-5,5 -12,9 -20,11 0,0 -7,7 -21,21 5,0 16,3 31,10 -5,0 -12,4 -21,11 5,0 16,3 31,10 -12,5 -26,8 -41,10 -12,12 -23,19 -32,21 5,0 12,4 21,11 -5,0 -12,4 -21,10 5,0 23,7 52,21 -5,0 -12,4 -21,10 5,5 8,9 10,11 -88,0 -179,-4 -271,-11 -68,0 -151,7 -250,21 54,33 144,85 271,156 -26,33 -68,78 -125,136 -47,68 -78,116 -94,146 89,137 207,280 354,427l-41 21c5,5 16,12 31,20 -5,0 -12,4 -21,11 21,5 52,19 94,42 -12,0 -23,3 -31,10 12,5 40,16 83,31 -12,0 -23,4 -31,11 12,0 29,10 52,31 -12,5 -26,16 -42,31 5,5 16,12 32,21 -5,0 -12,4 -21,11l41 41 -20 21c5,5 12,9 20,11 21,12 52,29 94,52 -12,12 -29,23 -52,31 -5,5 -23,16 -52,32l42 20c-21,0 -38,7 -52,21 12,0 22,4 31,11 12,5 23,8 31,10 -12,0 -23,4 -31,11 5,5 16,12 31,21 -5,0 -8,3 -10,10 12,12 29,23 52,31 -26,12 -47,33 -63,63 5,5 9,8 11,10 -12,5 -23,12 -32,21 5,5 9,9 11,11 0,0 -4,0 -11,0 -68,-42 -127,-66 -177,-73 -26,12 -44,19 -52,20 -84,42 -142,73 -177,94 -41,21 -104,45 -187,73 -47,20 -103,31 -167,31 -42,5 -97,16 -167,31 -63,12 -125,23 -188,31 -26,-47 -54,-99 -84,-156 0,0 -24,-49 -73,-146 -12,-26 -23,-44 -31,-52 -12,-26 -19,-44 -21,-52 0,-5 -4,-12 -11,-21 -41,-20 -48,-31 -20,-31zm1281 -1729c5,-12 12,-23 21,-32 0,0 -4,-4 -10,-10l42 -21 -42 -21c5,-5 16,-12 31,-21 0,0 -4,-4 -10,-10 21,-12 38,-30 52,-52 12,-12 33,-26 63,-42 -12,-5 -23,-12 -32,-21 26,0 47,-4 63,-11l62 0 0 104c0,54 11,85 32,94 5,5 40,8 104,10 33,-5 75,-8 125,-10l646 0 0 479 0 0c-84,0 -170,-4 -261,-11 -68,0 -151,7 -250,21l188 125c26,20 92,69 198,146 12,5 23,12 32,21 88,75 140,123 156,146 -54,68 -96,133 -125,198 -54,84 -92,146 -115,188 -21,-21 -45,-42 -73,-63 -96,-68 -165,-120 -208,-156 -12,26 -19,47 -21,62 -62,193 -139,339 -229,438 96,33 186,54 271,62 104,26 195,44 271,52 62,12 125,22 187,31 -47,125 -85,236 -114,333 0,12 -4,23 -11,31 -21,75 -31,113 -31,115 -12,0 -26,4 -42,10 -137,-26 -238,-47 -302,-62 -125,-26 -219,-51 -281,-73 -42,-21 -59,-28 -52,-21 -68,-26 -109,-47 -125,-63l21 -21c0,0 -4,-3 -10,-10 12,-5 22,-16 31,-31 12,-5 23,-16 31,-32 -26,-12 -43,-23 -52,-31 0,-5 4,-9 10,-10 -12,-5 -22,-12 -31,-21 5,-5 16,-9 31,-11 -26,-12 -43,-19 -52,-21l42 -21c-12,-5 -23,-12 -31,-20 12,0 19,-7 21,-21 12,0 26,-7 41,-21 12,-5 23,-12 32,-21 -26,-12 -44,-23 -52,-31 -20,-21 -38,-32 -52,-32 5,-12 12,-22 21,-31 -12,-12 -26,-23 -42,-31 5,-5 12,-9 21,-11 -5,-5 -16,-16 -31,-31 12,-12 26,-23 42,-31 -26,-12 -44,-19 -52,-21 5,-5 16,-9 31,-11 -26,-5 -57,-16 -94,-31 5,-5 16,-9 31,-10 -26,-12 -43,-19 -52,-21 -26,-12 -40,-19 -42,-21 5,-5 12,-9 21,-11 -12,-5 -23,-12 -31,-20 104,-110 201,-287 292,-532 -68,-42 -116,-69 -146,-83 5,-5 16,-9 31,-11 -5,-12 -12,-23 -21,-31 33,-75 72,-151 115,-229 -54,-12 -92,-19 -115,-21 5,-5 12,-8 21,-10 -26,-12 -43,-19 -52,-21 5,-5 12,-8 21,-10 -5,-5 -12,-9 -21,-11 26,-12 50,-23 73,-31 -12,-5 -23,-9 -31,-10 5,-5 12,-9 21,-11 -12,-5 -23,-8 -32,-10 5,-5 9,-12 11,-21 5,-5 16,-9 31,-11l-42 -21c5,-5 12,-8 21,-10 -12,-5 -22,-12 -31,-21 12,-5 23,-12 31,-21 5,0 12,-4 21,-10 -21,-5 -42,-16 -62,-31l-21 0c0,-5 3,-12 10,-21 -21,-21 -52,-42 -94,-63 5,-5 12,-9 21,-10 -21,-12 -45,-26 -73,-42l21 -21c0,0 -4,-4 -11,-10zm1597 1083c235,-47 398,-140 490,-281 -26,-5 -64,-8 -115,-10 -26,0 -57,0 -94,0 0,-250 0,-504 0,-761l0 0c33,12 92,33 177,62 20,12 41,23 62,32 -26,5 -47,16 -62,31 20,5 45,16 73,31 41,12 69,19 83,21 -5,0 -12,4 -21,11 5,5 16,8 32,10 12,5 22,12 31,21 -12,5 -23,12 -31,21 26,26 64,44 114,52 21,5 38,9 52,11 -5,0 -12,3 -21,10 12,5 22,12 31,21 12,12 23,19 31,21 -5,0 -12,4 -21,10 12,0 26,4 42,11 -21,0 -45,0 -73,0 -63,-5 -94,26 -94,94 47,5 96,8 146,10 54,12 99,26 136,42 -21,0 -38,10 -52,31 5,0 23,7 52,21 -5,5 -12,8 -21,10 -5,12 -12,23 -21,32 26,12 51,22 73,31 26,12 51,26 73,42l-21 21c5,0 16,3 32,10 -5,0 -12,4 -21,10 5,0 23,7 52,21 -21,0 -45,0 -73,0 -68,0 -106,28 -115,84 12,5 36,8 73,10 26,0 51,0 73,0 42,0 90,7 146,21 -5,0 -8,4 -10,11 42,33 87,60 136,83 -26,26 -51,61 -73,104 12,0 26,4 41,11 -5,0 -12,4 -20,10l20 21c-12,5 -22,12 -31,21 12,12 33,26 63,42 33,12 64,23 94,31 -5,0 -12,4 -21,11 5,5 16,12 31,20 -5,5 -8,12 -10,21 5,5 8,9 10,11 -5,0 -8,4 -10,10 12,5 26,9 41,11 12,12 23,22 32,31 -5,0 -9,4 -11,10 5,5 9,9 11,11 -5,0 -9,4 -11,10 5,0 16,4 32,11 -5,0 -12,4 -21,10 5,5 8,9 10,11 -5,5 -8,12 -10,20 5,5 8,9 10,11 -5,5 -8,12 -10,21 12,0 26,4 41,10 -5,0 -8,4 -10,11 12,0 26,3 42,10 -5,0 -12,4 -21,11 5,0 12,3 21,10 12,0 23,0 31,0l-21 21c5,5 9,8 11,10 -5,0 -9,4 -11,11 5,0 16,4 32,10 -42,54 -73,99 -94,136 41,5 118,8 229,10 5,-5 26,-8 63,-10 0,0 -4,0 -11,0 -5,0 -8,4 -10,10l21 21c-5,0 -9,4 -11,11 5,5 9,8 11,10 -5,0 -9,4 -11,10 5,5 12,9 21,11 12,5 23,12 32,21 -5,5 -9,16 -11,31 42,21 80,38 115,52 0,0 -7,7 -21,21 0,5 -4,12 -10,21 26,47 81,85 167,115 -12,5 -23,12 -32,21 5,0 16,4 32,10 -5,0 -12,4 -21,11l21 21c-220,62 -412,93 -573,93l0 0c-5,-41 -16,-87 -32,-135 -12,-89 -33,-176 -62,-261 -208,167 -421,309 -636,427 -26,-26 -57,-54 -94,-84 -109,-96 -182,-172 -219,-229 304,-110 554,-266 750,-469 26,-42 47,-76 63,-104 12,-21 36,-49 73,-84 -26,-5 -68,-9 -125,-10 -151,213 -304,359 -458,437 -68,33 -141,64 -219,94 -95,42 -165,73 -208,94 -42,-54 -73,-92 -94,-115 -68,-83 -116,-146 -146,-188 54,-12 137,-40 250,-83 109,-42 189,-80 240,-115 26,-21 68,-59 125,-115 -12,-5 -33,-9 -62,-10 -151,95 -297,158 -438,187 -54,-75 -102,-148 -146,-219 -26,-41 -47,-69 -62,-83 -12,-12 -23,-26 -32,-42zm396 -1250c630,0 1259,0 1886,0l0 958 0 0c-345,0 -696,0 -1052,0 5,0 8,0 10,0 0,-5 4,-9 11,-11 -26,-12 -47,-19 -63,-21 5,-5 12,-8 21,-10 -12,-5 -23,-12 -31,-21l21 -21 -42 -21c-21,-12 -52,-29 -94,-52l21 -21c5,0 12,-3 21,-10 -26,-12 -44,-19 -52,-21 5,-5 23,-16 52,-31 -21,-12 -45,-26 -73,-42l625 0 42 0c75,12 130,12 167,0 5,-12 8,-44 10,-94 -75,-12 -193,-19 -354,-21 -116,5 -238,9 -365,11 -96,0 -168,-4 -219,-11 5,-5 12,-8 21,-10 -12,-12 -23,-19 -32,-21 0,0 -7,-7 -21,-21 5,-5 12,-9 21,-10 -12,0 -23,-4 -31,-11 -68,-12 -116,-29 -146,-52 5,-5 16,-12 31,-21 -5,-5 -16,-12 -31,-21 -5,0 -12,-4 -21,-10 0,-5 4,-9 10,-11 -26,-5 -54,-16 -83,-31 -26,-21 -50,-31 -73,-31 5,-5 23,-16 52,-32 -5,0 -16,-3 -31,-10 -63,-21 -101,-35 -115,-42 -47,-12 -78,-26 -94,-42 -5,-5 -9,-26 -11,-62 5,-12 9,-30 11,-52l0 -42c0,-5 0,-16 0,-31zm1886 1042l125 0c0,276 0,551 0,823 -41,179 -97,307 -167,385 -12,-5 -22,-9 -31,-10 5,-5 12,-9 21,-11 -12,-5 -23,-8 -31,-10 5,-5 16,-12 31,-21 -63,-21 -108,-49 -136,-84 -12,-12 -23,-26 -31,-41l21 -21c5,0 12,-4 21,-11 -54,-21 -96,-45 -125,-73 0,-5 4,-8 11,-10 -5,-5 -16,-12 -31,-21 -5,0 -12,-4 -21,-11 0,-5 3,-8 10,-10 0,0 -4,-4 -10,-10 0,-5 3,-12 10,-21 -12,-5 -23,-9 -31,-11 5,-5 16,-8 31,-10 -12,-5 -23,-9 -31,-11 26,-41 47,-114 62,-219 0,-68 0,-140 0,-219 -12,-5 -22,-9 -31,-10 -26,41 -47,76 -63,104l-62 104 -84 125 0 0c0,-5 4,-9 11,-11 -12,-5 -23,-8 -32,-10 0,-5 4,-9 11,-11 -12,-12 -23,-26 -31,-41 5,-5 12,-9 20,-11 -12,-5 -26,-8 -41,-10 0,-5 4,-9 10,-11 -26,-12 -43,-19 -52,-21 5,-5 12,-8 21,-10 -5,-5 -9,-12 -11,-21 0,-5 4,-9 11,-10 0,0 -4,-4 -11,-11 5,-5 12,-8 21,-10 -12,-5 -26,-9 -41,-11 5,-5 12,-8 20,-10 -5,-5 -12,-9 -20,-11 5,-12 12,-22 20,-31 -41,-12 -69,-19 -83,-21 0,-5 4,-8 10,-10 -5,-5 -8,-12 -10,-21 0,-5 4,-12 10,-21 -12,-5 -22,-9 -31,-10 5,-5 12,-9 21,-11 -42,-12 -76,-26 -104,-42 -5,0 -12,-3 -21,-10 0,-5 3,-9 10,-10 -12,-5 -26,-9 -42,-11l42 -21c-26,-12 -44,-19 -52,-21 12,-5 26,-8 42,-10 -12,-5 -26,-9 -42,-11 0,-5 0,-16 0,-31 33,-33 61,-57 83,-73l-41 -21c-26,-12 -61,-33 -104,-62 0,-5 4,-12 11,-21 -12,-5 -23,-9 -32,-11 325,0 648,0 969,0zm-1469 -667l813 0 83 0c109,12 165,-12 167,-73 -109,-12 -196,-23 -261,-31 -88,0 -182,0 -281,0 -54,5 -140,8 -261,10 -62,5 -149,9 -261,11 -5,12 -8,36 -10,73 5,5 9,8 10,10z"/>
  </g>
 </g>
</svg>
