<?xml version="1.0" encoding="UTF-8"?>
<!DOCTYPE svg PUBLIC "-//W3C//DTD SVG 1.1//EN" "http://www.w3.org/Graphics/SVG/1.1/DTD/svg11.dtd">
<!-- Creator: CorelDRAW X6 -->
<svg xmlns="http://www.w3.org/2000/svg" xml:space="preserve" width="78.63mm" height="23.6135mm" version="1.1" style="shape-rendering:geometricPrecision; text-rendering:geometricPrecision; image-rendering:optimizeQuality; fill-rule:evenodd; clip-rule:evenodd"
viewBox="0 0 8402 2523"
 xmlns:xlink="http://www.w3.org/1999/xlink">
 <defs>
  <style type="text/css">
   <![CDATA[
    .fil0 {fill:#4D4D4D;fill-rule:nonzero}
   ]]>
  </style>
 </defs>
 <g id="图层_x0020_1">
  <metadata id="CorelCorpID_0Corel-Layer"/>
  <g id="_956387536">
   <path class="fil0" d="M0 1347c33,-246 51,-465 53,-658 -5,-21 -9,-53 -11,-95l0 0c48,0 87,-4 117,-11 43,0 81,0 117,0l0 0c0,154 0,306 0,456 -12,69 -27,182 -43,339l-43 0c-33,-5 -72,-16 -116,-32 -5,0 -16,0 -32,0l-42 0zm360 -1315l382 0c0,97 -4,196 -10,297 0,63 7,159 21,286 26,-12 62,-26 106,-42 12,26 33,76 64,148 0,-33 3,-58 10,-74 0,-21 0,-46 0,-74l106 0c112,12 221,12 329,0 21,-5 32,-13 32,-21 5,-5 9,-19 11,-43 -127,-21 -269,-25 -424,-10l-127 0c0,-106 0,-216 0,-329l0 0 403 0c26,0 51,0 74,0l63 0c5,-12 9,-37 11,-74 0,-21 0,-46 0,-74l382 0 0 0c0,26 -4,51 -11,74 0,33 7,58 21,74 33,0 66,0 95,0 90,0 178,0 265,0 -97,33 -171,72 -223,117 5,5 9,9 10,10 -55,13 -94,30 -117,53 5,5 16,13 32,21 -43,13 -85,37 -128,74 5,0 13,4 21,11 -26,5 -51,23 -74,53 5,0 13,4 21,10 -69,13 -125,34 -170,64 5,5 9,9 10,11l-42 21c5,5 9,9 10,11 -12,5 -26,23 -43,53 0,5 4,12 11,21 -27,0 -48,7 -64,21l21 21c-12,0 -26,3 -43,10 5,0 13,4 21,11l-43 21c5,5 16,13 32,21 -48,5 -126,9 -233,11 -97,0 -168,4 -212,10 13,27 19,41 21,43 13,12 30,19 53,21l128 0c90,0 157,4 201,10l-43 21c5,0 13,4 21,11 -5,0 -9,3 -10,10 5,0 12,4 21,10 -13,0 -27,4 -43,11l43 21c-85,0 -159,39 -223,117 5,5 9,9 11,10 -5,5 -12,16 -21,32l43 21c-33,21 -87,39 -159,53l-170 0 0 0c0,-111 -28,-231 -85,-361 -13,48 -19,122 -21,223 5,47 9,122 10,223 0,43 0,81 0,117 -12,42 -30,74 -53,95 0,5 4,12 10,21 -21,0 -38,7 -53,21 5,5 16,13 32,21 -27,0 -48,7 -64,21 5,5 9,9 10,11 -12,0 -26,3 -42,10 5,5 9,9 10,10 -69,5 -139,34 -212,85 5,5 16,12 32,21 -27,0 -44,4 -53,10l0 -1145c0,-140 0,-285 0,-435 0,-27 0,-58 0,-95l0 -43zm382 1569c13,0 23,-4 32,-10 12,0 23,-4 32,-11 -12,-5 -23,-12 -32,-21 12,-5 23,-12 32,-21 5,0 12,-3 21,-10 0,0 -4,-4 -11,-10 13,0 23,-4 32,-11 5,0 12,-4 21,-10l0 997 0 0 -381 0 0 0c0,-239 0,-483 0,-731 12,-13 30,-19 53,-21 -12,-5 -23,-13 -32,-21 5,0 12,-4 21,-11 27,-12 90,-37 191,-74 0,0 -3,-3 -10,-10 12,-5 27,-9 43,-10 0,0 -4,-4 -11,-11zm1400 -1346c21,-21 43,-32 64,-32 21,-5 42,-16 63,-32 -5,-5 -12,-9 -21,-11 27,-5 66,-9 117,-10 48,0 94,0 138,0l0 0c0,111 0,221 0,329l0 0c-140,0 -285,0 -435,0 -27,0 -55,-4 -85,-11 -42,0 -63,4 -63,11 -5,5 -9,12 -11,21l0 43c55,5 143,9 265,11l255 0c0,85 0,166 0,244l0 0c-76,0 -157,-4 -244,-11 -97,0 -171,4 -223,11 -34,0 -52,21 -53,63 64,5 163,9 297,11 106,0 209,0 307,0 0,111 0,221 0,328l0 0c-429,0 -864,0 -1304,0 5,0 9,0 11,0 12,-26 41,-44 85,-53 -21,-12 -35,-26 -42,-43 5,-5 12,-9 21,-10 -5,-12 -9,-23 -11,-32 85,-55 152,-90 201,-106 -5,-5 -12,-9 -21,-10 12,-5 26,-9 42,-11 -5,-5 -12,-9 -21,-10 0,-5 4,-9 11,-10 -5,-5 -12,-9 -21,-11l43 -21c-5,-5 -13,-9 -21,-10 26,-13 37,-19 32,-21 5,-12 9,-27 11,-43 0,0 -4,-4 -11,-10 5,-5 13,-9 21,-11 -12,-5 -23,-12 -32,-21l42 -21c-5,-5 -12,-9 -21,-11 12,-5 26,-9 42,-10l-21 -21c21,-13 43,-23 64,-32 -5,-5 -9,-12 -10,-21 12,-13 30,-27 53,-43 0,0 -4,-4 -11,-11l43 -21c-5,-5 -12,-9 -21,-11l43 -21 127 -43c-5,-5 -12,-9 -21,-10 27,-27 55,-44 85,-53 -5,-5 -12,-9 -21,-11 12,-12 23,-19 32,-21 13,-5 27,-16 43,-32 -5,-5 -12,-9 -21,-10 13,0 23,0 32,0 5,-5 16,-9 32,-11 -12,-5 -23,-12 -32,-21 42,-26 85,-44 127,-53 -5,-5 -9,-12 -11,-21 13,0 23,-3 32,-10 12,0 23,-4 32,-10zm-901 1039l1145 0c0,323 0,645 0,965 -55,148 -171,233 -350,255 -64,0 -131,0 -202,0 -12,-43 -23,-71 -32,-85 -21,-26 -35,-55 -43,-85 -26,-55 -41,-104 -43,-148l0 0 85 0c90,12 150,-13 180,-74 -106,-21 -233,-25 -381,-11 -34,0 -72,0 -117,0 -5,43 -9,106 -11,191l0 191 -403 0 0 0 0 -1166c55,-21 111,-32 170,-32zm-233 0c-12,0 -33,7 -63,21l0 -21 42 0 21 0zm477 318c76,0 150,0 223,0 76,0 150,0 223,0 13,0 27,-4 43,-11 0,-12 4,-27 10,-43 -106,-21 -233,-24 -381,-10 -34,0 -72,0 -117,0 -5,5 -9,23 -11,53 5,5 9,9 11,11zm10 286l106 0c111,13 224,13 339,0 21,-5 32,-12 32,-21 5,-5 9,-19 10,-42 -106,-21 -233,-25 -381,-11 -34,0 -72,0 -117,0 -5,5 -9,27 -11,64 5,0 13,4 21,10zm1477 -625c21,0 39,-4 53,-11 97,0 161,-10 191,-32 0,-21 0,-46 0,-74l0 -212c-26,-5 -65,-9 -117,-10 -33,0 -72,0 -117,0l0 -446 0 0c64,0 124,0 180,0 0,0 -4,0 -11,0 -5,0 -9,4 -10,11 55,26 101,47 138,63 -5,0 -9,4 -11,11 13,0 23,3 32,10 12,5 26,9 42,11 -12,5 -26,16 -42,32 12,5 26,9 42,10 21,5 39,13 53,21 -5,0 -13,4 -21,11 12,0 23,3 32,10 12,5 23,9 32,10 -12,5 -23,13 -32,21 55,27 101,48 138,64 -21,5 -43,19 -64,43 12,5 23,9 32,10 13,12 27,19 43,21 -5,0 -9,4 -10,10 12,13 19,19 21,21 12,5 23,9 32,11 -5,5 -12,16 -21,32 27,12 44,19 53,21 13,12 19,30 21,53 0,21 0,39 0,53l0 64c0,21 18,39 53,53 43,-12 78,-19 106,-21 26,69 33,179 21,329 0,43 0,81 0,117l0 0c-26,0 -58,0 -95,0 -43,0 -71,10 -85,32 -5,5 -9,30 -10,74 5,21 9,46 10,74l0 212 0 212c-5,111 -72,192 -201,244 -69,26 -185,40 -350,42l0 0c-12,-69 -23,-118 -32,-148 -5,-33 -23,-86 -53,-159 -5,-48 -16,-101 -32,-159l0 0c27,0 52,0 75,0 97,0 150,-25 159,-74 0,0 0,-64 0,-191 0,-12 0,-30 0,-53 -12,-5 -26,-9 -43,-10 -12,5 -30,9 -53,10 -69,12 -119,19 -148,21l0 0 0 -339c0,-12 0,-30 0,-53 0,-13 0,-30 0,-53zm297 -774c27,-13 41,-19 43,-21 12,0 19,-14 21,-43 0,0 0,-103 0,-308 0,-26 0,-58 0,-95 148,0 293,0 435,0l0 0c0,111 0,221 0,329 0,21 -4,39 -11,53 0,33 4,55 11,64 5,5 33,9 85,10 34,0 66,0 95,0l0 446 0 0c-90,0 -150,7 -180,21 -12,-12 -27,-19 -43,-21l-21 -21 21 -21c-26,-13 -44,-23 -53,-32 0,-5 4,-9 10,-10 -12,-12 -23,-19 -32,-21 -5,-5 -16,-9 -32,-10l21 -21c12,-5 23,-13 32,-21 -55,-33 -101,-55 -138,-64 5,-5 16,-12 32,-21 -5,0 -16,-3 -32,-10 -5,-5 -16,-9 -32,-10 5,-5 12,-9 21,-11 -27,-21 -55,-32 -85,-32 5,-13 16,-23 32,-32 -5,0 -16,-4 -32,-11 -5,-5 -16,-9 -32,-10 0,-5 4,-9 10,-11 -33,-21 -69,-39 -106,-53 -12,-5 -27,-9 -43,-10zm689 774c5,0 16,3 32,10 -5,0 -9,4 -10,10 5,5 16,13 32,21 -12,5 -23,16 -32,32 26,12 51,26 74,42 -5,0 -13,4 -21,11 47,26 94,55 138,85 -5,0 -9,4 -10,11 5,5 12,9 21,10 21,12 53,30 95,53 -5,5 -9,13 -11,21l43 21c-5,0 -12,4 -21,11 13,0 27,3 43,10 -21,5 -43,19 -64,43 5,0 23,7 53,21 -5,0 -9,3 -11,10l0 127c0,76 11,140 32,191 55,-43 101,-71 138,-85 43,26 95,51 159,74 -5,0 -13,4 -21,10 12,5 26,9 43,11l127 42c-12,5 -23,16 -32,32 5,0 12,3 21,10 13,5 27,9 43,11 -5,0 -9,3 -10,10 5,5 12,9 21,10 21,13 42,23 63,32 -5,0 -12,4 -21,10 55,27 101,51 138,74 -5,0 -12,4 -21,11 69,26 126,47 170,63 -5,5 -12,9 -21,11 -5,5 -9,16 -10,32 12,5 30,19 53,43 -5,12 -12,23 -21,32 0,12 -4,23 -10,32 -55,-42 -97,-71 -128,-85 -97,-55 -168,-97 -212,-127 -128,106 -233,180 -318,223 -27,-27 -55,-58 -85,-95 -33,-33 -58,-62 -74,-85 -5,27 -9,83 -10,170l-424 0 0 0 0 -1251 0 0c12,5 23,12 32,21 5,0 16,7 32,21zm63 -1177l1357 0c0,224 0,447 0,668 -63,76 -170,129 -318,159 -85,12 -212,19 -382,21 -12,-43 -33,-99 -63,-170 -27,-43 -48,-92 -64,-148 90,0 179,0 265,0 33,0 66,0 95,0 0,0 7,-7 21,-21 -12,12 -5,-9 21,-64 -106,-21 -233,-24 -382,-10 -33,0 -72,0 -117,0 -12,47 -19,122 -21,223 5,48 9,122 11,223 97,13 252,19 466,21 154,0 309,-4 466,-10l0 445c-12,27 -19,48 -21,64 -26,97 -51,171 -74,223 -12,43 -23,78 -32,106 -21,55 -35,90 -43,106 27,21 69,46 128,74 47,26 94,51 138,74l-42 85c-5,21 -23,53 -53,95 -47,76 -83,122 -106,138l0 0c0,-5 4,-9 10,-10l-21 -21c5,-13 12,-23 21,-32 -63,-33 -120,-55 -170,-63 5,-5 13,-9 21,-11 -5,-5 -16,-12 -32,-21 -85,-42 -117,-60 -95,-53 5,-5 12,-9 21,-10 -43,-21 -74,-35 -95,-43 0,-5 4,-9 10,-10 -5,-5 -16,-13 -32,-21 -5,0 -16,-4 -32,-11 5,-5 16,-12 32,-21 -43,-12 -71,-23 -85,-32 -43,-12 -71,-19 -85,-21 5,-5 12,-9 21,-10 -64,-13 -120,-41 -170,-85 12,-12 27,-23 43,-32 -43,-21 -74,-35 -95,-43 21,-12 39,-30 53,-53 -5,-5 -12,-9 -21,-10 5,-5 12,-9 21,-11 -27,-12 -47,-19 -64,-21 -26,-12 -44,-19 -53,-21 0,-5 4,-9 11,-10 -13,-27 -23,-44 -32,-53 -5,0 -12,4 -21,10 -12,-5 -23,-9 -32,-10 21,-21 43,-35 64,-43 -13,-5 -27,-9 -43,-10 5,-5 12,-9 21,-11 -27,-12 -44,-23 -53,-32 5,-5 12,-9 21,-11 -48,-26 -90,-47 -128,-63 0,-5 4,-13 11,-21 -43,-33 -92,-62 -148,-85 5,-5 12,-9 21,-10 -12,-12 -26,-19 -42,-21l-21 -21c5,-5 16,-12 32,-21 -12,-5 -23,-12 -32,-21 0,-5 4,-9 10,-10 -26,-12 -44,-23 -53,-32 -26,-13 -41,-23 -43,-32 -5,-5 -9,-44 -10,-116 5,-34 9,-69 10,-106l0 -594 0 -233 0 -21c-12,-33 -12,-51 0,-53zm446 1675c-5,0 -13,4 -21,11l21 21c-13,5 -27,16 -43,32 -27,-34 -44,-66 -53,-95 5,0 9,0 10,0 5,0 23,7 53,21 5,0 16,3 32,10zm10 106c5,0 13,4 21,11 -12,5 -23,12 -32,21 -13,-27 -23,-44 -32,-53l0 0 43 21zm297 -466c13,21 27,53 43,95 13,12 33,41 64,85 12,-27 26,-62 43,-106 5,-12 16,-41 32,-85 -43,-5 -103,-9 -180,-11 -5,0 -9,4 -10,11 5,5 9,9 10,10z"/>
   <path class="fil0" d="M5922 2163c97,-182 157,-415 180,-700 27,-203 33,-461 21,-774 -5,-111 -9,-274 -11,-488 76,0 151,0 223,0 76,5 189,9 339,11 148,0 258,-7 328,-21 -5,-27 -16,-62 -32,-106 0,-5 0,-16 0,-32 21,0 43,-4 64,-10l212 -21c43,0 113,-7 212,-21l0 0 0 106c12,55 27,87 43,95 0,0 49,0 148,0l43 0c90,0 182,-3 275,-10 76,0 164,7 265,21 -33,12 -80,33 -138,63 5,5 9,9 11,11 -111,33 -203,72 -276,117l21 21c-12,5 -23,16 -32,32 5,5 9,9 10,10 -12,0 -26,4 -42,11 5,5 16,12 32,21 -43,0 -85,14 -127,42 5,0 12,4 21,11 -34,5 -66,19 -95,43 5,5 9,9 10,10 -43,5 -88,9 -138,10 -63,0 -106,4 -127,11 0,5 4,12 11,21 0,5 -4,12 -11,21 -12,26 -19,47 -21,63 43,0 106,7 191,21 -12,0 -26,4 -43,11l21 21 -43 21c5,0 13,4 21,11 -5,0 -12,4 -21,10 5,0 13,4 21,11 -21,5 -42,19 -63,42 5,0 12,4 21,11 -13,5 -23,12 -32,21 0,5 4,12 11,21 -5,5 -16,9 -32,10l-21 21c12,12 23,23 32,32 -12,0 -23,4 -32,11 5,5 9,9 10,10 -27,0 -51,10 -74,32 5,5 9,9 10,11 -47,21 -86,46 -116,74 0,5 3,16 10,32 -27,85 -90,145 -191,180 5,5 16,12 32,21 -26,5 -55,23 -85,53 5,0 12,3 21,10 -13,5 -23,12 -32,21 5,5 16,12 32,21 -5,5 -30,19 -74,43 -27,21 -55,35 -85,42 -5,0 -23,7 -53,21 5,0 12,4 21,11 -5,0 -12,3 -21,10 5,5 9,9 10,11 -26,0 -47,7 -63,21 5,0 12,4 21,11 -43,0 -81,10 -117,32 0,-12 0,-30 0,-53 43,-161 92,-320 148,-477 -33,-5 -90,-9 -170,-10 0,-127 0,-258 0,-392l0 0c21,0 39,0 53,0 97,12 168,12 212,0 12,-13 19,-34 21,-64 21,-43 28,-60 21,-53 -43,-5 -106,-9 -191,-11 -55,0 -115,0 -180,0 0,43 -3,81 -10,117 0,48 -4,87 -10,117l0 233c12,217 16,376 10,477 -12,128 -30,223 -53,286 0,5 4,12 10,21 -5,12 -16,23 -32,32 -5,13 -16,27 -32,43 5,0 12,4 21,11 -12,12 -30,23 -53,32 -12,12 -26,23 -42,32 5,5 9,9 10,11 -5,0 -9,3 -10,10 5,0 12,4 21,10 -21,0 -39,7 -53,21l21 21c-5,5 -16,9 -32,11 0,5 -4,12 -11,21l43 21c-5,0 -12,4 -21,11l21 21c-12,0 -23,4 -32,10 26,12 51,27 74,43 -12,0 -27,4 -43,10l43 21c-21,0 -53,11 -95,32 12,12 30,23 53,32 -26,12 -51,26 -74,43 5,5 9,9 10,10 -12,5 -30,9 -53,11 -42,21 -60,28 -53,21 -47,-42 -111,-102 -191,-180 -55,-27 -76,-48 -63,-64zm2301 -1866c5,-5 12,-9 21,-10 0,0 -3,-4 -10,-11 27,-12 41,-19 43,-21 12,-5 55,-23 127,-53l0 0c0,140 0,278 0,413l0 0 -679 0 21 0c0,-5 4,-9 10,-10 0,0 -4,-4 -10,-10 21,-13 53,-27 95,-43 0,0 -4,-4 -11,-11 21,-12 60,-26 117,-42 -12,-5 -23,-13 -32,-21 12,-5 26,-9 43,-11 0,0 -4,-4 -11,-10 13,-27 27,-41 43,-43 -5,-5 -12,-9 -21,-10 33,-13 66,-27 95,-43 69,-43 122,-64 159,-64zm180 1569c0,140 0,277 0,413 -127,0 -258,0 -392,0 -21,0 -46,-4 -74,-10 -43,0 -64,3 -64,10 -21,21 -25,74 -10,159l0 42 -446 0 0 0 0 -106c0,-55 -4,-86 -10,-95 -12,-5 -44,-9 -95,-10 -27,5 -58,9 -95,10l-551 0c0,-133 0,-271 0,-413l0 0c191,0 378,0 562,0l64 0c85,12 127,-12 127,-74 -69,-12 -185,-19 -350,-21 -106,5 -216,9 -329,11 5,-5 13,-9 21,-11 -5,-5 -12,-9 -21,-10 0,-5 4,-13 11,-21 -5,-5 -13,-9 -21,-11 5,-5 12,-9 21,-10 -5,-5 -9,-12 -11,-21 55,-27 101,-44 138,-53 -5,-5 -12,-9 -21,-11 12,-12 33,-19 64,-21l-21 -21c97,-34 171,-73 223,-117 -5,-5 -16,-16 -32,-32 5,-5 16,-9 32,-11l-21 -21c27,-12 51,-23 74,-32 5,0 13,-4 21,-11l-43 -21c64,-21 89,-28 74,-21l64 -43 0 21c0,5 -7,16 -21,32 0,12 -4,27 -10,43 26,0 51,4 74,10 26,0 51,0 74,0 0,-33 4,-62 10,-85l0 -85 446 0 0 0c0,27 -4,55 -11,85 0,43 7,71 21,85 0,0 28,0 85,0l21 0 318 0c0,133 0,263 0,393l0 0c-43,0 -78,-4 -106,-11 -148,-12 -247,-9 -297,11 -21,12 -32,19 -32,21 0,21 0,39 0,53 69,5 189,9 361,10 42,0 81,0 116,0 13,0 27,-4 43,-10 12,0 19,3 21,10zm-1919 148c43,-26 78,-47 106,-63 -5,-13 -12,-23 -21,-32l43 -21 0 43c-21,43 -32,85 -32,127 -5,43 -16,85 -32,128 0,0 -7,14 -21,42 -64,128 -99,223 -106,286 -55,-55 -94,-90 -117,-106 21,-13 60,-27 117,-43 0,0 -4,-4 -10,-10 12,-5 23,-13 32,-21 5,0 16,-7 32,-21 -12,-5 -26,-16 -42,-32 12,-5 40,-16 85,-32l-43 -21c13,-5 27,-9 43,-10 -21,-12 -46,-27 -74,-43 5,-5 16,-12 32,-21 -5,-5 -12,-9 -21,-10 5,-5 13,-9 21,-11 -12,-5 -26,-16 -42,-32 12,-12 26,-23 42,-32 -5,-5 -12,-9 -21,-11 13,-5 30,-12 53,-21 -5,-5 -13,-9 -21,-10 0,-5 4,-9 10,-10 0,0 -4,-4 -10,-11zm1135 -1230c5,-5 12,-9 21,-10 0,0 -3,-4 -10,-10 5,-5 16,-9 32,-11 -5,-5 -12,-9 -21,-10 239,0 475,0 711,0l0 0c0,133 0,263 0,392l0 0c-111,0 -200,-4 -265,-11l-382 0c-161,0 -281,7 -361,21 0,0 -4,-4 -10,-10 26,-13 44,-23 53,-32 27,-13 47,-27 64,-43 0,0 -4,-4 -11,-11 5,0 16,-7 32,-21 13,0 27,-3 43,-10 0,0 -4,-4 -10,-10 5,-5 16,-9 32,-11 -12,-5 -23,-9 -32,-10 0,-5 4,-9 10,-11 0,0 -4,-4 -10,-10 5,0 16,-7 32,-21 12,0 23,-4 32,-10l-21 -21 42 -21c-5,-5 -12,-9 -21,-11 21,-21 43,-35 64,-42 -5,-5 -12,-9 -21,-11 5,-5 13,-9 21,-10 -5,-5 -12,-9 -21,-11 0,-5 4,-12 11,-21zm-1007 955c5,5 9,9 10,10 -5,0 -9,4 -10,11 5,5 9,9 10,10 -5,0 -12,4 -21,11 0,0 0,-4 0,-11 0,-12 3,-23 10,-32z"/>
  </g>
 </g>
</svg>
