<?xml version="1.0" encoding="UTF-8"?>
<!DOCTYPE svg PUBLIC "-//W3C//DTD SVG 1.1//EN" "http://www.w3.org/Graphics/SVG/1.1/DTD/svg11.dtd">
<!-- Creator: CorelDRAW X6 -->
<svg xmlns="http://www.w3.org/2000/svg" xml:space="preserve" width="14.5028mm" height="14.8502mm" version="1.1" style="shape-rendering:geometricPrecision; text-rendering:geometricPrecision; image-rendering:optimizeQuality; fill-rule:evenodd; clip-rule:evenodd"
viewBox="0 0 89 91"
 xmlns:xlink="http://www.w3.org/1999/xlink">
 <defs>
  <style type="text/css">
   <![CDATA[
    .fil0 {fill:#fff}
   ]]>
  </style>
 </defs>
 <g id="图层_x0020_1">
  <metadata id="CorelCorpID_0Corel-Layer"/>
  <g id="_676944960">
   <path class="fil0" d="M79 0l-69 0c-5,0 -10,4 -10,10l0 59c0,5 4,10 10,10l15 0c2,-3 3,-6 5,-10l-15 0c-3,0 -5,-2 -5,-5l0 -49c0,-3 2,-5 5,-5l59 0c3,0 5,2 5,5l0 49c0,3 -2,5 -5,5l-15 0c2,3 3,7 5,10l15 0c5,0 10,-4 10,-10l0 -59c0,-5 -4,-10 -10,-10z"/>
   <path class="fil0" d="M29 91l32 0c1,0 3,-1 2,-3 -1,-1 -15,-21 -16,-23 -1,-1 -3,-1 -3,0 -1,1 -15,22 -16,23 -1,1 0,3 2,3zm17 -57c0,3 -1,6 -3,8 -2,2 -5,3 -8,3 -1,0 -1,0 -3,0 -1,0 -2,0 -3,0 -1,0 -1,0 -1,1 0,1 0,2 0,3 0,1 0,2 0,3 0,0 0,0 0,0 -1,0 -2,0 -4,0 -2,0 -3,0 -4,0 0,0 -1,0 -1,-1 0,-2 0,-4 0,-7 0,-3 0,-5 0,-7 0,-4 0,-9 -1,-14l0 0c0,0 0,0 1,0 1,0 3,0 7,0 2,0 4,0 6,0 3,0 6,1 8,3 2,2 3,5 3,8zm-8 0c0,-3 -2,-5 -5,-5 -2,0 -3,0 -4,0 0,0 0,2 0,5 0,0 0,1 0,2 0,1 0,1 0,2 0,0 1,0 4,0 3,0 5,-2 5,-5zm36 13c0,0 0,1 0,1 -3,3 -6,5 -10,5 -4,0 -8,-1 -11,-4 -3,-3 -4,-7 -4,-11 0,-4 1,-8 4,-11 3,-3 6,-5 10,-5 5,0 8,1 11,4 0,0 0,1 0,1 0,0 0,1 -1,3 -1,2 -2,3 -2,3 0,0 0,0 0,0 0,0 0,0 -1,-1 -1,-1 -1,-1 -2,-2 -1,-1 -2,-1 -3,-1 -2,0 -4,1 -5,2 -1,1 -2,3 -2,5 0,2 1,4 2,5 1,2 3,2 5,2 1,0 2,0 3,-1 1,0 1,-1 2,-1 1,-1 1,-1 1,-1 0,0 0,0 0,0 0,0 1,1 2,3 1,2 2,2 2,3z"/>
  </g>
 </g>
</svg>
