<?xml version="1.0" encoding="UTF-8"?>
<!DOCTYPE svg PUBLIC "-//W3C//DTD SVG 1.1//EN" "http://www.w3.org/Graphics/SVG/1.1/DTD/svg11.dtd">
<!-- Creator: CorelDRAW X6 -->
<svg xmlns="http://www.w3.org/2000/svg" xml:space="preserve" width="30.9655mm" height="8.3834mm" version="1.1" style="shape-rendering:geometricPrecision; text-rendering:geometricPrecision; image-rendering:optimizeQuality; fill-rule:evenodd; clip-rule:evenodd"
viewBox="0 0 3097 838"
 xmlns:xlink="http://www.w3.org/1999/xlink">
 <defs>
  <style type="text/css">
   <![CDATA[
    .fil0 {fill:white;fill-rule:nonzero}
   ]]>
  </style>
 </defs>
 <g id="图层_x0020_1">
  <metadata id="CorelCorpID_0Corel-Layer"/>
  <path class="fil0" d="M0 226l79 0c36,0 62,-1 79,-4 -16,-11 -33,-21 -50,-29 -14,-9 -30,-20 -47,-32 -21,-9 -39,-20 -54,-32 30,-52 58,-95 82,-129 11,7 22,14 32,22 11,4 23,10 36,18 45,21 78,45 100,72 0,0 -11,18 -32,54 -7,18 -15,38 -25,57 7,0 13,1 18,4 9,0 17,0 25,0l0 265c-11,2 -22,7 -32,14 2,2 3,3 4,4 -2,0 -4,1 -7,4 2,0 4,1 7,4 -2,0 -3,1 -4,4 2,2 3,3 4,4l-14 7 7 7c-16,0 -29,4 -39,11 2,2 3,3 4,4l-57 36c-2,4 -8,9 -18,14 2,2 3,3 4,4l-7 0 0 -165c0,-9 0,-20 0,-32 0,-7 0,-16 0,-25 -4,-4 -20,-7 -46,-7 -14,2 -30,3 -47,4 0,-38 0,-77 0,-118 0,-7 0,-16 0,-25 0,-2 0,-5 0,-11zm258 279c9,-4 14,-7 14,-7 7,0 12,-1 14,-4 0,45 0,68 0,68 0,29 2,48 7,57 16,-11 30,-17 43,-18 7,14 17,26 29,36l14 -7c0,-9 0,-20 0,-32l0 -93c-11,-2 -30,-3 -57,-4 0,-9 0,-20 0,-32 9,-7 18,-12 29,-14l-7 -7c7,-2 15,-5 25,-11 14,-4 28,-10 39,-18 -4,-9 -10,-15 -18,-18 0,-2 1,-3 4,-4 0,0 -1,-1 -4,-4 7,-2 20,-5 39,-11 0,0 -1,-1 -4,-4 2,-2 5,-3 11,-4 -2,-2 -3,-4 -4,-7 0,-2 1,-3 4,-4 -2,-4 -3,-9 -4,-14 9,-2 22,-3 39,-4l43 0c11,0 22,0 32,0 2,-2 3,-8 4,-18 0,-4 0,-10 0,-18 -14,-2 -35,-3 -61,-4 2,-2 8,-5 18,-11 -2,-2 -4,-3 -7,-4 2,-2 4,-3 7,-4 -2,-2 -4,-3 -7,-4 2,0 4,-1 7,-4 22,-14 30,-19 25,-14 0,0 -1,-1 -4,-4 2,-4 7,-10 14,-18 0,0 -1,-1 -4,-4 14,-4 26,-8 36,-11 14,-4 24,-8 29,-11 -2,-2 -4,-3 -7,-4 4,-2 9,-3 14,-4l-7 -7c2,-2 5,-4 11,-7 -4,-2 -9,-3 -14,-4 2,-2 5,-3 11,-4 -2,-2 -4,-3 -7,-4 4,0 8,-1 11,-4 7,0 12,-1 14,-4 0,0 -1,-1 -4,-4 2,-2 5,-4 11,-7 -2,-2 -4,-3 -7,-4 7,-4 15,-9 25,-14 -4,-2 -8,-4 -11,-7 4,-2 9,-3 14,-4 0,0 -1,-1 -4,-4 4,-4 10,-7 18,-7 0,0 -1,-1 -4,-4 2,-2 5,-3 11,-4 2,11 5,18 11,22l29 0c0,-2 1,-3 4,-4 -4,-9 -9,-21 -14,-36l14 -7c-2,-2 -4,-3 -7,-4 0,-2 1,-3 4,-4 -2,-2 -4,-3 -7,-4 18,-7 36,-14 54,-22 -2,-2 -4,-3 -7,-4 11,-2 27,-8 46,-18 4,14 9,25 14,32 16,50 24,85 25,104 -2,2 -5,3 -11,4 -14,4 -23,9 -25,14 0,0 0,5 0,14l0 14 0 79 -86 0 -14 0 -14 0c-4,2 -7,7 -7,14 2,4 3,11 4,22 4,23 7,44 7,61 2,22 3,43 4,65 4,90 24,153 61,190 14,-16 29,-34 43,-54 2,14 8,42 18,82 4,14 8,28 11,39 7,14 11,29 11,43 -36,43 -84,65 -143,65 -33,-11 -60,-40 -82,-86 -4,-11 -11,-32 -22,-61 -2,-18 -5,-38 -11,-57 -2,11 -3,32 -4,61 0,22 0,42 0,61 -36,4 -90,16 -161,36 -14,4 -29,8 -43,11 -16,7 -32,11 -46,11l0 0c-2,-22 -6,-39 -11,-54 -52,22 -100,49 -143,82 -14,-16 -30,-34 -47,-54 -29,-36 -43,-54 -43,-54l7 -7c18,-23 30,-41 36,-54 0,-7 0,-16 0,-25 0,-18 1,-30 4,-36 4,-7 9,-11 14,-11 9,-4 16,-7 22,-7 4,-2 8,-5 11,-11 16,-16 28,-26 36,-29 0,0 -1,-1 -4,-4 9,-4 17,-8 25,-11 2,0 4,-1 7,-4 0,0 -1,-1 -4,-4l14 -7c0,0 -1,-1 -4,-4 0,-2 1,-3 4,-4 -2,-2 -4,-3 -7,-4 2,-2 4,-3 7,-4 0,0 -1,-1 -4,-4 2,0 3,0 4,0zm22 -358c54,0 108,0 161,0l29 0 29 0c2,-2 3,-8 4,-18 0,-4 0,-10 0,-18l0 -100c45,0 89,0 133,0l0 0c0,23 1,41 4,54l0 57c-2,4 -5,8 -11,11 0,0 -5,2 -14,7 2,2 3,3 4,4 -4,0 -9,1 -14,4 2,2 5,4 11,7 -14,4 -24,9 -29,14 2,2 5,4 11,7 -4,0 -9,1 -14,4 2,2 3,3 4,4 -9,0 -16,2 -21,7 2,2 4,5 7,11l-7 7c0,2 1,4 4,7 -4,0 -8,1 -11,4l7 7c-11,0 -20,1 -25,4 -26,4 -40,15 -43,32 2,2 3,3 4,4 -7,4 -14,8 -22,11 -9,4 -15,8 -18,11 2,0 4,1 7,4 -2,0 -4,1 -7,4 2,0 4,1 7,4 -16,9 -39,14 -68,14 -33,0 -58,-1 -75,-4l-43 0 0 0 0 -107c0,-16 0,-34 0,-54zm366 -97c11,-2 29,-8 54,-18 23,-9 41,-15 54,-18l0 7c4,7 8,14 11,21 -14,9 -31,16 -50,22 2,0 4,1 7,4 -18,4 -35,11 -50,22 2,0 4,1 7,4 -2,0 -3,1 -4,4 2,0 4,1 7,4 -4,0 -9,1 -14,4 0,-4 -1,-7 -4,-7 0,-7 -2,-16 -7,-25 -14,-14 -18,-22 -11,-22zm-115 555c4,0 8,-1 11,-4 22,-2 35,-9 39,-22 2,2 -1,-13 -7,-43 0,-18 -2,-31 -7,-36 -2,-2 -8,-3 -18,-4 -4,2 -10,3 -18,4 -2,9 -3,24 -4,47 0,18 0,36 0,54 2,2 3,3 4,4zm-133 -258c-4,2 -8,4 -11,7 2,2 4,5 7,11l-7 7c2,0 4,1 7,4 -4,0 -9,1 -14,4 2,2 3,3 4,4 -11,0 -23,4 -36,11 4,9 7,14 7,14 0,0 2,5 7,14 -9,4 -17,7 -25,7 -2,2 -8,5 -18,11 -4,0 -11,2 -22,7l7 7c-7,0 -13,4 -18,11 2,2 3,3 4,4l-7 0 0 -122 0 0c26,0 51,0 75,0 9,0 17,0 25,0l14 0zm714 -7c23,0 41,-1 54,-4l79 0c29,0 54,4 75,11 -2,0 -3,1 -4,4 9,4 14,7 14,7 4,4 8,8 11,11 -2,0 -3,1 -4,4 2,0 4,1 7,4l-7 7c7,4 15,9 25,14 9,4 14,7 14,7 9,4 15,7 18,7 -2,0 -3,1 -4,4 4,2 8,3 11,4 0,2 2,5 7,11 -2,0 -3,1 -4,4 7,4 18,9 32,14 11,7 24,12 39,14 14,7 29,13 43,18l-14 14c4,4 7,7 7,7 4,2 9,3 14,4l-7 7c2,2 5,4 11,7 -2,0 -4,1 -7,4 2,0 4,1 7,4 -138,0 -278,0 -419,0l0 0 0 -143 0 -29 0 -14zm240 0c203,0 404,0 606,0l0 186 0 0c-126,0 -254,0 -383,0 -2,-2 -4,-3 -7,-4l7 -7c-4,-2 -8,-4 -11,-7 2,-2 4,-3 7,-4 -9,-4 -15,-8 -18,-11 2,-4 5,-9 11,-14 -38,-22 -76,-37 -115,-47 0,-2 1,-4 4,-7l-7 -7c-2,-2 -5,-3 -11,-4 0,-2 1,-3 4,-4 -4,0 -9,-2 -14,-7 -2,-2 -5,-4 -11,-7 -4,0 -9,-2 -14,-7 2,2 -4,-1 -18,-7l7 -7c-2,-2 -4,-3 -7,-4 0,-2 1,-3 4,-4 -4,-2 -9,-5 -14,-11 -2,-2 -5,-4 -11,-7 0,-2 1,-3 4,-4 -4,-2 -8,-4 -11,-7zm900 -115l79 0c36,0 62,-1 79,-4 -16,-11 -33,-21 -50,-29 -14,-9 -30,-20 -47,-32 -21,-9 -39,-20 -54,-32 30,-52 58,-95 82,-129 11,7 22,14 32,22 11,4 23,10 36,18 45,21 78,45 100,72 0,0 -11,18 -32,54 -7,18 -15,38 -25,57 7,0 13,1 18,4 9,0 17,0 25,0l0 265c-11,2 -22,7 -32,14 2,2 3,3 4,4 -2,0 -4,1 -7,4 2,0 4,1 7,4 -2,0 -3,1 -4,4 2,2 3,3 4,4l-14 7 7 7c-16,0 -29,4 -39,11 2,2 3,3 4,4l-57 36c-2,4 -8,9 -18,14 2,2 3,3 4,4l-7 0 0 -165c0,-9 0,-20 0,-32 0,-7 0,-16 0,-25 -4,-4 -20,-7 -46,-7 -14,2 -30,3 -47,4 0,-38 0,-77 0,-118 0,-7 0,-16 0,-25 0,-2 0,-5 0,-11zm258 279c9,-4 14,-7 14,-7 7,0 12,-1 14,-4 0,45 0,68 0,68 0,29 2,48 7,57 16,-11 30,-17 43,-18 7,14 17,26 29,36l14 -7c0,-9 0,-20 0,-32l0 -93c-11,-2 -30,-3 -57,-4 0,-9 0,-20 0,-32 9,-7 18,-12 29,-14l-7 -7c7,-2 15,-5 25,-11 14,-4 28,-10 39,-18 -4,-9 -10,-15 -18,-18 0,-2 1,-3 4,-4 0,0 -1,-1 -4,-4 7,-2 20,-5 39,-11 0,0 -1,-1 -4,-4 2,-2 5,-3 11,-4 -2,-2 -3,-4 -4,-7 0,-2 1,-3 4,-4 -2,-4 -3,-9 -4,-14 9,-2 22,-3 39,-4l43 0c11,0 22,0 32,0 2,-2 3,-8 4,-18 0,-4 0,-10 0,-18 -14,-2 -35,-3 -61,-4 2,-2 8,-5 18,-11 -2,-2 -4,-3 -7,-4 2,-2 4,-3 7,-4 -2,-2 -4,-3 -7,-4 2,0 4,-1 7,-4 22,-14 30,-19 25,-14 0,0 -1,-1 -4,-4 2,-4 7,-10 14,-18 0,0 -1,-1 -4,-4 14,-4 26,-8 36,-11 14,-4 24,-8 29,-11 -2,-2 -4,-3 -7,-4 4,-2 9,-3 14,-4l-7 -7c2,-2 5,-4 11,-7 -4,-2 -9,-3 -14,-4 2,-2 5,-3 11,-4 -2,-2 -4,-3 -7,-4 4,0 8,-1 11,-4 7,0 12,-1 14,-4 0,0 -1,-1 -4,-4 2,-2 5,-4 11,-7 -2,-2 -4,-3 -7,-4 7,-4 15,-9 25,-14 -4,-2 -8,-4 -11,-7 4,-2 9,-3 14,-4 0,0 -1,-1 -4,-4 4,-4 10,-7 18,-7 0,0 -1,-1 -4,-4 2,-2 5,-3 11,-4 2,11 5,18 11,22l29 0c0,-2 1,-3 4,-4 -4,-9 -9,-21 -14,-36l14 -7c-2,-2 -4,-3 -7,-4 0,-2 1,-3 4,-4 -2,-2 -4,-3 -7,-4 18,-7 36,-14 54,-22 -2,-2 -4,-3 -7,-4 11,-2 27,-8 46,-18 4,14 9,25 14,32 16,50 24,85 25,104 -2,2 -5,3 -11,4 -14,4 -23,9 -25,14 0,0 0,5 0,14l0 14 0 79 -86 0 -14 0 -14 0c-4,2 -7,7 -7,14 2,4 3,11 4,22 4,23 7,44 7,61 2,22 3,43 4,65 4,90 24,153 61,190 14,-16 29,-34 43,-54 2,14 8,42 18,82 4,14 8,28 11,39 7,14 11,29 11,43 -36,43 -84,65 -143,65 -33,-11 -60,-40 -82,-86 -4,-11 -11,-32 -22,-61 -2,-18 -5,-38 -11,-57 -2,11 -3,32 -4,61 0,22 0,42 0,61 -36,4 -90,16 -161,36 -14,4 -29,8 -43,11 -16,7 -32,11 -46,11l0 0c-2,-22 -6,-39 -11,-54 -52,22 -100,49 -143,82 -14,-16 -30,-34 -47,-54 -29,-36 -43,-54 -43,-54l7 -7c18,-23 30,-41 36,-54 0,-7 0,-16 0,-25 0,-18 1,-30 4,-36 4,-7 9,-11 14,-11 9,-4 16,-7 22,-7 4,-2 8,-5 11,-11 16,-16 28,-26 36,-29 0,0 -1,-1 -4,-4 9,-4 17,-8 25,-11 2,0 4,-1 7,-4 0,0 -1,-1 -4,-4l14 -7c0,0 -1,-1 -4,-4 0,-2 1,-3 4,-4 -2,-2 -4,-3 -7,-4 2,-2 4,-3 7,-4 0,0 -1,-1 -4,-4 2,0 3,0 4,0zm22 -358c54,0 108,0 161,0l29 0 29 0c2,-2 3,-8 4,-18 0,-4 0,-10 0,-18l0 -100c45,0 89,0 133,0l0 0c0,23 1,41 4,54l0 57c-2,4 -5,8 -11,11 0,0 -5,2 -14,7 2,2 3,3 4,4 -4,0 -9,1 -14,4 2,2 5,4 11,7 -14,4 -24,9 -29,14 2,2 5,4 11,7 -4,0 -9,1 -14,4 2,2 3,3 4,4 -9,0 -16,2 -21,7 2,2 4,5 7,11l-7 7c0,2 1,4 4,7 -4,0 -8,1 -11,4l7 7c-11,0 -20,1 -25,4 -26,4 -40,15 -43,32 2,2 3,3 4,4 -7,4 -14,8 -22,11 -9,4 -15,8 -18,11 2,0 4,1 7,4 -2,0 -4,1 -7,4 2,0 4,1 7,4 -16,9 -39,14 -68,14 -33,0 -58,-1 -75,-4l-43 0 0 0 0 -107c0,-16 0,-34 0,-54zm366 -97c11,-2 29,-8 54,-18 23,-9 41,-15 54,-18l0 7c4,7 8,14 11,21 -14,9 -31,16 -50,22 2,0 4,1 7,4 -18,4 -35,11 -50,22 2,0 4,1 7,4 -2,0 -3,1 -4,4 2,0 4,1 7,4 -4,0 -9,1 -14,4 0,-4 -1,-7 -4,-7 0,-7 -2,-16 -7,-25 -14,-14 -18,-22 -11,-22zm-115 555c4,0 8,-1 11,-4 22,-2 35,-9 39,-22 2,2 -1,-13 -7,-43 0,-18 -2,-31 -7,-36 -2,-2 -8,-3 -18,-4 -4,2 -10,3 -18,4 -2,9 -3,24 -4,47 0,18 0,36 0,54 2,2 3,3 4,4zm-133 -258c-4,2 -8,4 -11,7 2,2 4,5 7,11l-7 7c2,0 4,1 7,4 -4,0 -9,1 -14,4 2,2 3,3 4,4 -11,0 -23,4 -36,11 4,9 7,14 7,14 0,0 2,5 7,14 -9,4 -17,7 -25,7 -2,2 -8,5 -18,11 -4,0 -11,2 -22,7l7 7c-7,0 -13,4 -18,11 2,2 3,3 4,4l-7 0 0 -122 0 0c26,0 51,0 75,0 9,0 17,0 25,0l14 0z"/>
 </g>
</svg>
