<?xml version="1.0" encoding="UTF-8"?>
<!DOCTYPE svg PUBLIC "-//W3C//DTD SVG 1.1//EN" "http://www.w3.org/Graphics/SVG/1.1/DTD/svg11.dtd">
<!-- Creator: CorelDRAW X6 -->
<svg xmlns="http://www.w3.org/2000/svg" xml:space="preserve" width="240.903mm" height="240.523mm" version="1.1" style="shape-rendering:geometricPrecision; text-rendering:geometricPrecision; image-rendering:optimizeQuality; fill-rule:evenodd; clip-rule:evenodd"
viewBox="0 0 24090 24052"
 xmlns:xlink="http://www.w3.org/1999/xlink">
 <defs>
  <style type="text/css">
   <![CDATA[
    .fil0 {fill:white}
   ]]>
  </style>
 </defs>
 <g id="图层_x0020_1">
  <metadata id="CorelCorpID_0Corel-Layer"/>
  <path class="fil0" d="M17229 1304c1,-3 1,-5 2,-8 21,-14 43,-27 64,-41 -1,3 -1,5 -2,8 -21,14 -43,27 -64,41zm6273 16825l5 0c-1,-1 -2,-2 -3,-3 -1,1 -1,2 -2,3zm176 -264l0 0c-1,-5 -1,-9 -2,-13 3,5 6,9 10,13 -3,0 -5,0 -8,1zm-22 -58l0 0c-8,0 -14,8 -24,3 -2,-35 -6,-68 -8,-100 9,-27 7,-59 1,-91 4,-25 12,-48 26,-70 4,47 15,90 5,138 3,9 11,13 18,18 -3,12 -6,23 -6,34 -18,17 -19,43 -12,68zm-51 -378l0 0c-8,26 -10,57 -13,88 -1,0 -3,1 -5,1 2,0 3,0 4,-1 -1,8 -1,15 -2,23 -9,-9 -13,-21 -16,-35 37,-60 -12,-136 30,-206 60,31 -16,66 -12,114 5,2 10,8 13,16zm-33 697l0 0 41 -1c0,-1 0,-3 0,-4 2,-2 5,-4 8,-5 -1,-2 -1,-4 -2,-5 -2,1 -4,0 -7,-1 -17,-22 -19,-53 -19,-87 -6,-18 -14,-35 -23,-50 -1,8 -5,14 -14,17 33,28 24,80 16,136zm6 -215l0 0c-2,-4 -3,-7 -5,-10 -5,4 -8,9 -8,15 5,-1 10,-2 13,-4zm-130 -3483l0 0c-4,15 -13,39 -22,44 4,12 11,20 21,22 10,-12 13,-33 9,-52 -2,-5 -5,-9 -8,-14zm-43 86l0 0c0,0 -1,0 -1,0 -4,5 -8,11 -12,16 4,0 8,1 11,3 3,19 -5,22 1,35 -3,1 -6,0 -7,-1 1,3 2,7 1,13 -2,0 -4,1 -6,1 3,9 10,19 18,22 2,-5 2,-12 4,-18 -2,-23 -5,-46 -8,-70zm-19 0l0 0c-7,1 -13,2 -18,-7 25,-6 14,-25 16,-35 6,3 11,3 16,0 2,-4 5,-7 8,-10 0,0 0,0 0,0 -4,-11 -15,-14 -28,-15 2,-7 4,-14 7,-21 -3,-9 -6,-14 -8,-19 -3,11 -8,21 -15,30l0 11c6,1 14,0 17,5 1,13 1,26 2,39 -10,-1 -11,5 -17,7l1 35c3,-1 6,-2 9,-2 5,-4 9,-10 11,-17zm89 1256l0 0c0,8 1,15 1,23 1,1 2,1 3,1 3,-8 1,-16 -4,-24zm2 53l0 0c1,12 1,23 2,35 4,10 9,20 10,31 2,-13 4,-26 7,-39 -4,-12 -10,-21 -19,-27zm11 71l0 0c-2,3 -5,6 -7,9 0,4 0,8 1,12 1,-1 3,-1 4,-1 1,-7 2,-13 3,-20zm-22 80l0 0c-5,6 -11,12 -17,18 2,63 -12,118 24,189 17,-46 3,-88 8,-130 -1,-18 -1,-37 -1,-55 -7,-3 -15,-6 -18,-14 2,-2 4,-5 5,-8zm-38 499l0 0 2 54c11,-43 25,-85 37,-126 3,-31 6,-62 -3,-87 -7,25 -29,83 0,94 -12,22 -25,43 -34,68 -1,-1 -1,-2 -1,-4zm12 368l0 0 3 101c9,1 19,2 29,4 0,0 0,0 0,0 -18,-26 -16,-53 -14,-78 -5,-10 -11,-19 -19,-26zm5 159l0 0 2 47c4,9 10,16 15,20 -1,-27 -10,-46 -17,-67zm218 829l0 0c-32,-2 -36,22 -57,30 14,0 19,11 30,14 5,-1 10,-3 16,-5 5,-11 13,-19 12,-36 -1,-1 -1,-2 -2,-3zm-97 -12l0 0c-12,0 -16,8 -16,19 2,2 5,5 7,6 -2,2 -4,4 -5,6 3,12 10,24 18,24 13,-17 -4,-34 -3,-55zm2 -67l0 0c6,18 -8,59 13,60 -5,-18 -10,-35 -11,-50 4,0 7,-1 10,0 -2,-6 -5,-10 -12,-10zm-68 -1570l0 0c-2,9 -3,18 -4,28 3,-2 5,-4 7,-5 0,-5 0,-9 0,-14 -1,-3 -2,-7 -3,-10zm-54 -221l0 0c1,-1 2,-2 2,-3 -1,-1 -2,-1 -3,-2 0,1 0,3 1,4zm252 1048l0 0c8,4 15,4 22,3 0,-6 -2,-11 -7,-16 -8,1 -13,6 -14,13zm-8622 5727l0 5c1,-1 2,-2 2,-3 -1,-1 -2,-1 -3,-2zm5597 -78l0 0c24,-13 20,-84 13,-114 -19,21 -8,45 -36,44 -7,40 23,37 23,70zm-80 -241l0 0c-31,63 19,180 16,247 14,2 15,-8 15,-17 12,-1 29,31 24,-2 -43,-45 -38,-163 -55,-228zm1 323l0 0c-1,-1 -1,-1 -2,-2 1,1 2,1 2,2zm22 1l0 0c0,1 0,1 0,2 0,-1 0,-1 0,-2zm0 3l0 0c0,1 0,2 0,3 0,-1 0,-2 0,-3zm0 3l0 0c0,1 0,2 0,3 0,-1 0,-2 0,-3zm0 6l0 0c0,1 0,2 0,3 0,-1 0,-2 0,-3zm4 18l0 0c0,1 0,2 1,2 0,-1 0,-2 -1,-2zm1 3l0 0c1,3 2,5 2,8 -1,-3 -2,-6 -2,-8zm2 8l0 0c1,2 1,4 2,6 -1,-2 -1,-4 -2,-6zm-5180 303l0 0c8,21 -15,17 -13,33 -29,5 -43,-7 -44,-36 21,-2 46,-7 57,2zm1045 -54l0 0c57,-6 2,70 -14,25 10,-4 16,-12 14,-25zm28 -51l0 0c-11,1 -22,2 -32,3 -9,-30 36,-34 32,-3zm343 15l0 0c-22,31 -37,-10 -63,22 -27,6 -49,-38 -21,-46 18,39 47,10 84,24zm108 -66l0 0c-19,20 -50,1 -59,-18 24,0 50,0 59,18zm-1616 -35l0 0c5,-1 9,-2 13,-3 -4,3 -9,7 -12,11 0,-3 -1,-5 -1,-8zm56 -26l0 0c-1,-8 -9,-13 -5,-23 34,-4 68,-10 99,-14 27,7 60,3 91,-5 25,2 49,9 72,22 -47,7 -89,21 -137,14 -9,4 -13,12 -17,19 -12,-3 -24,-5 -34,-4 -18,-17 -44,-17 -69,-8zm320 19l0 0c2,-4 4,-8 5,-13 14,-9 37,-10 47,-22 -18,-5 -35,-8 -52,-9 -2,-2 -5,-4 -8,-5 25,-23 80,3 98,-19 38,-4 76,-5 114,10 -33,20 -105,8 -136,29 -8,39 47,3 44,36 -31,21 -35,64 -74,79 -6,-44 -21,-48 -39,-86zm53 -94l0 0c-27,-6 -58,-7 -89,-7 0,-1 -1,-3 -1,-4 0,2 1,3 1,4 -8,0 -15,0 -23,-1 8,-10 20,-15 34,-18 62,33 135,-21 208,17 -28,62 -67,-11 -114,-5 -2,5 -8,10 -15,14zm4179 -293l0 0c17,-2 34,-4 50,-5 4,2 7,5 9,9 -20,-3 -58,16 -65,-2 2,-1 4,-2 6,-3zm85 -5l0 0c16,1 30,3 43,7 -15,3 -28,2 -43,-7zm250 -8l0 0c11,-1 23,-2 34,-2 -8,5 -18,8 -33,7 0,-2 0,-4 -1,-6zm-5211 316l0 0 4 41c1,0 2,0 4,-1 2,2 4,5 5,8 2,-1 4,-1 5,-2 -1,-2 -1,-4 0,-7 21,-18 51,-22 85,-24 18,-8 34,-16 49,-26 -8,-1 -14,-4 -18,-13 -26,35 -79,29 -134,24zm215 -8l0 0c3,-2 7,-4 10,-6 -4,-5 -9,-7 -15,-8 1,5 3,9 5,13zm3467 -351l0 0c-15,-3 -40,-11 -46,-19 -11,5 -20,12 -21,23 13,9 34,11 53,6 5,-2 9,-5 13,-9zm-89 -38l0 0c0,0 0,-1 0,-1 -6,-4 -11,-8 -17,-11 0,4 -1,8 -2,11 -19,4 -22,-4 -35,3 -1,-3 0,-6 0,-8 -3,1 -7,2 -12,2 -1,-2 -1,-4 -1,-6 -9,4 -18,12 -21,19 6,1 12,2 18,2 23,-3 46,-7 70,-12zm-1 -19l0 0c-2,-7 -3,-13 6,-19 7,24 26,13 36,14 -2,6 -2,12 1,16 4,2 7,4 10,7 0,0 0,0 0,0 10,-5 13,-16 13,-29 7,2 14,4 21,5 8,-3 14,-7 19,-10 -11,-2 -21,-6 -31,-13l-11 1c-1,6 1,14 -4,17 -13,2 -26,3 -38,5 1,-10 -6,-11 -8,-17l-35 3c1,3 2,6 3,9 4,5 11,8 17,10zm-1248 169l0 0c-7,1 -15,2 -22,2 -1,1 -1,2 -1,3 8,2 16,0 23,-5zm-53 6l0 0c-12,1 -23,3 -35,4 -10,5 -20,11 -31,12 13,1 27,3 40,5 11,-5 21,-12 26,-21zm-70 16l0 0c-3,-2 -6,-4 -9,-7 -4,0 -8,1 -12,1 1,1 1,2 2,4 7,0 13,1 20,1zm-82 -16l0 0c-6,-5 -13,-10 -19,-16 -62,6 -119,-4 -187,36 47,14 88,-3 130,0 18,-2 36,-4 55,-5 3,-8 5,-15 13,-19 2,2 5,3 8,4zm-500 -6l0 0 -54 5c44,9 86,19 128,29 31,1 62,2 87,-9 -26,-5 -85,-24 -94,6 -22,-11 -45,-22 -70,-30 1,-1 2,-1 4,-2zm-366 36l0 0 -101 10c0,9 -1,19 -2,29 0,0 0,0 0,0 25,-20 51,-19 77,-19 10,-6 18,-13 25,-21zm-158 15l0 0 -46 5c-8,5 -15,11 -19,16 27,-3 45,-13 66,-21zm-813 271l0 0c0,-32 -24,-35 -34,-55 1,14 -10,20 -12,31 1,5 4,10 7,16 12,4 20,12 37,10 1,-1 2,-1 3,-2zm6 -98l0 0c-1,-11 -9,-15 -20,-15 -2,2 -4,5 -6,7 -2,-2 -4,-4 -6,-5 -12,4 -23,12 -23,19 17,12 34,-7 55,-7zm66 -3l0 0c-17,8 -59,-4 -59,17 17,-6 35,-12 49,-14 1,4 1,7 1,10 6,-2 10,-6 9,-13zm1563 -168l0 0c-9,-1 -19,-2 -29,-2 2,2 4,5 5,7 5,0 9,-1 14,-1 3,-1 7,-2 10,-3zm3018 -207l0 0c56,6 111,10 148,-5 -51,-23 -98,-7 -148,5zm210 -4l0 0c15,1 29,2 44,2 0,-4 0,-9 -2,-15 -22,-2 -32,5 -42,13zm483 261l0 0c6,5 10,11 15,18 -15,2 -29,4 -38,0 8,-3 16,-9 24,-18zm-3494 -118l0 0c1,1 2,2 3,2 1,-1 1,-2 1,-3 -1,0 -3,1 -4,1zm-2098 525l0 0c-12,0 -33,-18 -33,-52 16,-7 51,-23 50,9 -12,2 -16,-7 -29,-4 3,17 13,26 31,25 -12,1 -24,47 4,41 10,-4 -4,-9 -2,-21 27,-14 5,29 24,25 -4,21 -19,-7 -35,3 0,5 1,9 1,14 7,20 14,-8 28,-3 5,25 3,45 -1,62 -12,1 -23,2 -35,3 -12,-38 -20,-84 -3,-104zm1068 -207l0 0c-3,8 -3,15 -2,22 6,-1 11,-3 15,-8 -1,-8 -7,-12 -13,-14zm-10569 679l0 5c1,-1 2,-2 2,-3 -1,-1 -2,-1 -3,-2zm275 159l0 0c5,-1 9,-2 13,-3 -4,3 -9,7 -12,11 0,-3 -1,-5 -1,-8zm56 -26l0 0c-1,-8 -9,-13 -5,-23 34,-4 68,-10 99,-14 27,7 60,3 91,-5 25,2 49,9 72,22 -47,7 -89,21 -137,14 -9,4 -13,12 -17,19 -12,-3 -24,-5 -34,-4 -18,-17 -44,-16 -69,-8zm374 -75l0 0c-27,-6 -58,-7 -89,-7 0,-1 -1,-3 -1,-4 0,2 1,3 1,4 -8,0 -15,0 -23,-1 8,-10 20,-15 34,-18 62,33 135,-21 208,17 -28,62 -67,-11 -114,-5 -2,5 -8,10 -15,14zm4179 -293l0 0c17,-2 34,-4 50,-5 4,2 7,5 9,9 -20,-3 -58,16 -65,-2 2,-1 4,-2 6,-3zm85 -5l0 0c16,1 30,3 43,7 -15,3 -28,2 -43,-7zm250 -8l0 0c11,-1 23,-1 34,-2 -8,5 -18,8 -33,7 0,-2 0,-4 -1,-6zm-5211 316l0 0 4 41c1,0 2,0 4,-1 2,2 4,5 5,8 2,-1 4,-1 5,-2 -1,-2 -1,-4 0,-7 21,-18 51,-22 85,-24 18,-8 34,-16 49,-26 -8,-1 -14,-4 -18,-13 -26,35 -79,29 -134,24zm215 -8l0 0c3,-2 7,-4 10,-6 -4,-5 -9,-7 -15,-8 1,5 3,9 5,13zm3467 -351l0 0c-15,-3 -40,-11 -46,-19 -11,5 -20,12 -21,23 13,9 34,11 53,6 5,-2 9,-5 13,-9zm-89 -38l0 0c0,0 0,-1 0,-1 -6,-4 -11,-8 -17,-11 0,4 -1,8 -2,11 -19,4 -22,-4 -35,3 -1,-3 0,-5 0,-8 -3,1 -7,2 -12,2 -1,-2 -1,-4 -1,-6 -9,4 -18,12 -21,19 6,1 12,2 18,2 23,-3 46,-7 70,-12zm-1 -19l0 0c-2,-7 -3,-13 6,-19 7,24 26,13 36,14 -2,6 -2,12 1,16 4,2 7,4 10,7 0,0 0,0 0,0 10,-5 13,-16 13,-29 7,2 14,4 21,5 8,-3 14,-7 19,-10 -11,-2 -21,-6 -31,-13l-11 1c-1,6 1,14 -4,17 -13,2 -26,3 -38,5 1,-10 -6,-11 -8,-17l-35 3c1,3 2,6 3,9 4,5 11,8 17,10zm-1248 169l0 0c-7,1 -15,2 -22,2 -1,1 -1,2 -1,3 8,2 16,0 23,-5zm-53 6l0 0c-12,1 -23,3 -35,4 -10,5 -20,11 -31,12 13,1 27,3 40,5 11,-5 21,-12 26,-21zm-70 16l0 0c-3,-2 -6,-4 -9,-7 -4,0 -8,1 -12,1 1,1 1,2 2,4 7,0 13,1 20,1zm-82 -16l0 0c-6,-5 -13,-10 -19,-16 -62,6 -119,-4 -187,36 47,14 88,-3 130,0 18,-2 36,-4 55,-5 3,-8 5,-15 13,-19 2,2 5,3 8,4zm-500 -6l0 0 -54 5c44,9 86,19 128,29 31,1 62,2 87,-8 -26,-5 -85,-24 -94,6 -22,-11 -45,-22 -70,-30 1,-1 2,-1 4,-2zm-366 36l0 0 -101 10c0,9 -1,19 -2,29 0,0 0,0 0,0 25,-20 51,-19 77,-19 10,-6 18,-13 25,-21zm-158 15l0 0 -46 4c-8,5 -15,11 -19,16 27,-3 45,-13 66,-21zm-813 271l0 0c0,-32 -24,-35 -34,-55 1,14 -10,20 -12,31 1,5 4,10 6,16 12,4 20,12 37,10 1,-1 2,-1 3,-2zm6 -98l0 0c-1,-11 -10,-15 -20,-15 -2,2 -4,5 -6,7 -2,-2 -4,-4 -6,-5 -12,4 -23,12 -23,19 17,12 34,-7 55,-7zm67 -3l0 0c-17,8 -59,-4 -59,17 17,-6 35,-12 49,-14 1,4 1,7 1,10 6,-2 10,-6 9,-13zm1563 -168l0 0c-9,-1 -19,-2 -28,-2 2,2 4,5 5,7 5,0 9,-1 14,-1 3,-1 7,-2 10,-3zm3018 -207l0 0c56,6 111,10 148,-5 -51,-23 -98,-7 -148,5zm210 -4l0 0c15,1 29,2 44,2 0,-4 0,-9 -2,-15 -23,-2 -32,5 -42,13zm-3011 143l0 0c1,1 2,2 3,2 1,-1 1,-2 1,-3 -1,0 -3,1 -4,1zm-1029 318l0 0c-3,8 -3,15 -2,22 6,-1 11,-3 15,-8 -1,-8 -7,-12 -13,-14zm-4760 -463l-5 1c1,-1 1,-2 2,-3 1,1 2,1 2,2zm-431 -267l0 0c-22,-2 -13,18 -29,21 3,29 18,40 46,34 -3,-21 -4,-46 -17,-55zm-165 -179l0 0c-23,-3 -19,15 -38,14 4,30 22,41 47,42 -7,-24 12,-41 -9,-56zm-46 -846l0 0c-9,-57 -68,16 -21,20 2,-11 8,-18 21,-20zm42 -40l0 0c2,11 3,21 5,32 31,2 24,-43 -5,-32zm-100 -329l0 0c-24,29 19,33 -6,67 1,27 49,38 50,9 -42,-8 -21,-43 -44,-75zm37 -121l0 0c-14,23 12,48 32,52 -7,-23 -12,-48 -32,-52zm439 1555l0 0c0,-5 0,-9 -1,-14 -2,5 -5,10 -7,14 3,0 5,-1 8,-1zm11 -61l0 0c8,-1 15,6 24,-1 -5,-34 -7,-68 -11,-100 -13,-25 -18,-57 -18,-90 -8,-24 -21,-45 -39,-64 5,47 2,91 21,136 -1,10 -8,15 -15,21 6,11 10,22 13,32 21,13 27,39 25,64zm-99 -305l0 0c3,-3 7,-6 11,-8 5,-16 1,-38 10,-51 10,17 16,32 22,48 2,2 5,4 7,7 16,-30 -23,-77 -6,-99 -6,-38 -15,-75 -38,-108 -11,37 19,104 6,139 -36,18 -14,-45 -46,-34 -13,35 -54,50 -58,91 44,-6 52,8 93,16zm78 -75l0 0c13,24 21,54 30,84 1,0 3,0 5,0 -2,0 -3,0 -5,0 2,7 4,15 6,22 7,-10 9,-23 9,-38 -48,-52 -13,-136 -68,-197 -53,42 28,62 33,110 -5,3 -8,10 -10,18zm165 678l0 0 -41 6c0,-1 0,-2 0,-4 -3,-1 -6,-3 -9,-3 0,-2 0,-4 1,-6 2,0 4,-1 7,-2 13,-25 8,-55 2,-89 3,-19 7,-37 13,-54 3,7 7,13 17,15 -27,34 -9,83 10,136zm-46 -210l0 0c1,-4 2,-7 3,-11 6,3 9,7 11,13 -5,0 -10,0 -14,-2zm-531 -3444l0 0c7,14 20,36 30,39 -2,12 -7,22 -17,26 -12,-10 -19,-30 -19,-50 1,-5 3,-10 5,-15zm59 77l0 0c0,0 1,-1 1,-1 5,4 10,9 15,13 -4,1 -7,3 -11,5 1,19 9,21 5,35 3,0 5,-1 7,-2 -1,3 0,7 1,13 2,0 4,0 6,0 -1,9 -7,20 -13,25 -3,-5 -5,-11 -7,-17 -2,-23 -4,-46 -6,-71zm19 -4l0 0c7,0 13,-1 17,-10 -26,-1 -19,-22 -22,-32 -6,4 -11,5 -15,3 -3,-3 -6,-6 -10,-8 0,0 0,0 0,0 2,-11 12,-17 25,-20 -4,-6 -7,-13 -10,-19 1,-9 3,-15 5,-20 5,10 11,19 21,26l2 11c-5,2 -14,2 -16,8 2,13 3,26 5,38 9,-3 12,3 18,4l5 35c-3,0 -6,0 -9,0 -6,-3 -11,-8 -14,-14zm150 1250l0 0c1,7 2,15 3,22 -1,1 -1,1 -2,2 -4,-7 -4,-15 -1,-24zm8 53l0 0c2,12 3,23 5,35 -2,11 -5,22 -4,33 -4,-13 -9,-25 -14,-37 2,-12 6,-23 14,-30zm2 72l0 0c3,3 6,5 9,7 1,4 1,8 2,12 -1,0 -3,-1 -4,-1 -2,-6 -4,-13 -6,-19zm36 75l0 0c6,5 13,10 20,14 10,62 34,114 12,190 -25,-42 -19,-86 -32,-126 -2,-18 -6,-36 -9,-54 7,-5 14,-9 15,-17 -3,-2 -5,-4 -6,-7zm131 483l0 0 9 54c-19,-41 -40,-79 -60,-116 -9,-30 -18,-60 -14,-86 11,24 45,76 18,92 16,19 33,38 46,60 0,-1 1,-3 1,-4zm58 363l0 0 16 100c-9,3 -18,6 -28,10 0,0 0,0 0,0 13,-29 6,-55 -1,-80 3,-11 8,-21 14,-30zm25 157l0 0 7 46c-3,9 -6,17 -11,23 -4,-27 1,-47 4,-69zm-58 855l0 0c31,-8 40,15 61,19 -14,3 -17,14 -27,20 -5,0 -10,-1 -17,-2 -7,-10 -16,-17 -19,-33 0,-1 1,-2 1,-4zm93 -30l0 0c11,-2 17,5 19,16 -2,3 -4,5 -6,8 2,1 4,3 6,5 -1,13 -6,25 -13,27 -16,-14 -2,-34 -7,-55zm-14 -65l0 0c-3,19 19,56 -1,62 2,-19 3,-37 1,-51 -4,0 -7,1 -10,2 0,-6 3,-11 10,-12zm-230 -1555l0 0c3,9 7,17 10,27 -3,-2 -6,-3 -8,-3 -1,-4 -2,-9 -2,-13 0,-3 1,-7 1,-10zm11 -227l0 0c-1,-1 -2,-2 -3,-2 1,-1 2,-2 3,-2 0,1 0,3 0,4zm19 2162l0 0c3,11 26,27 59,19 2,-17 9,-55 -21,-46 1,13 11,13 11,27 -17,2 -28,-6 -32,-23 2,12 -40,35 -41,6 1,-11 9,1 20,-3 7,-29 -30,2 -31,-17 -19,9 12,16 5,35 -5,1 -9,1 -14,2 -21,-1 4,-16 -4,-28 -25,2 -44,8 -60,17 2,12 4,23 6,35 40,2 86,-2 101,-23zm-188 51l0 0c30,-17 54,-26 78,-34 -18,-44 -78,7 -78,34zm2 -385l0 0c-9,4 -27,2 -38,5 -16,-56 -14,-123 0,-170 1,-31 -33,-13 -38,-35 -4,-20 8,-27 9,-43 93,-26 114,108 100,173 8,44 51,40 54,90 -38,-9 -78,23 -112,7 16,-2 33,-14 24,-27zm-149 -546l0 0c6,0 6,-4 6,-8 8,-5 13,-10 32,-19 -15,-12 -26,-8 -42,0 1,9 3,18 4,28zm16 55l0 0c16,8 -21,-33 25,-18 5,-24 -23,-2 -18,-26 -6,5 -7,21 -13,9 -5,6 -5,22 5,35zm251 -260l0 0c-7,5 -14,7 -21,7 -1,-6 0,-12 4,-17 8,-1 14,3 17,10zm-484 -20314l0 -5c1,1 2,2 3,3 -1,1 -2,1 -3,2zm5561 -633l0 0c26,9 30,81 28,111 -21,-19 -13,-43 -42,-39 -12,-39 18,-40 14,-72zm-49 249l0 0c-39,-58 -4,-181 -16,-247 14,-3 15,6 17,15 12,0 25,-34 24,-1 -37,50 -17,167 -25,233zm-40 -320l0 0c-1,1 -1,1 -2,2 1,-1 1,-1 2,-2zm21 -4l0 0c0,-1 0,-1 0,-2 0,1 0,1 0,2zm0 -3l0 0c0,-1 0,-2 0,-3 0,1 0,2 0,3zm0 -3l0 0c0,-1 0,-2 0,-3 0,1 0,2 0,3zm0 -6l0 0c0,-1 0,-2 0,-3 0,1 0,2 0,3zm1 -19l0 0c0,-1 0,-2 0,-3 0,1 0,2 0,3zm0 -3l0 0c0,-3 1,-6 1,-9 -1,3 -1,6 -1,9zm1 -9l0 0c0,-2 1,-4 1,-6 0,2 -1,4 -1,6zm-5176 357l0 0c5,-22 -17,-16 -17,-31 -29,-1 -42,13 -39,41 22,-1 46,2 56,-10zm1043 -80l0 0c57,-1 -7,-70 -17,-23 10,3 17,10 17,23zm34 47l0 0c-11,0 -22,1 -32,1 -5,31 40,29 32,-1zm339 -58l0 0c-26,-27 -35,15 -65,-14 -27,-2 -44,44 -15,48 13,-41 45,-16 80,-34zm115 52l0 0c-21,-17 -50,6 -56,26 24,-4 49,-6 56,-26zm-1598 240l0 0c5,0 9,1 14,1 -5,-3 -9,-6 -13,-9 0,3 0,5 0,8zm59 19l0 0c0,8 -8,14 -2,24 35,-1 68,1 100,2 26,-10 59,-11 91,-7 25,-5 47,-15 68,-30 -47,-1 -90,-9 -138,4 -9,-3 -14,-10 -19,-17 -12,4 -23,8 -34,9 -16,19 -42,22 -67,17zm315 -60l0 0c2,4 5,8 7,12 15,7 38,6 49,16 -18,7 -34,12 -50,15 -2,2 -4,4 -7,6 27,19 79,-13 99,6 38,-1 76,-5 112,-24 -35,-15 -105,6 -138,-12 -13,-38 46,-9 39,-41 -33,-17 -43,-59 -83,-69 0,45 -15,51 -28,90zm65 87l0 0c-26,9 -56,14 -87,19 0,1 0,3 -1,5 0,-2 0,-3 0,-5 -8,1 -15,2 -23,4 9,8 22,12 36,13 57,-41 136,4 204,-43 -35,-58 -65,20 -113,19 -3,-5 -9,-9 -17,-12zm4182 -240l0 0c17,0 34,0 50,-2 3,-2 6,-6 8,-10 -19,5 -59,-8 -65,10 2,1 4,1 6,2zm85 -6l0 0c16,-3 30,-7 41,-12 -15,-1 -28,2 -41,12zm249 -24l0 0c11,-1 23,-1 34,-3 -9,-4 -19,-6 -34,-3 0,2 0,4 0,6zm-5209 348l0 0 -1 -41c1,0 3,0 4,0 2,-3 3,-5 4,-9 2,0 4,1 6,1 0,2 0,4 1,7 23,16 54,15 88,13 18,5 36,11 52,20 -8,2 -14,6 -17,15 -30,-31 -82,-19 -136,-7zm214 -20l0 0c4,1 7,3 11,4 -3,5 -8,8 -14,9 1,-5 2,-10 3,-14zm3484 -92l0 0c-15,5 -38,16 -43,25 -12,-3 -21,-9 -23,-20 12,-11 32,-15 52,-12 5,2 9,4 14,7zm-84 49l0 0c0,0 0,1 1,1 -5,4 -10,9 -15,13 -1,-4 -2,-8 -3,-11 -19,-1 -22,7 -35,1 -1,3 0,6 1,7 -3,-1 -7,-1 -13,0 0,2 -1,4 -1,6 -9,-3 -19,-9 -23,-16 5,-2 11,-3 17,-5 23,0 47,2 71,3zm1 19l0 0c-1,7 -1,13 8,18 4,-25 24,-16 34,-18 -3,-6 -3,-11 -1,-16 4,-2 7,-5 9,-9 0,0 0,0 0,0 11,4 15,14 17,27 7,-3 14,-5 20,-8 9,2 15,5 20,7 -11,4 -20,9 -29,17l-11 0c-2,-6 -1,-14 -6,-17 -13,0 -26,0 -39,0 2,10 -4,11 -6,18l-35 1c1,-3 1,-6 2,-9 4,-6 9,-9 16,-12zm-1259 -9l0 0c-8,0 -15,0 -23,0 -1,-1 -1,-1 -1,-2 7,-3 16,-2 24,2zm-53 1l0 0c-12,0 -23,0 -35,1 -10,-4 -21,-8 -32,-8 13,-3 26,-6 39,-10 12,3 22,9 28,17zm-72 -7l0 0c-3,2 -6,5 -9,8 -4,0 -8,0 -12,0 1,-1 1,-3 1,-4 7,-1 13,-3 20,-4zm-79 27l0 0c-6,6 -11,12 -17,18 -63,2 -117,19 -190,-12 45,-20 88,-8 129,-16 18,0 37,-1 55,-2 4,7 7,15 15,17 2,-2 5,-4 8,-5zm-495 69l0 0 -54 2c43,-14 83,-30 123,-45 31,-5 62,-10 87,-3 -25,8 -81,35 -94,6 -21,14 -42,27 -66,38 1,0 2,1 4,1zm-368 11l0 0 -101 3c-1,-9 -4,-19 -6,-29 0,0 0,0 0,0 27,16 54,13 79,9 10,5 20,10 28,17zm-159 5l0 0 -47 1c-9,-4 -16,-9 -21,-14 27,-1 47,7 68,12zm-841 -165l0 0c4,32 -19,37 -27,59 -1,-14 -12,-18 -16,-29 1,-5 3,-10 4,-16 11,-5 19,-14 35,-14 1,0 2,1 3,1zm18 96l0 0c1,11 -7,17 -18,17 -3,-2 -5,-4 -7,-6 -2,2 -3,4 -5,6 -12,-2 -24,-9 -25,-16 16,-14 34,2 55,0zm66 -6l0 0c-18,-5 -58,12 -61,-9 18,4 36,8 50,8 0,-4 0,-7 0,-10 6,1 10,4 11,11zm1571 -32l0 0c-9,2 -18,5 -28,6 2,-3 3,-5 4,-8 5,0 9,-1 14,-1 3,1 7,1 10,2zm3020 -178l0 0c55,-13 109,-24 147,-14 -47,29 -96,20 -147,14zm209 -22l0 0c14,-3 29,-6 43,-8 1,4 1,9 0,15 -22,5 -33,-1 -43,-7zm446 -320l0 0c5,-5 9,-12 12,-20 -15,-1 -29,0 -38,5 8,2 17,7 26,15zm-3451 560l0 0c1,-1 2,-2 3,-3 1,1 1,2 2,3 -1,0 -3,0 -4,0zm-2147 -254l0 0c-11,1 -30,22 -26,56 16,5 53,16 49,-15 -13,0 -15,9 -28,8 0,-18 9,-27 27,-28 -12,0 -30,-44 -1,-41 11,3 -2,9 1,21 28,10 2,-30 20,-28 -7,-20 -17,9 -35,1 0,-5 0,-9 0,-14 4,-21 15,6 28,-1 1,-25 -3,-45 -9,-62 -12,0 -23,1 -35,1 -7,39 -9,86 10,103zm1086 69l0 0c-4,-8 -5,-15 -4,-21 6,0 11,2 16,6 0,8 -5,13 -12,15zm20425 -1557l831 13033c-13,41 -2,82 5,125l0 0 2 -13 36 560c-49,41 -92,87 -99,144 -2,18 16,34 18,65 1,20 -16,45 -14,57 9,45 55,87 68,138 26,104 -13,228 58,300 -15,44 0,90 22,124l10 157c-19,2 -37,5 -54,10 -34,79 -66,159 -136,202 25,171 -70,223 -116,323 13,79 10,180 -49,210 -154,-38 -228,82 -123,129 42,19 378,37 462,27 26,-3 52,-15 72,-30l97 1528c-12,6 -19,17 -17,37 -18,-16 -1,-39 12,-52 -21,0 -41,3 -66,19 2,-49 -41,-51 -51,-87 -2,12 -13,14 -15,25 12,12 32,15 25,48 -12,37 -44,6 -54,42 1,42 53,25 56,22 -15,25 -5,80 19,89 12,-36 3,-91 20,-122 36,19 44,34 73,46 -13,11 -51,-1 -47,26 18,17 24,-11 49,-11l16 250c-17,-15 -39,-25 -51,-45 -33,-5 0,53 -38,42 -20,-32 -3,-103 -20,-137 -17,37 -18,76 -17,114 21,19 -8,73 13,99 1,-3 3,-6 5,-8 2,-16 6,-33 12,-51 11,11 12,33 19,48 4,2 8,4 12,6l0 0c32,-12 41,-25 67,-31l36 558 -4 -2c-17,2 -16,21 -15,41 -31,6 -21,-33 -41,-39 -27,40 17,62 19,97 -5,3 -10,6 -16,8l63 -2 286 4490 -3108 198c-3,-3 -7,-6 -11,-8 -1,3 -2,7 -4,9l-228 15c-2,-17 -4,-34 -7,-51 6,-23 -16,-5 -17,-6 -9,-22 10,-83 -32,-77 -16,19 13,22 13,47 -31,-13 -20,-11 -31,19 -18,-10 -11,-50 -15,-77 2,0 5,0 7,-1 -2,-1 -5,-2 -7,-2 0,-2 -1,-5 -2,-7 -2,2 -3,3 -5,5 -4,-1 -7,-3 -11,-4 -1,1 -2,1 -4,2 2,5 5,6 10,7 -17,19 -18,30 -7,72 -78,-87 -51,-209 -82,-345 -31,66 11,192 20,287 -11,41 -68,16 -43,60 -12,-3 -41,13 -41,-4 -3,8 -6,15 -8,23 -36,-39 -73,-84 -152,-65 -40,-30 -76,-64 -120,-90 -2,-4 -6,-5 -10,-6 -2,-1 -4,-2 -5,-3 -1,0 -3,1 -4,1 -4,-2 -7,-6 -4,-16 4,-2 9,-4 13,-6 -15,5 -30,12 -44,19 2,2 4,5 7,7 -12,0 -24,-1 -36,-4 3,-8 7,-15 13,-20 3,2 5,5 8,8 5,-3 9,-4 -3,-14 -16,5 -29,12 -42,20 -86,-28 -167,-96 -217,-12 -2,4 -4,8 -6,13 -64,3 -130,10 -199,13 -3,-7 -8,-14 -15,-20 -14,-15 -60,6 -74,-9 -13,-13 -26,-28 -39,-44 49,7 140,8 170,-25 -5,-1 -10,-2 -15,-2 -50,10 -107,10 -162,19 -57,-67 -120,-142 -201,-148 -18,-1 -32,19 -64,22 -20,2 -46,-13 -57,-10 -44,11 -83,61 -133,77 -102,33 -229,1 -296,77 -60,-16 -120,22 -151,55 17,50 18,96 27,143 0,0 -1,0 -1,0 0,0 1,0 1,0 3,17 8,34 15,52 -12,-6 -16,-23 -37,-19 1,8 2,16 2,24 -33,9 8,-31 -27,-29 -13,15 -33,31 -56,41 -8,-2 -16,-2 -25,-2 -29,-75 -10,-190 -40,-268 -81,-29 -163,-56 -210,-123 -169,35 -227,-56 -330,-96 -78,18 -179,22 -213,-35 28,-156 -97,-223 -137,-114 -16,43 -13,379 3,463 9,47 46,89 71,105 -61,34 -62,81 -50,136 -8,-1 -15,-4 -23,-5 -38,29 -71,62 -95,103 -85,7 -157,59 -232,46 -55,-9 -65,-64 -121,-68 -7,26 -27,41 -52,53 -9,-29 6,-39 2,-64 -13,1 -27,3 -40,4 -5,-32 16,-59 -22,-62 -4,47 -4,68 -6,104 -34,-26 -85,-39 -116,-21 37,11 71,27 95,55 -30,3 -59,6 -89,9 26,20 -18,16 -39,20 3,4 4,8 3,11l-101 6c-4,-4 -8,-7 -16,-7 -13,4 -26,7 -40,10l-296 19c1,-1 3,-3 4,-5 -21,-13 -25,-47 -61,-42 30,22 -18,46 -38,28 -3,-15 7,-18 5,-32 -5,-24 25,18 23,-10 -5,-56 -84,-40 -59,-106 -25,-5 -29,-36 -60,-34 -5,6 -9,11 -10,15 1,3 1,6 0,9 2,6 8,13 15,24 -12,0 -21,-4 -29,-10 -5,3 -11,4 -17,3 -3,-9 -1,-14 1,-19 -4,-4 -7,-8 -11,-11 2,7 3,15 3,24 -27,-12 -30,7 -25,37 -7,-14 -27,-13 -50,-9 -2,-38 -9,-71 -49,-65 15,-19 39,-4 52,9 -2,-21 -6,-41 -24,-64 49,-1 48,-44 84,-56 -12,-1 -15,-12 -26,-13 -11,13 -13,33 -46,28 -38,-10 -9,-44 -46,-51 -42,4 -22,54 -19,58 -26,-14 -80,0 -87,24 36,10 91,-3 123,12 -16,37 -31,46 -41,76 -12,-12 -2,-51 -29,-45 -17,20 17,24 13,55 -40,43 -134,42 -188,74 24,35 32,89 48,134l-149 9c-21,-68 -135,-54 -189,-27 -45,3 -51,-39 -101,-30 12,23 7,50 9,75l-286 18c-5,-7 -8,-16 -9,-26 25,-47 9,-82 28,-130 -3,-17 -22,-15 -42,-12 -8,-30 31,-23 36,-43 -42,-25 -61,21 -95,25 -3,-5 -6,-10 -9,-15l20 206 -3841 245 -6 -81c12,10 21,54 -3,57 8,-28 -8,-42 3,-57l0 0 6 81 -27 2c4,-27 1,-61 -3,-80 -19,21 -8,45 -36,44 -3,20 3,30 9,38l-24 2c-30,-53 -28,-153 -42,-211l0 0c-26,53 5,145 14,213l-27 2c-12,-67 -10,-144 -29,-226 -25,53 -3,144 11,227l-304 19c-16,-13 -33,-25 -51,-35 -2,-4 -6,-5 -10,-6 -2,-1 -3,-2 -5,-3 -1,0 -3,1 -4,1 -4,-2 -7,-6 -4,-16 4,-2 9,-4 13,-6 -15,5 -30,12 -44,19 2,2 4,5 6,7 -12,0 -24,-1 -36,-4 3,-8 7,-15 13,-20 3,2 5,5 8,8 5,-3 9,-4 -3,-14 -16,5 -29,12 -42,20 -86,-28 -167,-96 -217,-12 -2,4 -4,8 -6,13 -64,3 -130,10 -199,13 -3,-7 -8,-14 -15,-20 -14,-15 -60,6 -74,-9 -13,-13 -26,-28 -39,-44 49,7 140,8 170,-25 -5,-1 -10,-2 -15,-2 -50,10 -107,10 -162,19 -57,-67 -120,-142 -201,-148 -18,-1 -32,19 -64,22 -20,2 -46,-13 -57,-10 -44,11 -83,61 -133,77 -102,33 -229,1 -296,77 -60,-16 -120,22 -151,55 17,50 18,96 27,143 0,0 -1,0 -1,0 0,0 1,0 1,0l1 3 -142 9c-10,-69 -3,-153 -27,-213 -81,-29 -163,-56 -210,-123 -169,36 -227,-56 -330,-96 -78,18 -179,22 -213,-35 28,-156 -97,-223 -137,-114 -16,43 -13,379 3,463 9,47 46,89 71,105 -35,20 -51,44 -55,72l-1339 85c-7,-6 -15,-11 -28,-10 -4,5 -7,9 -9,12l-38 2c-2,-2 -3,-3 -5,-5 0,2 1,3 1,5l-81 5c-6,-17 -18,-26 -42,-22 15,-19 39,-4 52,9 -2,-21 -6,-41 -24,-64 49,-1 48,-44 84,-56 -12,-1 -15,-12 -26,-13 -11,13 -13,33 -46,28 -38,-10 -9,-44 -46,-51 -42,4 -22,54 -19,58 -26,-14 -80,0 -87,24 36,10 91,-3 123,12 -16,37 -31,46 -41,76 -12,-12 -2,-51 -29,-45 -16,19 15,24 14,51l-239 15c9,-14 18,-29 32,-39 3,-33 -52,4 -44,-36 30,-22 103,-10 136,-29 -38,-14 -77,-13 -114,-10 -18,22 -73,-4 -98,19 3,1 6,3 8,5 16,1 33,4 52,9 -10,12 -32,14 -46,22 -1,4 -3,9 -5,13l0 0c11,24 21,34 29,50l-559 36c3,-2 5,-5 6,-9 -29,-17 -47,-1 -67,12l-35 2c-1,-2 -2,-3 -2,-5l0 5 -4220 269 -48 -753 378 -60c-6,-1 -12,-3 -17,-5 -4,-34 35,-64 0,-99 -18,10 -1,46 -33,46 -2,-20 -5,-39 -22,-38 -42,31 -80,24 -119,60 -83,10 -92,-128 -102,-189 -55,-45 -41,-141 -114,-170l-18 -286c12,1 27,-1 43,-6 35,-21 -2,-38 7,-59 52,8 117,-2 163,15 17,-60 -8,-152 24,-201 29,-12 41,21 56,-1 -1,-27 -36,-8 -51,-17 26,-17 31,-34 63,-59 22,27 24,84 43,116 22,-13 21,-69 2,-91 4,2 58,9 51,-33 -17,-34 -43,3 -61,-31 -13,-31 7,-37 16,-52 -4,-10 -16,-10 -19,-22 -3,38 -44,47 -33,95 -27,-11 -47,-10 -68,-7 15,9 36,29 22,48 -4,-40 -37,-38 -75,-31 -1,-23 -6,-43 -21,-47 31,-2 48,-10 30,-33 9,-3 17,-4 24,-4 -4,-3 -9,-6 -14,-8 -4,3 -9,6 -18,6 -3,-6 -3,-12 -2,-17 -8,-6 -14,-13 -17,-25 13,4 20,8 27,8 3,-2 5,-3 8,-2 4,-2 7,-7 12,-13 -6,-31 -37,-27 -48,-50 -58,41 -62,-40 -117,-31 -28,5 21,24 -4,25 -14,1 -15,12 -30,13 -23,-15 -11,-68 17,-44 -4,-36 -38,-32 -56,-49 -19,21 14,36 1,57 -3,1 -5,2 -8,3l-38 -603c15,15 28,33 40,52 9,-33 -12,-75 -43,-102l0 -7c31,-10 52,-16 94,-30 -12,-37 -33,-10 -65,-6 -2,-13 -4,-27 -6,-40 -12,1 -19,5 -26,9l-3 -51c2,-1 4,-3 6,-4 -2,-6 -5,-12 -8,-16l-28 -433 2 -4 -2 -4 -1 -18c52,-3 94,-17 111,-82 22,21 72,46 119,42 85,-6 411,-87 449,-113 95,-66 -1,-169 -145,-103 -64,-19 -86,-117 -88,-197 -65,-90 -168,-123 -176,-296 -77,-29 -124,-102 -172,-172 -47,-6 -103,7 -156,18l-9 -138c23,-3 47,-4 73,-2 24,-38 46,-105 15,-160 56,-84 -6,-198 0,-305 3,-52 41,-103 41,-148 0,-12 -22,-33 -24,-53 -4,-31 11,-50 5,-67 -23,-68 -94,-109 -166,-144l-35 -551c3,9 7,18 10,27l0 0c-1,-41 1,-81 -16,-117l-1068 -16756 1105 -70 6 211c2,-6 4,-11 7,-16 35,0 59,43 98,13 -8,-19 -45,-7 -42,-39 20,1 39,0 40,-17 -25,-46 -14,-82 -44,-126 0,-12 3,-23 9,-31l283 -18c0,26 10,55 1,80 50,3 51,-40 96,-43 58,20 176,19 185,-55l149 -10c-10,48 -11,104 -31,143 57,25 151,12 196,50 8,30 -26,38 -6,56 27,2 12,-35 23,-48 14,28 30,35 51,70 -30,19 -86,13 -121,28 10,23 66,30 90,13 -3,4 -16,57 26,55 36,-12 3,-43 39,-57 32,-9 36,11 49,22 11,-3 12,-14 24,-17 -37,-7 -41,-50 -91,-45 14,-25 16,-46 15,-67 -11,14 -34,32 -51,15 40,1 43,-32 40,-70 23,2 43,0 49,-15 -2,31 4,48 29,34 2,10 1,17 1,24 4,-4 7,-8 10,-13 -3,-5 -5,-9 -4,-19 6,-2 12,-1 17,1 7,-7 15,-12 27,-14 -5,12 -11,19 -12,26 2,3 2,6 1,8 2,4 6,8 12,14 31,-2 31,-33 55,-41 -33,-63 47,-57 45,-113 -2,-28 -26,18 -25,-7 1,-14 -10,-16 -9,-32 17,-21 68,-3 41,23 37,0 36,-33 55,-49 -18,-21 -36,8 -56,-6l320 -20c23,2 46,4 68,8 9,-1 14,-7 17,-13l96 -6c3,4 4,10 1,16 21,1 64,-9 41,15 30,-1 59,-2 89,-3 -20,31 -51,50 -87,66 33,14 82,-5 112,-35 7,36 10,56 19,103 38,-7 14,-32 14,-64 14,0 27,-1 40,-1 1,-26 -15,-33 -10,-63 26,8 48,21 58,46 55,-11 58,-67 111,-83 72,-22 151,21 236,17 29,37 66,66 107,90 7,-3 15,-6 22,-8 -6,55 2,102 66,128 -23,19 -54,65 -57,113 -5,85 34,418 56,459 53,102 168,20 121,-131 27,-61 127,-70 207,-62 97,-53 143,-151 315,-137 38,-73 116,-110 193,-149 20,-81 -13,-193 6,-270 8,-1 16,-3 24,-5 24,7 46,20 61,33 35,-2 -11,-37 23,-33 0,8 0,16 1,24 21,2 23,-16 34,-23 -4,18 -7,36 -8,54 0,0 -1,0 -1,1 0,0 1,0 1,0 -3,48 2,93 -8,145 35,29 99,58 157,35 76,66 197,19 303,38 52,10 97,53 142,59 12,2 35,-17 56,-18 31,0 48,17 66,14 80,-16 133,-98 181,-172 56,2 112,-5 163,-2 5,-1 10,-3 15,-4 -34,-29 -125,-16 -172,-3 11,-17 22,-33 33,-48 12,-17 60,-1 72,-18 6,-7 10,-14 12,-22 69,-6 134,-8 199,-13 2,4 4,8 7,12 60,77 132,-1 214,-39 14,6 27,12 44,14 10,-11 7,-12 1,-14 -2,3 -5,6 -7,9 -6,-5 -11,-11 -15,-18 12,-4 24,-7 36,-9 -2,3 -4,5 -6,8 15,5 30,10 46,13 -4,-2 -9,-3 -13,-5 -4,-10 -2,-14 2,-16 1,0 3,0 4,0 2,-1 3,-2 5,-3 4,-1 8,-3 9,-7 40,-31 72,-69 108,-105 81,9 111,-40 142,-83 3,7 7,15 11,22 -2,-17 29,-5 40,-9 -19,47 34,15 50,54 4,96 -22,225 17,287 14,-139 -29,-257 38,-353 -6,42 -3,54 16,70 -5,1 -8,4 -9,8 2,0 3,1 4,1 4,-2 7,-3 11,-5 2,1 3,3 5,4 0,-2 1,-5 1,-7 2,-1 5,-2 7,-3 -2,0 -5,0 -7,0 0,-27 -11,-65 5,-78 15,28 4,32 33,15 3,24 -25,32 -7,48 43,1 16,-58 22,-81 0,-1 24,14 16,-8 0,-18 0,-37 0,-56l221 -14c7,2 10,7 13,13 5,-4 10,-9 14,-14l7015 -447 -9 36 0 0c1,-1 2,-1 4,-2 2,-3 4,-4 6,-5 8,31 16,62 24,92l29 -121 -3 -5 183 -12 -4 17c-25,-3 -34,7 -38,21l0 0c7,26 13,52 20,78l28 -117 130 -8 27 106 27 -110 129 -8 27 106 27 -109 127 -8 27 107 27 -110 125 -8 -1 4 0 0c9,36 18,72 28,109l28 -116 124 -8 -41 167c-2,22 -5,43 -8,65 -1,-5 -3,-11 -4,-16 -10,42 -21,84 -31,127 1,-4 6,-6 17,-5 1,2 2,3 3,5 -2,17 -5,33 -8,50 -3,-4 -6,-7 -8,-10 6,-11 -6,-28 -5,-38 -2,8 -4,16 -6,24 5,18 9,36 14,55 -9,55 -19,111 -29,166 -18,8 -33,21 -48,37 -11,44 -21,88 -32,132l0 0c1,2 3,5 4,7 3,-13 25,-27 33,-6 13,21 -26,18 -20,27 7,15 14,28 21,38l202 -827 123 -8 -239 982 0 0c-5,89 -12,178 -11,269l306 -1254 121 -8 -284 1163 0 0c12,61 -16,111 -1,173 8,-7 14,-13 18,-19 87,-356 174,-713 261,-1069 -8,-14 -19,-28 -32,-42 19,-15 18,-28 0,-41 20,-12 33,7 52,1l41 -169 120 -8 -37 150 0 0c24,12 42,-5 59,-18 4,-17 8,-35 13,-52 -3,1 -5,1 -8,2 -1,-4 -1,-7 -1,-10 5,-1 8,2 10,5 3,-11 5,-21 8,-32 -4,2 -8,2 -11,-2 -2,-14 -3,-28 -3,-42 7,3 14,6 21,6l-2 -10 126 -8 -56 229c1,31 3,62 9,88 -14,15 -21,1 -33,12 0,0 0,1 0,1 -2,12 0,29 0,46 -4,0 -8,-1 -11,-1 -6,24 -12,48 -17,72 2,-1 4,-2 5,-4 0,0 1,0 1,1 0,6 1,11 2,16 -3,-4 -7,-8 -9,-12 -13,54 -26,107 -39,161 7,-4 14,-10 19,-5 -25,29 14,46 -13,75 -7,-3 -13,-8 -19,-18 -2,8 -4,17 -6,25 6,-4 11,-6 14,-1 -11,9 -17,15 -20,22 -31,126 -61,252 -92,378l0 0c11,-9 15,-21 42,-19 2,7 -9,11 -5,19 5,1 10,2 16,2 42,-171 84,-342 125,-514 -4,-8 -1,-17 1,-29 2,1 4,2 5,3l134 -551 118 -8 -152 624 0 0c4,2 8,6 12,10 1,-2 1,-4 2,-5 0,2 1,4 1,6 10,-16 25,-16 43,-26l149 -612 117 -7 -173 711 0 0c11,-5 23,-12 34,-23 14,14 -5,19 3,31 4,3 9,3 15,2l177 -725 116 -7 -137 560 0 0c8,0 17,2 28,-1 0,0 1,-1 1,-1 1,0 2,0 3,0 6,-8 31,-11 23,-22 -9,-6 -21,-1 -31,1 -3,-6 -6,-11 -2,-15 28,2 19,-29 42,-25 1,3 2,6 3,10l124 -510 115 -7 -164 672 0 0c13,20 26,40 40,59l179 -735 114 -7 -225 924 0 0c1,-1 3,-2 4,-4 13,17 32,8 48,11l228 -935 153 -10c-9,11 -26,13 -43,15 -4,16 -8,33 -12,49l0 0c14,-7 37,-5 57,-10l13 -54 644 -41c6,1 11,2 17,3l1 -4 5128 -327zm1153 18092l1 23c-7,2 -14,3 -22,2 -6,-16 -19,-52 12,-50 1,13 -8,15 -6,28 6,0 11,-2 15,-4zm-3070 4731l0 0 -22 -282 0 0c-11,15 6,29 -3,56 23,-2 15,-47 3,-56l22 282zm-930 59l-189 12c10,-62 27,-119 73,-150 -3,-19 -3,-37 -3,-54 42,-21 90,-39 120,-70 13,15 46,8 69,12l0 0c0,7 1,13 2,20 -4,5 -7,11 -9,18 4,1 8,2 13,3 2,14 4,29 2,45 -5,51 -39,77 -65,134 -5,10 -9,20 -13,31zm-3388 216l-8 1c3,-1 6,-1 8,-1zm-1259 80l-7 0 0 -2c3,0 5,1 7,2zm-4715 300l-189 12c41,-20 85,-37 114,-67 13,15 46,8 69,12l0 0c0,7 1,13 2,20 -4,5 -7,11 -9,18 4,1 8,2 13,3l0 3zm-9097 -950l-5 -77c11,13 24,23 38,31 1,24 -11,39 -33,46zm-209 -21157l15 -1c-3,3 -8,6 -14,7l-1 -6zm4465 -285l188 -12c6,12 12,23 19,33 34,53 70,75 82,125 4,15 4,30 4,45 -4,1 -8,3 -12,4 3,7 7,12 12,17 0,7 0,14 0,21l0 0c-23,6 -56,3 -67,20 -33,-28 -83,-39 -128,-55 -2,-16 -4,-34 -4,-54 -51,-26 -75,-82 -93,-144zm1119 -71l0 0 14 287c11,-11 14,-56 -10,-56 12,27 -3,42 10,56l0 0 -14 -287zm10542 155l0 0c14,-56 27,-113 41,-169 22,27 39,47 51,-23 3,-2 6,-3 9,-3 -13,51 -25,103 -38,154 -22,14 -43,27 -64,41zm89 -363l0 0c2,-8 4,-16 6,-24 2,-2 4,-3 7,-5 10,11 24,18 16,35 -4,3 -11,10 -18,6 -5,-3 -9,-8 -11,-13zm125 -289l0 0c0,2 -1,4 -1,5l-3 -6c1,0 3,0 4,0zm-54 221l0 0c0,1 0,2 -1,3 -1,-1 -1,-2 -2,-3 1,0 2,0 3,-1zm-28 115l0 0c-4,17 -8,34 -13,52 -8,-14 0,-35 13,-52zm26 329l0 0 2 -8c21,-14 43,-27 64,-41l-2 8c-21,14 -43,27 -64,41zm32 -130l0 0 58 -238c6,3 11,7 16,12 22,-13 -5,-49 27,-58 9,3 15,7 19,11l-57 234c-21,13 -43,26 -63,38zm188 -550l0 0 -8 32c-2,-4 -5,-7 -7,-10 -6,-14 4,-22 15,-21zm-34 140l0 0 -21 87c-7,-4 -14,-9 -21,-18 18,-19 29,-45 43,-68zm-567 783l0 0c1,-3 1,-5 2,-8 21,-14 43,-27 64,-41 -1,3 -1,5 -2,8 -21,14 -43,27 -64,41zm34 -140l0 0c33,-136 66,-271 99,-407 0,18 4,35 14,50l10 7c1,-24 16,-41 30,-59 -28,116 -57,233 -85,349 -24,5 -1,21 -20,27 -16,10 -32,21 -49,31zm117 -480l0 0c21,-87 43,-174 64,-261 15,-8 35,-9 56,-8 -7,27 -13,54 -20,81 -5,-1 -12,-4 -19,-8 -82,34 -14,83 -8,121 -2,7 -3,13 -5,20 -7,9 -21,17 -47,22 -7,10 -14,21 -20,34zm-343 743l0 0c1,-3 1,-6 2,-9 21,-14 43,-27 64,-41 -1,3 -1,6 -2,8 -21,14 -43,27 -64,41zm25 -100l0 0c4,-17 8,-35 13,-52 1,0 2,1 3,1 2,-2 6,-5 11,-7 7,-9 35,-13 28,-25 -14,10 -28,19 -42,27 58,-239 116,-477 175,-716 0,0 1,0 2,0 4,-7 11,-10 8,-17l-4 -5c2,-9 5,-18 7,-28l39 52c1,0 2,-1 2,-1 -56,230 -112,460 -168,690 -14,9 -29,18 -44,28 -2,2 -3,3 -5,4 0,0 1,0 1,0 -5,16 26,41 -2,51 -7,-5 -16,-3 -24,-2zm57 -10l0 0c-3,12 -6,23 -9,35l-35 21c-4,-15 23,-35 44,-56zm-275 234l0 0c1,-3 1,-6 2,-9 21,-14 43,-27 64,-41 -1,3 -1,6 -2,9 -21,14 -43,27 -64,41zm39 -161l0 0c75,-308 150,-617 226,-925 18,0 38,0 52,9 -1,5 -2,9 -3,14 -4,12 -8,23 -9,36 -68,278 -135,555 -203,833 -3,3 -6,6 -9,9 2,-1 5,-3 8,-5 -1,4 -2,8 -3,12 -21,13 -39,11 -58,17zm240 -985l0 0c1,-4 2,-7 3,-11 4,4 7,9 10,15 -5,-2 -9,-3 -13,-4zm28 -115l0 0c1,-5 2,-10 4,-15 12,1 25,0 22,18 -8,-4 -17,-4 -26,-3zm-502 1384l0 0c1,-3 2,-6 2,-9 21,-14 43,-27 64,-41 -1,3 -2,6 -2,9 -21,14 -43,27 -64,41zm37 -151l0 0c96,-393 192,-787 288,-1180 18,3 36,5 52,8 -92,377 -184,754 -276,1131 -22,14 -43,28 -64,41zm-232 275l0 0c1,-3 2,-7 2,-10 21,-14 43,-27 64,-41 -1,3 -2,6 -2,10 -21,14 -43,27 -64,41zm37 -151l0 0c35,-144 70,-288 105,-432 12,-9 9,-22 26,2 11,-7 22,-14 33,-21 -31,125 -61,251 -92,376 -20,14 -39,32 -56,44 14,5 31,-3 49,-15 -1,3 -1,5 -2,8 -21,13 -43,27 -64,39zm-234 277l0 0c1,-3 2,-7 2,-10 21,-14 43,-27 64,-41 -1,3 -2,7 -2,10 -21,14 -43,27 -64,41zm42 -173l0 0c0,0 0,0 0,0 21,-9 41,-20 62,-30 35,-142 69,-284 104,-426 -13,-12 -31,-6 -53,18 -1,-3 -3,-5 -4,-6 -34,139 -68,278 -102,417 8,-4 16,-7 22,-9 0,8 -9,13 -1,23 -11,10 -19,12 -28,14zm116 -474l0 0c1,-4 2,-9 3,-13 2,-1 4,-2 6,-3 -11,-27 36,-13 52,-33 -49,22 -10,-47 -45,-16 5,-20 10,-40 15,-60 5,-2 9,-3 13,-2 10,11 -26,12 -6,26 18,-19 42,-8 47,-30 1,0 1,0 2,0 -10,41 -20,82 -30,123 -2,-4 -4,-8 -7,-12 -17,6 -34,13 -49,19zm-356 773l0 0c1,-3 2,-7 2,-10 21,-14 43,-27 64,-41 -1,3 -2,7 -3,10 -21,14 -43,27 -64,41zm43 -175l0 0c48,-198 97,-396 145,-594 2,0 4,0 7,0 -2,-1 -4,-1 -5,-2 0,0 -1,0 -1,0 2,-6 3,-13 5,-19 1,1 3,3 4,4 2,-1 4,-3 7,-4 13,-5 16,33 34,8 -2,19 -35,12 -52,33 8,18 27,-11 36,-1 6,-7 -3,-4 -6,-11 18,-15 26,6 18,18 1,0 2,-1 2,-1 -43,177 -86,353 -129,530 -21,13 -42,25 -63,38zm176 -721l0 0c1,-3 1,-5 2,-8 9,-8 33,32 50,16 -1,6 -3,12 -4,17 -7,3 -18,1 -25,0 6,9 11,24 20,21 0,0 0,1 0,1 -18,28 -27,-40 -42,-48zm52 -215l0 0c1,-4 2,-8 3,-12 16,8 20,-19 31,-28 10,22 -12,35 -34,39zm5 -21l0 0c5,-20 10,-40 15,-60 12,2 24,4 36,6 1,9 -5,17 -15,24 -18,5 -11,-4 -18,-18 -16,23 1,35 -17,48zm-475 1259l0 0c1,-3 2,-7 2,-10 21,-14 43,-27 64,-41 -1,3 -2,7 -3,10 -21,14 -43,27 -64,41zm49 -201l0 0c57,-234 114,-469 171,-703 10,10 42,-4 19,18 11,2 19,-10 27,-20 0,0 0,0 -1,-1 2,-2 5,-4 7,-6 2,-1 3,-2 5,-3 -21,85 -41,170 -62,254 -8,3 -14,14 -6,25 -33,136 -67,273 -100,409 -21,11 -41,22 -61,31 3,-3 3,-5 0,-6zm174 -713l0 0c1,-3 1,-5 2,-8 2,-1 3,-2 5,-3 -1,-1 -3,-1 -4,-2 2,-9 4,-17 6,-26 -3,26 14,19 40,1 -1,16 -32,26 -49,38zm53 -216l0 0c0,-1 1,-3 1,-4 1,0 1,0 2,0 -1,1 -2,3 -3,4zm-476 1257l0 0c1,-3 2,-7 2,-10 21,-14 43,-27 64,-41 -1,3 -2,7 -2,10 -21,14 -43,27 -64,41zm48 -196l0 0c1,-5 2,-10 4,-15 21,-7 43,-25 64,-41 -2,6 -3,12 -5,19 -21,12 -42,25 -63,37zm11 -47l0 0c26,-106 52,-211 77,-317 5,1 10,2 16,2 4,-25 8,-50 9,-76 29,14 0,51 0,77 10,0 21,-1 30,-3 -24,100 -49,199 -73,299 -21,2 -41,9 -59,19zm116 -475l0 0c0,-1 1,-3 1,-4 0,1 0,3 0,4 0,0 0,0 -1,0zm5 -22l0 0c27,-111 54,-222 81,-333 1,0 3,0 4,-1 9,9 0,14 -8,20 0,1 0,1 0,2 8,4 14,10 20,23 13,-8 26,-15 28,-25 -6,-13 -19,4 -25,-6 -19,-24 25,-34 43,-49 -3,-5 -9,0 -14,1 -1,-33 12,-46 27,-47 -36,148 -72,296 -108,444 -4,-6 -4,-15 -1,-22 -10,-14 -21,-27 -33,-40 -4,12 -10,23 -14,35zm122 -500l0 0c2,-8 4,-17 6,-25 26,-24 30,-30 46,-57 33,44 -46,55 -29,85 -7,0 -13,-9 -22,-1 0,-1 -1,-1 -1,-2zm11 -46l0 0c1,-5 2,-10 4,-15 3,6 1,10 -4,15zm64 -42l0 0c0,1 0,1 0,2 -17,16 -22,-20 -33,-30 18,-18 23,17 33,28zm-20 82l0 0c-2,8 -4,16 -6,24 -8,2 -15,3 -22,4 0,-12 12,-21 28,-28zm-560 1374l0 0c1,-3 2,-6 2,-9 21,-14 43,-27 64,-41 -1,3 -2,6 -2,10 -21,14 -43,27 -64,41zm50 -205l0 0c2,-8 4,-16 6,-24 5,-5 12,-9 20,-12 -6,-2 -11,-3 -16,-3 31,-128 63,-257 94,-385 4,7 7,13 11,20 12,1 25,-7 36,-1 1,-2 2,-4 3,-6 -30,124 -61,249 -91,373 -21,13 -42,25 -63,38zm192 -787l0 0c1,-4 2,-8 3,-12 13,-9 19,11 34,-3 10,9 13,20 14,30 -11,47 -23,93 -34,140 -6,-4 -12,-9 -17,-16 22,-13 25,-31 27,-49 -15,-16 -9,14 -24,15 -11,-13 3,-20 -12,-34 16,-15 25,-7 40,-16 3,-7 -25,-34 -30,-55zm116 -474l0 0c3,-12 6,-24 9,-36 3,0 6,-3 10,-4 -5,14 -7,28 -19,40zm-561 1594l0 0c1,-3 1,-6 2,-9 21,-14 43,-27 64,-41 -1,3 -1,6 -2,9 -21,13 -43,27 -64,40zm53 -217l0 0c37,-151 74,-303 111,-454 12,18 29,31 46,32 -31,128 -63,257 -94,385 -21,12 -42,24 -63,36zm177 -724l0 0c75,-306 149,-613 224,-919 0,0 0,0 0,0 3,-5 5,-10 6,-18 17,-1 35,-1 52,-1 -55,224 -109,449 -164,673 -28,3 -53,18 -51,49 8,-4 15,-7 19,5 -11,84 -20,138 -67,213 -7,-2 -13,-3 -21,-3zm262 -1074l0 0c0,-2 1,-3 1,-5 0,2 0,4 -1,5zm6 -24l0 0c3,-12 6,-24 9,-36 12,23 29,30 8,63 -6,-9 -11,-18 -17,-27zm-159 875l0 0c-2,6 -3,13 -5,19 -1,-6 -4,-12 -9,-19 4,0 9,0 13,0zm-67 274l0 0c-5,22 -11,45 -16,67 -12,-1 -25,2 -35,-13 26,-18 4,-46 41,-63 3,3 6,6 10,9zm-18 75l0 0c-1,4 -2,8 -3,13 -3,-4 -5,-8 -3,-14 2,-1 4,0 6,1zm-9 37l0 0c-6,23 -11,47 -17,70 -2,-13 -4,-25 -1,-37 -3,0 -6,0 -8,-1 -11,-16 3,-27 -12,-44 21,-4 16,1 33,-6 3,8 -10,13 -18,19 5,12 15,4 24,-1zm-448 906l0 0c1,-2 1,-5 2,-7 21,-14 43,-27 64,-41 -1,3 -1,5 -2,8 -21,13 -43,27 -64,40zm60 -245l0 0c37,-152 74,-303 111,-455 3,5 6,11 10,16 7,1 15,-2 24,-8 -6,28 -21,62 -3,87 -23,94 -46,188 -69,282 -10,8 -18,17 -23,25 6,0 12,0 18,-2 -2,9 -5,19 -7,28 -20,9 -40,18 -60,26zm149 -610l0 0c13,-54 26,-108 39,-161 14,23 1,39 21,63 -20,-5 -21,12 -17,27 7,11 18,3 29,-2 -1,4 -2,8 -3,12 -5,0 -8,2 -5,11 1,0 2,-1 3,-1 -8,34 -16,67 -25,101 0,0 0,-1 0,-1 -20,-1 -35,-8 -36,-47 -2,-1 -4,-1 -6,-1zm-414 985l0 0c0,-2 1,-4 1,-6 21,-14 43,-27 64,-41 -1,2 -1,4 -2,6 -21,13 -43,27 -64,40zm70 -287l0 0c41,-169 82,-337 123,-506 13,2 26,5 37,12 6,13 1,23 6,35 -35,142 -69,283 -104,425 -12,5 -23,11 -34,17 -10,5 -19,11 -28,17zm164 -673l0 0c20,-83 40,-166 61,-249 1,9 3,18 4,27 8,3 16,2 25,1 -23,73 14,198 -90,221zm34 83l0 0c-5,20 -10,39 -14,59 -5,-9 -10,-17 -18,-25 7,-17 18,-27 32,-33zm-475 1006l0 0c0,-1 1,-2 1,-4 21,-14 43,-27 64,-41 0,1 -1,3 -1,4 -21,13 -43,27 -64,40zm61 -252l0 0c44,-179 87,-358 131,-537 7,-9 12,-20 12,-26 15,-8 28,-5 37,13 11,-9 3,-22 -8,-25 8,-8 18,-16 28,-24 -45,185 -90,370 -135,555 -20,16 -40,31 -60,43 -2,0 -3,0 -5,1zm146 -598l0 0c1,-6 3,-11 4,-17 6,3 10,9 15,17 -10,-6 -14,-3 -19,0zm5 -20l0 0c1,-4 2,-9 3,-13 4,-1 7,-3 10,-5 -2,-6 -4,-9 -7,-11 2,-7 3,-14 5,-21 6,-4 11,-12 19,-23 16,17 -10,25 -13,38 10,6 29,8 45,1 -1,6 -3,12 -4,17 -17,4 -35,9 -58,16zm159 -653l0 0c13,-51 25,-103 38,-154 11,19 21,40 27,71 -2,1 -4,3 -6,4 2,13 4,25 6,37 -8,32 -16,64 -23,96 0,-5 0,-10 0,-16 -4,3 -8,8 -12,12 -15,-33 -19,-32 -29,-50zm115 -471l0 0c1,-6 3,-11 4,-17 2,7 3,13 5,20 -4,-1 -7,-1 -9,-3zm-146 821l0 0c-7,27 -13,54 -20,80 -13,-4 -25,-11 -37,-19 0,-27 15,-51 38,-72 7,1 12,11 19,11zm-548 1302l0 0c0,0 0,0 0,-1 21,-14 43,-27 64,-41 0,1 0,1 0,2 -21,13 -43,27 -64,40zm69 -283l0 0c50,-205 100,-410 150,-616 15,1 17,-22 9,-38 4,-16 8,-32 12,-47 1,0 2,-1 2,-1 -1,-1 -1,-1 -2,-2 2,-7 3,-13 5,-20 8,7 15,16 17,31 14,-16 23,-15 33,-12 -54,222 -108,443 -162,665 -21,13 -42,26 -64,40zm277 -1136l0 0c4,-16 8,-31 11,-47 8,-1 15,-1 22,2 -4,22 -18,40 -34,46zm40 -163l0 0c12,-47 23,-95 35,-142 6,12 12,24 19,35l3 -3c1,5 3,11 5,17 4,6 7,12 11,19 -7,30 -15,60 -22,89 -4,1 -8,2 -11,-1 -6,30 -20,32 -5,63 -17,-13 -40,-42 -17,-63 -7,-4 -12,-8 -18,-13zm59 -241l0 0c8,-33 16,-66 24,-98 3,-2 6,-4 9,-6 8,-6 22,-19 37,-33l0 -6c1,1 3,1 5,2 6,-6 12,-11 19,-16 -14,59 -29,118 -43,177 -4,-9 -10,-18 -16,-27 -13,-3 -23,1 -33,8zm37 -151l0 0c13,-51 25,-103 38,-154 6,23 11,45 17,68l-12 4c9,20 23,43 8,69 -17,5 -32,17 -49,21 -1,-3 -1,-6 -2,-8zm90 -367l0 0c13,-51 25,-103 38,-154 9,36 18,73 28,109 -12,51 -25,103 -38,154 -9,-36 -18,-72 -28,-109zm-706 2167l0 0c64,-262 128,-524 192,-786 21,-8 41,-15 60,-23 -30,121 -59,242 -89,363 -10,7 2,19 -14,24 3,1 6,2 8,3 -32,131 -64,262 -96,394 -20,10 -40,18 -60,25zm213 -874l0 0c4,-18 9,-35 13,-53 18,-10 38,-18 58,-16 -2,7 -3,13 -5,20 -1,1 -1,2 -1,4 -1,3 -1,5 -2,8 -8,1 3,-13 -12,-13 -5,16 -7,4 -21,13 4,10 11,6 15,13 -18,4 -25,8 -37,23 -3,1 -6,2 -9,2zm121 -496l0 0c22,-91 45,-182 67,-273 19,-7 40,-15 60,-25 -12,49 -24,97 -36,146 -6,-4 -13,-8 -21,-10 -11,6 -11,14 -16,22 0,0 1,0 1,0 3,4 3,10 6,14 -2,1 -3,1 -5,2 8,12 14,23 20,33 -5,19 -9,38 -14,57 -1,-1 -2,-1 -4,-2 -19,17 -39,28 -59,37zm103 -423l0 0c2,-8 4,-17 6,-25 4,11 1,19 -6,25zm6 -26l0 0c4,-16 8,-32 12,-47 8,11 15,24 14,34 -13,2 -13,11 -26,13zm17 -70l0 0c4,-16 8,-33 12,-49 7,27 14,53 20,80 -12,-7 -22,-22 -32,-31zm65 -266l0 0c13,-51 25,-103 38,-154 9,36 18,72 28,109 -13,51 -25,103 -38,154 -9,-36 -18,-72 -28,-109zm-29 339l0 0c-2,7 -3,14 -5,21l-24 20c-9,-20 10,-40 15,-49 4,3 9,5 14,8zm-105 430l0 0c-2,9 -4,17 -6,26 -2,1 -3,2 -4,3 -4,-6 -9,-15 -11,-22l7 -13c4,1 10,3 15,6zm-32 131l0 0c-2,6 -3,13 -5,19 -1,-8 1,-14 5,-19zm-105 432l0 0c-1,3 -2,6 -2,10 -2,1 -4,2 -6,3 2,-7 5,-11 8,-13zm-395 667l0 0c31,-126 62,-252 92,-379 4,0 7,0 12,0 -4,-8 -7,-15 -7,-22 0,-2 1,-3 1,-5 2,-5 7,-10 15,-17 -1,7 -5,14 -9,21 11,16 32,-8 49,-16 -3,-20 5,-38 16,-55 -44,179 -87,357 -131,536 -13,-21 -26,-42 -39,-64zm146 -597l0 0c10,-40 20,-80 29,-120 19,-7 41,-13 59,-21 -9,37 -18,73 -27,110 -21,13 -42,24 -62,32zm56 -228l0 0c5,-21 10,-41 15,-62 11,-8 21,-17 12,-29 -6,6 -3,15 -9,21 0,0 0,0 -1,0 3,-12 6,-23 8,-35 5,1 9,3 12,7 15,-30 31,-31 47,-28 -8,32 -16,65 -24,97 -20,1 -40,-8 -41,23 -8,6 -13,2 -21,6zm61 -252l0 0c25,-103 50,-206 75,-309 23,-15 42,-39 34,-59 17,-5 29,-8 38,-15 -28,114 -55,227 -83,341 -21,14 -43,28 -65,43zm128 -525l0 0c13,-52 25,-104 38,-156 9,36 18,73 28,109 -13,52 -25,104 -38,157 -9,-36 -18,-73 -28,-109zm93 -382l0 0c13,-52 25,-103 38,-155 9,36 19,72 28,109 -13,52 -25,104 -38,155 -9,-36 -18,-73 -28,-109zm-295 1431l0 0c-4,15 -7,30 -11,45 -12,2 -23,8 -17,21 -12,-5 -26,-3 -35,-22 20,-21 40,13 48,-16 -3,-5 -9,0 -14,1 9,-10 19,-20 29,-29zm-317 344l0 0c32,-131 64,-263 96,-394 21,-12 41,-21 62,-31 -9,37 -18,74 -27,111 -6,4 -14,8 -24,12 2,10 0,18 -6,26 5,8 10,16 16,22 -26,106 -52,212 -78,319 -13,-21 -26,-42 -39,-64zm118 -483l0 0c11,-46 22,-91 33,-137 18,-12 44,-30 63,-38 -11,45 -22,91 -33,136 -21,13 -42,25 -64,39zm53 -217l0 0c35,-143 70,-286 105,-429 0,1 0,1 0,1 14,0 29,1 41,10 6,21 -8,9 -23,22 8,-28 -1,-22 -14,-16 2,6 3,13 5,19 9,-2 21,-2 36,-1 -27,109 -53,218 -80,327 -21,14 -41,27 -62,41 1,6 3,12 4,18 -4,3 -8,5 -12,7zm111 -453l0 0c0,-1 1,-3 1,-4 8,-9 38,-9 46,11 2,-3 5,-6 8,-10 -1,5 -2,9 -3,14 -20,10 -35,-3 -52,-10zm67 -274l0 0c1,-4 2,-8 3,-12 3,-5 4,-9 3,-14 5,-23 11,-45 17,-68 9,36 19,72 28,109 -6,22 -11,45 -16,67 -10,6 -23,5 -44,0 -1,-5 -2,-13 -4,-20 0,0 1,-3 5,-6 33,17 34,-18 41,-39 6,-4 -4,-12 -3,-18 -12,-5 -20,-1 -30,2zm79 -325l0 0c13,-52 25,-104 38,-156 9,36 18,73 28,109 -13,52 -25,104 -38,156 -9,-36 -18,-73 -28,-109zm-557 1541l0 0c2,-10 5,-20 7,-30 6,-1 12,-2 20,-10 -6,1 -11,0 -17,0 20,-81 39,-161 59,-242 25,-4 45,-23 65,-44 -10,40 -20,81 -30,121 -5,7 -7,15 -6,24 -20,81 -40,162 -59,243 -8,-12 -15,-25 -23,-37 18,-8 13,-21 33,-29 -15,-1 -30,2 -46,7 -1,-2 -2,-3 -3,-5zm93 -381l0 0c41,-168 82,-336 123,-504 3,1 7,1 10,-1 1,7 -3,12 -7,18 1,3 2,6 2,9 15,-5 29,-3 43,-2 -5,22 -11,44 -16,67 -2,1 -5,2 -8,3 -2,-2 -4,-4 -6,-6 0,1 -1,1 -2,2 0,0 0,0 -1,0 -4,6 -8,13 -13,19 5,-1 10,-3 15,-5l0 -1c0,0 0,0 0,0 4,-2 8,-4 11,-6 -30,123 -60,246 -90,369 -21,13 -42,25 -63,38zm182 -746l0 0c5,-20 10,-39 14,-59 4,0 9,1 16,2 10,31 26,70 0,102 5,3 9,3 13,2 -5,20 -10,41 -15,61 -9,-36 -18,-73 -28,-109zm23 -93l0 0c4,-17 8,-33 12,-50 1,0 3,-1 4,-2 8,32 16,64 26,98 -26,-15 -4,-49 -30,-64 -3,7 -7,13 -11,17zm73 -299l0 0c12,-51 25,-102 37,-153 9,36 18,72 28,109 -12,51 -25,102 -37,153 -9,-36 -18,-72 -28,-109zm77 -296l0 0c3,0 6,1 9,1 5,-4 8,-9 9,-15 7,23 13,46 17,71 -3,10 -5,21 -8,31 -12,-28 -19,-58 -28,-88zm-156 841l0 0c-2,6 -3,13 -5,19 -10,-8 -26,-16 -20,-30 8,2 16,6 25,11zm-8 34l0 0c-1,6 -3,11 -4,17 -13,-1 -25,-2 -35,-3 -2,-5 2,-9 -1,-14 15,-6 27,1 40,0zm-413 726l0 0 136 -556c1,-1 3,-3 4,-4 0,-1 -1,-3 -2,-4l0 -1c1,1 2,2 3,4 25,-26 48,-53 70,-81l-15 61c-13,16 -26,32 -40,48 5,12 10,25 13,33 3,-1 6,-1 8,-1l-138 565c-13,-21 -26,-42 -39,-64zm191 -782l0 0 117 -481c4,6 8,12 13,17 -3,-11 -6,-23 -9,-34l37 -151c0,0 0,0 1,0 9,36 18,72 27,108l-44 179c-6,-1 -13,0 -20,4 -13,43 -22,87 -55,124 6,12 15,9 21,20 -13,72 -46,144 -88,213zm138 -343l0 0 -4 18c-2,-2 -4,-6 -6,-11 3,-4 6,-6 10,-7zm65 -490l0 0 3 -13c1,5 1,10 -3,13zm2502 565l0 0c-1,0 -2,0 -3,1 -1,-1 -1,-2 -2,-3 2,1 3,2 5,3zm-1614 349l0 0c-2,0 -4,1 -6,1 5,-29 -4,-25 -12,-44 11,-7 22,-14 33,-21 -5,18 -10,37 -15,55 0,3 0,6 0,8zm958 -532l0 0c6,-7 11,-13 17,-20 0,5 2,10 6,14 -9,6 -15,2 -23,6zm-131 -94l0 0c-3,-1 -5,-1 -7,-2 3,-1 5,-3 5,-4 1,2 2,4 3,6zm-1892 1374l0 0c-5,-6 -9,-12 -17,-4 -7,4 1,12 -4,17 -4,-3 -8,-3 -14,1 -25,-26 48,-45 35,-15zm702 42l0 0c-11,-17 -29,-22 -9,-39 10,15 15,28 9,39zm-64 278l0 0c-5,-9 -11,-18 -16,-27 8,-4 18,-14 24,-8 -11,9 -2,24 -8,35zm950 -315l0 0c-7,4 1,12 -4,17 -5,-17 -22,20 -27,3 10,-14 10,-31 31,-20zm-646 -381l0 0c0,-1 1,-1 1,-2 0,0 0,1 1,1 -1,0 -1,1 -1,1zm-833 -842l0 0c3,8 -4,7 -6,4 -10,6 -13,14 -11,23 -21,-7 -11,-50 1,-66 13,12 -11,41 16,40z"/>
 </g>
</svg>
