<?xml version="1.0" encoding="UTF-8"?>
<!DOCTYPE svg PUBLIC "-//W3C//DTD SVG 1.1//EN" "http://www.w3.org/Graphics/SVG/1.1/DTD/svg11.dtd">
<!-- Creator: CorelDRAW X6 -->
<svg xmlns="http://www.w3.org/2000/svg" xml:space="preserve" width="121.871mm" height="50.9524mm" version="1.1" style="shape-rendering:geometricPrecision; text-rendering:geometricPrecision; image-rendering:optimizeQuality; fill-rule:evenodd; clip-rule:evenodd"
viewBox="0 0 12935 5408"
 xmlns:xlink="http://www.w3.org/1999/xlink">
 <defs>
  <style type="text/css">
   <![CDATA[
    .fil0 {fill:#DB1304;fill-rule:nonzero}
    .fil1 {fill:white;fill-rule:nonzero}
   ]]>
  </style>
 </defs>
 <g id="图层_x0020_1">
  <metadata id="CorelCorpID_0Corel-Layer"/>
  <path class="fil0" d="M8861 4624c-25,-8 -25,-8 -29,-13 7,-43 80,-23 29,13zm-516 -4169l0 0c43,7 59,11 20,39 -24,-7 -20,-11 -20,-39zm-302 141l0 0c36,3 286,-141 276,-82 -105,76 -225,106 -343,132 -88,-30 33,-36 66,-50zm413 208l0 0c-104,-25 -104,-25 -158,-34 -176,-1 28,-78 115,-25 97,8 322,-3 373,86 -9,22 -287,-28 -329,-27zm-361 209l0 0c-4,-2 -8,-4 -11,-5 5,-27 27,-6 11,5zm-786 -72l0 0c-16,-36 66,-25 25,7 -8,-2 -17,-5 -25,-7zm1420 -11l0 0c-28,-2 -349,-61 -358,-3 57,78 -97,57 -109,17 16,-96 -171,-110 -172,-108 -15,92 87,26 58,132 -4,24 60,3 46,39 -38,23 -135,49 -34,80 139,-44 334,-57 478,-27 45,1 69,-44 108,-59 97,16 35,-56 -17,-70zm-205 73l0 0c-18,-4 -79,-8 -74,-37 53,-38 201,35 74,37zm-507 55l0 0c-15,8 -15,8 -18,12 -98,-27 29,-78 18,-12zm447 260l0 0c-8,-2 -17,-5 -25,-6 -34,-32 78,-32 25,6zm138 22l0 0c-14,-5 -28,-9 -37,-21 12,-28 115,9 37,21zm147 26l0 0c-21,-4 -41,-8 -61,-11 -122,-73 258,7 61,11zm-852 -106l0 0c-8,-2 -16,-5 -24,-6 -25,-34 63,-22 24,6zm143 39l0 0c-233,-86 160,-89 228,-86 168,42 -203,78 -228,86zm-844 -106l0 0c-21,-7 -35,-7 -47,-24 14,-85 174,13 47,24zm-2658 -137l0 0c-6,-4 -11,-4 -10,-12 15,-7 12,0 10,12zm1145 225l0 0c-40,-14 -40,-14 -48,-20 -26,-45 128,-13 48,20zm-1307 -240l0 0c30,-13 34,15 10,33 -17,-11 -13,-11 -10,-33zm1161 218l0 0c-6,-3 -15,-7 -17,-14 7,-43 66,-14 17,14zm-2783 114l0 0c-2,3 -2,6 -3,8 -19,-6 -17,-12 3,-8zm-2485 560l0 0c-136,-71 -29,-96 40,-106 -6,-18 -6,-35 2,-51 133,-67 530,-252 655,-179 53,11 224,-41 230,-8 -67,32 -369,48 -317,103 136,15 271,-10 388,-78 71,-13 451,-92 200,41 -61,7 -451,94 -262,149 136,8 347,79 457,-33 -11,-64 -62,-59 64,-82 93,2 -34,68 -40,84 15,127 -124,60 0,147 37,69 -82,23 -100,18 -8,2 -297,26 -218,72 238,48 528,-35 776,-54 91,26 -379,116 -397,133 -10,75 321,-10 392,-2 56,-10 377,-119 306,22 -41,7 -56,-42 -97,27 -150,81 127,4 143,-1 69,-67 114,-37 202,-66 25,-86 -215,56 -176,-32 83,-119 494,-99 614,-114 168,30 -147,94 -158,98 -24,4 -269,21 -123,52 108,-1 254,-54 351,-3 67,-12 448,-111 162,-120 -82,-42 150,-63 172,-65 417,-70 818,-104 1238,-153 116,-7 206,-31 322,-21 5,-1 423,-63 205,46 -60,86 142,31 148,30 84,36 100,-54 223,-27 175,-31 365,-69 544,-64 46,-8 249,-65 177,20 20,111 436,-13 560,-8 197,-36 386,-29 580,-61 88,-6 357,-58 413,-19 14,78 -310,70 -396,85 -225,-23 -468,44 -695,46 -109,20 -292,21 -334,125 20,21 202,-18 238,-21 60,-64 100,99 133,23 -10,-54 9,-92 27,-22 3,18 3,31 31,26 42,-27 612,-92 680,-57 92,-7 201,-43 301,-14 84,-15 283,-58 335,37 59,-11 27,-108 160,-51 94,98 -159,-6 -89,88 32,23 228,26 165,-59 -14,-79 155,27 175,23 131,57 476,0 614,-9 75,-13 328,-83 343,-2 -37,183 295,11 390,106 -25,3 -408,16 -414,45 21,117 141,-30 159,70 27,-5 524,-71 407,-122 -81,15 -190,8 -45,-70 18,-26 -20,-42 12,-70 133,-24 289,-70 409,-8 59,-11 88,-60 164,-53 189,114 219,-110 331,-65 46,-5 214,-55 171,44 -36,41 16,52 35,24 18,-100 65,-48 67,-136 9,-14 32,-7 47,-10 55,-40 63,-125 -6,-160 -16,-16 -97,-71 -84,-91 36,-1 103,50 120,-9 -7,-35 -99,-192 0,-138 16,31 62,105 48,139 -84,57 70,63 93,104 26,89 57,77 3,155 21,115 157,19 204,4 148,53 -98,71 -132,112 -142,37 82,49 84,62 -25,20 -137,61 -70,108 45,3 121,-7 167,-15 31,-57 144,-63 117,-9 -202,24 -98,121 -12,47 21,-4 178,-1 187,5 12,65 -421,59 -424,122 27,24 88,-29 106,12 -50,50 -10,83 -77,108 -43,47 84,46 122,100 35,24 85,5 48,58 27,148 282,22 331,214 123,165 336,212 498,325 96,22 119,49 113,77l0 0c-14,60 -172,122 0,139 86,35 197,24 88,122 -128,62 -235,-17 -340,-85 -17,-8 -58,-23 -69,-38 -60,-29 -128,-83 -201,-138l0 0c-147,-111 -309,-224 -441,-134 -105,45 -124,55 -181,134l0 0c-4,6 -9,12 -13,19 -144,14 1,227 -121,191 -71,-57 -162,11 -253,-22 -34,-21 -287,-176 -289,-71 57,87 -5,201 20,293 22,14 34,17 38,42 -26,53 3,310 -45,319 -69,-23 -113,25 -100,98 -96,114 278,52 89,174 -11,2 -53,8 -102,18l-217 0 217 0c-107,22 -250,61 -185,114 16,7 89,12 108,9 41,-37 68,-47 121,-24 30,105 -246,26 -228,127 20,28 -26,25 -46,30 -47,-112 -41,32 -132,-2 -125,56 -411,84 -562,111 -186,3 -380,51 -567,43 -265,97 -549,65 -826,62 -203,29 -400,32 -601,65 -118,-11 420,-274 99,-242 -167,-3 -60,118 -173,176 -63,20 -352,163 -380,92 35,-51 152,-24 124,-120 -15,-17 -71,-110 -106,-84 -22,93 -175,-3 -253,5 -61,25 -316,-131 -178,-15 47,57 332,206 278,253 -109,20 -226,-167 -325,-196 -87,15 -450,26 -183,104 48,-3 464,99 241,128 -276,-12 -561,106 -841,108 -328,59 -656,102 -984,109 -47,9 -75,-27 -113,-20 -171,155 -449,-75 -624,127 -67,30 -516,119 -578,96 -8,-44 178,-47 218,-76 -12,-66 -287,65 -286,-3 41,-81 56,-126 -48,-137 -185,20 -69,-148 -70,-144 -166,45 -353,80 -531,113 -40,39 -150,74 -205,50 -168,30 -465,-42 -537,168 30,55 90,-53 100,-69 4,-3 531,-83 345,1 -55,63 50,28 76,22 73,-70 417,-50 336,46 -63,38 -383,86 -434,27 -21,-117 -122,33 -147,46 -157,28 -87,75 -195,134 -192,40 -318,144 -521,181 -43,-2 -37,-33 -20,-62 68,-77 -185,-117 -212,-179 81,-143 -58,-53 -110,-163 -42,-63 47,-113 -26,-153 -207,-44 244,-35 43,-64 -38,-20 -203,-1 -85,-50 8,-1 121,-21 84,-46 -116,-35 -159,23 -211,-97 -21,-23 -67,-35 -81,-58 -18,-102 -168,-68 -131,-193 -5,-28 -40,-9 -35,-48 61,-29 39,-38 -10,-54 -265,-151 91,-145 122,-248 -1,-1 -2,-1 -3,-2 -36,-18 -94,-4 -136,0l-20 0c-35,-15 -89,-10 -149,0 -125,21 -273,66 -316,0 -11,-18 -15,-44 -8,-80 -71,-125 -114,-78 -135,-234 -104,-104 30,-160 -65,-271 -17,-93 -29,-91 -80,-171 -8,-45 56,-81 46,-135 -39,-75 -74,-115 -67,-170 3,-28 17,-60 47,-102 139,-96 -146,-43 -92,-224 173,-106 -94,-146 34,-255 47,-82 -63,-116 68,-139 121,-59 -120,-49 -131,-50 -110,-77 86,-174 67,-194 -33,-13 -79,-45 -111,-81 -31,21 -70,42 -75,50zm1304 2057l0 0c0,-20 57,-25 184,-7 0,2 1,5 1,7 15,80 26,66 -41,92 -93,-40 -144,-73 -144,-92zm2083 0l0 0 3795 0c8,-12 24,-16 34,0l0 0c3,5 5,11 6,19 -5,18 -6,24 -22,30 -26,-15 -27,-36 -18,-49l-3795 0zm3904 0l0 0c-8,-139 -2,-387 76,-228 43,26 16,143 -11,228 -9,29 -18,55 -24,72 -7,5 -7,5 -31,12 -3,-2 -7,-37 -10,-84zm989 0l0 0 1847 0c24,-22 41,-18 52,0l0 0c21,37 13,131 -24,159 -31,-9 -47,-95 -54,-128 9,-13 18,-23 26,-30l-1847 0zm-1514 -531l0 0c-17,13 -17,13 -28,17 -66,-25 36,-73 28,-17zm36 -362l0 0c-121,-58 73,-111 22,-8 -7,2 -14,5 -22,8zm378 70l0 0c-6,5 -6,5 -21,10 -30,-21 16,-40 21,-10zm299 459l0 0c-7,2 -14,5 -23,7 -37,-3 -79,-3 -108,-31 -147,-38 247,-64 130,23zm2140 103l0 0c-6,13 -12,15 -24,22 -52,-29 23,-78 24,-22zm12 -235l0 0c-4,1 -9,3 -14,5 -26,-18 29,-39 14,-5zm13 -107l0 0c-8,7 -14,11 -24,14 -135,9 15,-61 24,-14zm-8676 603l0 0c1,0 1,0 2,1 6,0 12,0 18,-1l-20 0zm176 276l0 0c-123,0 -35,-66 35,-78 150,-53 60,49 -35,78zm122 233l0 0c-60,-9 -76,-81 -2,-66 47,43 88,39 2,66zm-169 -389l0 0c-12,-67 409,-45 186,34 -80,-37 -107,-20 -186,-34zm409 493l0 0c-3,-3 -6,-5 -10,-8 -7,-38 42,-12 10,8zm7 -388l0 0c-75,-37 -74,-39 -163,-30 -100,-70 280,-38 163,30zm2626 647l0 0c-74,-6 -280,43 -287,-59 14,-49 210,-37 268,-59 39,-7 61,106 18,118zm604 -55l0 0c-71,-49 -2,-295 101,-157 195,33 -56,144 -101,157zm826 -184l0 0c-55,-1 -471,81 -446,-3 117,-78 325,13 437,-47 89,-15 414,-115 491,-71 11,61 -404,107 -482,121zm1125 -399l0 0c-4,2 -8,4 -12,5 -56,-28 32,-51 12,-5zm37 -102l0 0c-8,7 -8,7 -24,14 -103,-51 55,-102 24,-14zm294 -53l0 0c-59,-52 41,-66 17,-9 -5,2 -11,5 -17,9zm152 223l0 0c-45,-10 -71,-50 -103,-80 -17,-96 174,43 103,80zm1654 18l0 0c-128,9 -456,96 -525,49 -12,-65 -82,-156 57,-110 198,-27 375,23 567,-54 146,-26 -48,105 -100,116zm567 -70l0 0c-14,-4 -22,41 -53,50 -40,-11 -86,-69 -94,-110 6,-49 226,-46 281,-54 120,27 -46,193 -135,114zm436 29l0 0c-62,-35 -91,-194 21,-199 24,16 9,58 5,83 -22,52 66,90 -26,116zm151 -195l0 0c-35,51 30,100 -35,129 -166,-59 103,-274 35,-129zm71 100l0 0c-53,-26 -29,-132 18,-99 8,50 29,84 -18,99zm188 -123l0 0c-63,-56 3,-94 17,-16 -5,8 -5,8 -17,16zm-9800 -1898l0 0c-4,1 -8,3 -12,4 -73,-51 64,-67 12,-4zm64 -312l0 0c-11,39 -213,100 -245,108 -77,-29 12,-100 63,-90 38,27 178,-203 181,-18zm1263 455l0 0c-29,5 -57,10 -85,20 -69,-43 137,-58 85,-20zm92 -12l0 0c-55,-16 5,-58 23,-17 -3,9 -15,14 -23,17zm1412 470l0 0c-27,-37 -85,11 -114,-21 1,-72 153,0 114,21zm63 -762l0 0c-175,-13 40,-85 96,-71 21,-4 226,-55 247,-14 -10,34 -298,75 -343,86zm2144 -171l0 0c-9,5 -18,11 -27,17 -10,-56 58,-62 27,-17zm-337 43l0 0c-7,2 -15,5 -23,9 -32,-24 9,-47 23,-9zm-768 -6l0 0c-9,3 -19,5 -29,9 -58,-41 60,-54 29,-9zm-405 53l0 0c-232,-68 444,-157 279,-48 -35,16 -35,16 -56,22 -84,-21 -142,19 -223,26zm468 -76l0 0c35,-51 453,-98 414,-42 -7,1 -15,4 -22,6 -77,-18 -382,92 -392,36zm1157 -12l0 0c-7,3 -14,7 -22,10 -57,-8 19,-69 22,-10zm229 72l0 0c-20,6 -39,11 -59,18 -67,-34 85,-57 59,-18zm134 -6l0 0c-7,2 -14,6 -21,9 -67,-19 49,-73 21,-9zm1285 501l0 0c-105,-23 50,-88 61,-27 -17,18 -37,22 -61,27zm154 -22l0 0c-5,1 -11,3 -18,5 -93,-47 76,-61 18,-5zm751 -189l0 0c-5,5 -5,5 -29,13 -71,-6 21,-59 29,-13zm-99 -108l0 0c7,41 1,54 -43,67 -114,-36 -4,-100 43,-67zm-29 241l0 0c-5,2 -10,4 -15,7 -25,-17 10,-35 15,-7zm-85 -447l0 0c79,18 -57,44 -76,48 -70,-19 4,-92 76,-48zm512 180l0 0c-123,-36 -36,134 -186,77 -70,5 -284,-54 -78,-83 55,-1 50,54 86,54 20,-86 14,-50 84,-63 62,-77 541,-186 562,-69 78,131 96,-6 177,35 34,52 -103,75 -135,83 -156,0 -380,49 -510,-35zm1604 -33l0 0c-153,-12 -19,-69 50,-56 30,41 -14,47 -50,56zm735 -290l0 0c3,16 4,15 -12,17 -2,-12 -6,-21 12,-17zm-48 1143l0 0c-136,-50 -51,-106 21,-28 6,26 1,22 -21,28zm67 31l0 0c-40,-27 9,-49 15,-10 -4,6 -4,6 -15,10zm-139 -279l0 0c-34,-5 -39,-9 -50,-42 -78,-104 166,-165 188,-41 -8,19 -114,74 -138,84zm134 -459l0 0c-173,13 147,109 -70,186 -31,-22 16,-56 15,-90 -29,-32 -148,-241 -77,-210 40,66 138,-82 169,90 -10,18 -17,17 -38,23zm46 -262l0 0c-31,52 -132,86 -190,100 -36,-14 -187,-145 -79,-132 32,-6 51,-29 78,-45 52,-9 631,29 327,83 -44,0 -91,-22 -135,-6zm303 231l0 0c-65,-14 -307,70 -155,-72 80,-14 77,62 161,40 42,8 14,23 -6,31zm50 -544l0 0c-14,-4 -44,-50 -43,-68 57,-67 140,28 43,68zm-9484 -215l0 0c-4,-2 -8,-3 -12,-4 2,-14 15,-11 12,4zm314 21l0 0c-145,-30 213,-35 273,-20 21,-4 27,-17 50,-14 77,55 -280,35 -323,34zm-2273 670l0 0c-5,-2 -9,-4 -13,-4 -52,-36 71,-37 13,4zm114 -232l0 0c-6,-3 -15,-7 -17,-14 8,-47 50,-10 17,14zm264 -388l0 0c-80,58 -158,-59 -233,21 -153,-51 252,-139 233,-21zm-100 -179l0 0c-14,-4 -24,-9 -37,-17 -26,-56 104,-18 37,17zm1911 221l0 0c-33,4 -66,-3 -98,-4 -140,-44 132,-62 98,4zm-1871 -296l0 0c-33,-45 84,-37 24,6 -8,-2 -17,-5 -24,-6zm1997 302l0 0c-11,-4 -22,-7 -32,-9 -156,-81 221,-19 32,9zm-455 -130l0 0c-28,-11 -25,-27 11,-21 22,12 13,18 -11,21zm-1376 -248l0 0c-20,-9 -40,-10 -35,-37 37,-40 89,21 35,37zm1702 262l0 0c-9,-3 -18,-5 -26,-6 -14,-33 56,-15 26,6zm-1716 -416l0 0c-10,-4 -21,-7 -31,-9 -32,-44 93,-23 31,9zm139 -82l0 0c-17,-4 -34,-6 -41,-24 9,-58 91,-5 41,24zm246 -410l0 0c-13,-4 -21,-7 -26,-21 9,-59 75,-14 26,21zm5149 710l0 0c0,0 166,32 66,54 -80,-17 -162,-23 -243,-34 -88,-15 -88,-15 -152,-30 -64,-59 319,8 329,9zm-4816 -861l0 0c-5,149 -215,-129 -249,78 -19,-11 -60,-49 -82,-68 -276,-144 298,-65 331,-10zm5058 918l0 0c-24,-4 -117,-15 -129,-38 11,-67 245,12 129,38zm346 34l0 0c-18,13 -80,-2 -101,-2 -145,-56 109,-47 101,2zm-292 -149l0 0c19,5 10,19 3,30 -12,-8 -19,-18 -3,-30zm-5348 -895l0 0c-48,-66 98,-21 19,5 -6,-2 -12,-4 -19,-5zm7874 1242l0 0c-10,-8 -13,-16 4,-19 7,4 2,15 -4,19zm-6272 -1041l0 0c-16,-6 -23,-10 -34,-26 17,-57 129,-4 34,26zm-1505 -286l0 0c-21,-9 -144,-78 -146,-91 79,-69 266,53 146,91zm7822 1247l0 0c-142,-34 37,-61 86,-53 67,48 -69,50 -86,53zm-6456 -1051l0 0c-8,-3 -13,-6 -17,-13 -3,-43 -114,-109 8,-83 82,-20 67,73 9,96zm7320 1104l0 0c-19,63 -301,-6 -396,1 -15,-5 -272,-58 -149,-74 110,10 522,-4 546,73zm-8459 -1304l0 0c-36,-8 -72,-15 -106,-29 -63,-65 214,-33 106,29zm1436 212l0 0c-5,-3 -10,-6 -15,-8 -57,-92 101,-37 15,8zm7134 1125l0 0c-24,-5 -24,-5 -30,-9 14,-36 113,6 30,9zm-7344 -1184l0 0c-8,-3 -16,-6 -24,-8 -42,-74 109,-60 24,8zm3547 498l0 0c-41,-19 -10,-22 15,-18 0,14 -3,15 -15,18zm-3358 -570l0 0c-19,-5 -46,-8 -57,-24 19,-58 127,-2 57,24zm3467 530l0 0c-31,-14 -44,-38 -6,-53 89,14 97,36 6,53zm-2928 -491l0 0c-7,-3 -14,-6 -20,-8 -19,-34 65,-6 20,8zm-645 -207l0 0c-33,24 16,44 -52,71 -24,-13 -73,-99 -57,-116 52,-19 264,48 109,46zm6825 1109l0 0c131,-17 318,33 449,60 13,4 132,27 87,33 -165,-15 -356,-37 -525,-30 -110,-21 -143,-87 -234,-102 -52,-72 153,16 164,-49 -137,-98 220,-72 141,15 -15,5 -156,60 -82,72zm-6587 -1028l0 0c-26,-13 -24,-45 -7,-68 43,-20 45,57 7,68zm-518 -121l0 0c32,-18 43,12 20,35 -25,-12 -25,-6 -20,-35zm7834 1208l0 0c-87,4 -66,-66 -158,0 -171,-80 271,-135 158,0zm-448 -68l0 0c-20,-11 -47,-38 -27,-63 60,-13 78,52 27,63zm-3561 -576l0 0c-15,-3 -35,-5 -44,-17 33,-24 100,8 44,17zm3746 597l0 0c-49,-23 -49,-23 -90,-38 -90,-64 261,-36 90,38zm-3576 -641l0 0c-34,-11 -54,-9 -54,-48 49,-69 159,39 54,48zm3743 497l0 0c-81,-68 201,-7 54,10 -18,-4 -36,-7 -54,-10zm-577 -92l0 0c-55,-12 -136,-20 -180,-43 7,-41 303,22 180,43zm301 46l0 0c-12,-3 -32,-7 -40,-18 6,-37 108,-2 40,18zm-5496 -258l0 0c-56,-13 -112,-26 -167,-38 -68,-20 -341,-238 -339,-300 70,11 139,22 209,34 -1,49 231,254 295,264 30,16 32,28 2,40zm6311 319l0 0c-43,-14 -54,-31 -90,-64 9,-57 214,-1 90,64zm-319 -51l0 0c-77,-23 -143,-23 -220,-44 -245,-31 -105,-162 16,-29 61,7 200,-44 235,34 0,24 -5,36 -30,39z"/>
  <path class="fil1" d="M3869 3579c111,-81 203,-153 276,-215 102,-94 174,-182 215,-263 -21,-3 -57,-5 -108,-7 -162,8 -262,3 -303,-14 8,-17 17,-44 27,-81 3,-13 8,-29 13,-47 8,-35 26,-84 54,-148 22,-48 39,-93 54,-135 3,3 5,8 7,13 8,3 15,6 20,7 -8,0 -15,2 -20,7 8,0 15,2 20,7 13,3 25,5 34,7l-13 13c8,0 17,2 27,7 -3,0 -8,2 -14,7 8,0 17,2 27,7l-13 13c54,13 96,38 128,74 -8,3 -15,8 -20,13 3,3 5,5 7,7 -3,0 -5,2 -7,7 8,0 14,2 20,7 13,3 25,6 34,7l-13 27c17,8 33,15 47,20 -3,0 -5,2 -7,7 17,8 32,15 47,20 -3,0 -6,2 -7,7 3,3 8,5 13,7 17,13 37,22 61,27 -3,3 -5,10 -7,20 27,17 47,28 61,34 21,13 44,24 67,34 -13,3 -27,12 -40,27 3,0 10,2 20,7 -3,0 -8,2 -13,7 3,0 8,2 13,7 -3,0 -8,2 -13,7 17,3 39,15 67,34 40,22 65,33 74,34 -3,0 -5,2 -7,7 8,3 15,10 20,20 -3,0 -5,2 -7,7 3,3 8,5 13,7 13,8 27,15 40,20 -3,0 -8,2 -13,7 27,8 56,19 88,34 -3,0 -8,2 -13,7 3,0 8,2 13,7l-13 14c3,3 6,5 7,7 -13,0 -27,7 -40,20 8,8 17,14 27,20 3,3 14,10 34,20 -3,0 -8,2 -13,7 8,0 17,2 27,7 -17,8 -44,12 -81,13 -8,3 -24,6 -47,7 -13,3 -27,6 -40,7 0,0 9,9 27,27 13,13 27,25 40,34 17,13 32,27 47,40 17,-27 39,-49 67,-67 35,8 68,24 101,47 -8,3 -15,8 -20,13 3,3 10,8 20,13 -3,0 -5,2 -7,7 3,0 10,2 20,7 -17,3 -30,15 -40,34 27,17 52,28 74,34 -8,3 -15,10 -20,20 3,0 8,2 13,7 -3,0 -6,2 -7,7 35,8 66,26 94,54 -3,3 -5,8 -7,14 8,8 12,12 13,13 8,3 15,5 20,7 -3,0 -8,2 -13,7 8,8 15,15 20,20 -3,0 -8,2 -13,7 3,0 8,2 13,7 -3,3 -10,8 -20,14 -3,8 -10,14 -20,20 13,13 31,25 54,34 -3,0 -8,2 -13,7 17,3 44,15 81,34 -3,0 -6,2 -7,7 13,8 27,15 40,20 14,8 27,15 40,20 -3,0 -6,2 -7,7 3,0 10,2 20,7 -3,0 -6,2 -7,7 0,3 2,8 7,13 -17,17 -35,39 -54,67 -40,-14 -83,-27 -128,-40 -40,-8 -81,-19 -121,-34 -71,-35 -106,-53 -108,-54 -48,-21 -80,-35 -94,-40 -62,30 -145,62 -249,94l-242 81 -13 -40c-13,-40 -31,-83 -54,-128 -13,-30 -29,-73 -47,-128 62,-13 122,-27 182,-40 81,-17 139,-30 175,-40 -44,-57 -91,-111 -142,-161 -27,30 -72,73 -134,128 -62,54 -111,94 -148,121l-94 81c-17,-27 -28,-47 -34,-61l-40 -54c-8,-17 -21,-39 -40,-67 -3,-8 -10,-19 -20,-34 -3,-8 -10,-17 -20,-27l-13 -13zm309 -929l0 -13 40 -81c0,-27 4,-42 13,-47 3,-3 14,-6 34,-7 8,3 21,5 40,7l202 0c0,3 0,5 0,7 -35,98 -62,174 -81,229 -3,27 -10,52 -20,74 27,3 76,6 148,7 30,-81 50,-142 61,-182 0,-13 0,-29 0,-47 0,-67 9,-110 27,-128 8,-3 17,-5 27,-7 125,30 187,46 188,47 27,8 45,17 54,27 -13,30 -25,77 -34,141 -8,48 -19,95 -34,141 27,3 72,6 135,7 48,0 95,0 141,0 0,-8 2,-15 7,-20 -17,-40 -37,-81 -61,-121 -21,-35 -39,-71 -54,-108 116,-44 203,-80 262,-108 54,116 96,205 128,269 -44,27 -91,54 -141,81 40,3 108,6 202,7l0 269 0 0 -538 0 -40 0c-71,-8 -115,-8 -135,0 -17,3 -26,26 -27,67l-40 -27c-13,0 -27,-2 -40,-7 3,-3 8,-5 13,-7 -3,-3 -8,-6 -13,-7 3,-3 8,-5 13,-7 -8,-3 -15,-6 -20,-7 3,-13 12,-22 27,-27 -8,-3 -19,-12 -34,-27 0,0 -27,-18 -81,-54 0,-3 2,-5 7,-7 -8,0 -17,-5 -27,-13 -3,-3 -10,-8 -20,-13 -13,-8 -34,-19 -61,-34 0,-3 2,-5 7,-7 -27,-13 -45,-25 -54,-34l13 -13c-8,0 -17,-2 -27,-7 -3,-3 -12,-5 -27,-7 0,-3 2,-6 7,-7 0,0 -2,-2 -7,-7 3,-8 10,-15 20,-20 -3,-3 -8,-6 -13,-7 3,-3 8,-5 13,-7 -35,-22 -77,-42 -128,-61 3,-3 8,-6 13,-7 -8,-3 -17,-5 -27,-7 3,-3 8,-6 13,-7 -8,-3 -15,-8 -20,-13 0,-3 2,-6 7,-7 -8,0 -17,-2 -27,-7 -3,-3 -10,-6 -20,-7 3,-3 8,-5 13,-7 -8,-3 -17,-10 -27,-20 -3,-3 -3,-10 0,-20zm1285 1124c13,0 25,2 34,7 -21,35 -46,71 -74,108 -8,17 -21,39 -40,67l0 0c0,-3 2,-6 7,-7 -3,-3 -8,-6 -13,-7 0,-3 2,-5 7,-7 -21,-8 -50,-22 -87,-40 0,-3 2,-8 7,-13 -21,-8 -46,-17 -74,-27 3,-3 8,-5 13,-7 -17,-8 -28,-15 -34,-20 -8,0 -17,-5 -27,-13 17,-17 33,-28 47,-34 -3,-3 -8,-6 -13,-7 3,-3 8,-5 13,-7 -3,-3 -10,-10 -20,-20 3,-3 8,-5 13,-7 -8,-8 -15,-12 -20,-13 -3,-3 -10,-8 -20,-14 0,-3 2,-5 7,-7 -40,-27 -56,-38 -47,-34 -13,-13 -27,-20 -40,-20 0,-3 2,-5 7,-7 -3,-3 -8,-6 -13,-7 3,-8 10,-14 20,-20 -8,0 -17,-2 -27,-7 -17,-8 -39,-17 -67,-27 17,-13 35,-25 54,-34 -8,-3 -14,-6 -20,-7 0,-3 2,-8 7,-13 -8,-3 -14,-5 -20,-7 3,-3 10,-8 20,-13 -35,-30 -66,-48 -94,-54 3,-8 15,-17 34,-27 -17,-3 -41,-6 -74,-7 3,-8 10,-14 20,-20 -8,-3 -17,-5 -27,-7 3,-3 8,-6 13,-7 -27,-17 -47,-30 -61,-40 8,0 15,-2 20,-7 8,-3 15,-8 20,-13 -3,-3 -6,-8 -7,-14 3,-3 8,-5 13,-7 -3,-3 -8,-6 -13,-7l13 -13c-17,-8 -30,-12 -40,-13 -27,-8 -40,-12 -40,-13 3,-3 8,-6 13,-7 -27,-13 -47,-23 -61,-27 0,-8 2,-15 7,-20 -8,-3 -17,-5 -27,-7 3,-3 8,-6 13,-7 -8,0 -17,-5 -27,-13 -3,0 -8,-2 -13,-7l619 0 0 0c0,84 0,167 0,249 -44,54 -77,96 -101,128 -30,44 -64,86 -101,128 30,8 59,17 88,27 44,17 115,39 215,67zm937 -518c115,-57 232,-169 350,-336 -67,-13 -150,-16 -249,-7 -21,0 -46,0 -74,0 0,-98 0,-198 0,-303l0 0 363 0 27 0c48,8 82,8 101,0 13,-8 25,-33 34,-74 8,-35 17,-55 27,-61 0,0 9,0 27,0 13,0 25,0 34,0l162 0c3,3 5,5 7,7 -17,0 -30,5 -40,13 3,0 10,2 20,7 -3,0 -8,2 -13,7 3,0 10,2 20,7 -8,0 -14,2 -20,7 3,0 15,4 34,13 -8,0 -15,2 -20,7 3,0 10,2 20,7 -8,0 -15,2 -20,7 8,3 17,10 27,20 -8,3 -15,8 -20,13 17,8 33,17 47,27l-27 14 27 13c-17,0 -32,7 -47,20 3,0 8,2 13,7 -8,0 -15,2 -20,7l27 13c-14,3 -22,12 -27,27 3,3 10,8 20,13 -17,8 -32,17 -47,27 3,3 6,6 7,7 -3,0 -6,2 -7,7l13 14c-13,0 -27,7 -40,20 8,3 15,8 20,13 8,8 15,12 20,13 -3,0 -5,2 -7,7 3,0 10,2 20,7 -27,8 -47,15 -61,20 3,0 10,2 20,7 -3,0 -5,2 -7,7 17,8 32,15 47,20 -3,0 -6,2 -7,7 3,0 8,2 13,7 -17,0 -37,0 -61,0 -3,3 -14,17 -34,40 35,0 71,4 108,13 -3,0 -8,2 -13,7 3,0 10,2 20,7 -44,17 -75,35 -94,54 3,0 10,2 20,7 -8,3 -17,10 -27,20 0,0 -9,4 -27,13 0,-22 -2,-37 -7,-47l0 -40c-27,35 -52,68 -74,101 62,3 120,21 175,54 -3,0 -8,2 -13,7 3,3 5,5 7,7 -17,8 -32,17 -47,27 3,3 10,5 20,7 8,3 15,8 20,13 -3,0 -6,2 -7,7 17,8 32,17 47,27l-27 14c27,13 52,31 74,54 -13,0 -27,7 -40,20 8,0 17,2 27,7l-13 13c-3,3 -8,6 -13,7 3,3 5,5 7,7l-14 13c3,0 10,2 20,7 -8,0 -15,2 -20,7 3,0 10,2 20,7 -8,0 -15,2 -20,7 3,0 15,4 34,14 -13,0 -27,7 -40,20 3,0 8,2 14,7 -17,0 -28,5 -34,13 3,0 8,2 13,7 -13,0 -25,7 -34,20 3,0 8,2 13,7 -3,0 -8,2 -13,7 8,3 15,8 20,13 8,8 17,14 27,20 -8,0 -15,2 -20,7 3,0 10,2 20,7 -3,0 -8,2 -13,7 3,0 10,2 20,7 -3,0 -6,2 -7,7 3,0 10,2 20,7 -13,0 -27,7 -40,20l13 13c-3,3 -6,8 -7,13 8,3 17,10 27,20 -17,8 -28,15 -34,20 -17,8 -28,15 -34,20 8,8 19,14 34,20 -3,0 -6,2 -7,7 3,0 8,2 13,7 -3,0 -8,2 -13,7 3,3 8,10 13,20 -27,13 -47,29 -61,47l14 14c-3,3 -8,5 -14,7 0,0 -4,5 -13,13 3,0 10,2 20,7 -3,0 -6,2 -7,7 3,0 10,2 20,7 -3,0 -6,2 -7,7 8,3 17,10 27,20l-27 14c17,8 33,15 47,20 17,8 33,17 47,27 -3,0 -8,2 -13,7 3,3 10,8 20,13 -3,3 -6,8 -7,14 8,0 15,2 20,7 8,3 17,5 27,7 -8,3 -14,8 -20,13l27 13c-3,0 -6,2 -7,7 3,3 6,6 7,7 -30,13 -82,20 -155,20l-54 0 0 0 0 -471 0 -40c8,-57 8,-98 0,-121 -8,-8 -32,-12 -74,-13 -27,3 -54,5 -81,7 -8,54 -12,139 -13,256 3,84 6,169 7,256l-283 0 0 0c0,-35 0,-73 0,-115 8,-125 6,-230 -7,-316 -8,8 -17,14 -27,20 -30,30 -55,53 -74,67 -8,-27 -14,-45 -20,-54 -17,-40 -39,-92 -67,-155 0,-3 -5,-10 -13,-20 -21,-48 -32,-73 -34,-74zm841 -464c3,-3 8,-5 13,-7 -3,-8 -5,-19 -7,-34 8,0 15,-2 20,-7 8,-3 15,-8 20,-13 -8,-3 -14,-8 -20,-13 3,-3 6,-8 7,-13 8,-3 14,-8 20,-14l-27 -13c3,-3 10,-6 20,-7 -3,-3 -8,-5 -13,-7 3,0 10,-5 20,-13 8,0 17,-2 27,-7l-27 -13 27 -14c-13,-8 -29,-17 -47,-27 3,-3 10,-8 20,-13 -8,-8 -17,-14 -27,-20 3,-3 10,-6 20,-7 -8,-3 -14,-6 -20,-7 3,-3 10,-5 20,-7 -17,-8 -28,-12 -34,-13 3,-3 10,-6 20,-7 -8,-3 -15,-5 -20,-7 3,-3 8,-6 13,-7 -8,-3 -15,-6 -20,-7 8,0 15,-2 20,-7 8,0 15,-2 20,-7 0,0 -2,-2 -7,-7 30,0 59,0 88,0l0 0c-14,21 -20,41 -20,61 -3,21 -10,44 -20,67 81,13 162,20 242,20 84,0 169,-2 255,-7 35,-3 89,-6 162,-7 0,102 0,203 0,303l0 0 -713 0c-3,-3 -8,-5 -13,-7 0,-3 2,-6 7,-7 -3,-3 -10,-8 -20,-13 -8,0 -15,-2 -20,-7 0,-3 2,-6 7,-7 -8,-3 -15,-6 -20,-7 8,-3 26,-10 54,-20 -8,-3 -15,-6 -20,-7 0,-3 2,-8 7,-13 -17,-8 -28,-15 -34,-20 3,-3 10,-8 20,-13zm-13 229c21,-21 44,-35 67,-40 -8,-3 -15,-6 -20,-7 21,-8 64,-12 128,-13 17,0 32,0 47,0l0 0 0 27c-8,57 -8,91 0,101 3,3 21,5 54,7 22,0 42,0 61,0 116,0 230,0 343,0l0 632c0,3 -2,8 -7,13 -13,57 -22,91 -27,101 -35,40 -84,65 -148,74 -48,0 -100,0 -155,0l0 0c-8,-44 -15,-75 -20,-94 -3,-21 -15,-55 -34,-101 -3,-30 -10,-64 -20,-101l0 0c17,0 32,0 47,0 48,0 77,-18 88,-54 0,0 0,-43 0,-128l0 -40c-21,-3 -53,-6 -94,-7l-81 0c-8,48 -12,127 -13,236 0,84 0,167 0,249 3,35 5,86 7,155 -30,0 -64,0 -101,0l0 0c8,-14 17,-25 27,-34 -8,-3 -15,-8 -20,-13 3,-3 8,-6 14,-7 -8,-8 -17,-12 -27,-13l-13 -13c0,-3 2,-6 7,-7l-27 -13c3,-3 10,-5 20,-7l-27 -13c-44,-21 -66,-32 -67,-34 3,-3 10,-8 20,-14 -3,-3 -10,-10 -20,-20 0,-3 2,-6 7,-7 -8,-3 -14,-5 -20,-7 0,-3 2,-6 7,-7 -8,-3 -15,-5 -20,-7 3,-3 6,-8 7,-13 3,-3 10,-6 20,-7l-13 -14c21,-22 39,-37 54,-47 -8,-8 -12,-12 -13,-13 0,-3 -5,-6 -13,-7 8,-3 17,-5 27,-7 -3,-3 -8,-6 -13,-7 0,-3 2,-5 7,-7 -8,-8 -17,-15 -27,-20 22,-17 42,-30 61,-40l-27 -27c0,-3 2,-8 7,-13 -3,-3 -8,-5 -13,-7 8,0 15,-2 20,-7 8,-3 15,-8 20,-13 -8,-3 -15,-6 -20,-7 0,-3 2,-5 7,-7 -8,-3 -15,-6 -20,-7 3,-3 8,-5 13,-7 -8,-3 -14,-6 -20,-7 3,-3 10,-5 20,-7 -13,-8 -27,-19 -40,-34 0,-3 2,-6 7,-7 -3,-3 -5,-8 -7,-13 3,-3 8,-6 13,-7 0,0 -2,-2 -7,-7 3,0 10,-5 20,-13 8,0 14,-2 20,-7 -3,-3 -8,-5 -14,-7 3,0 10,-5 20,-13 8,0 17,-2 27,-7 -3,0 -10,-2 -20,-7 -3,-3 -10,-5 -20,-7 3,-3 10,-6 20,-7 -8,-3 -15,-5 -20,-7 3,-3 10,-6 20,-7 -8,-3 -15,-5 -20,-7l14 -13c0,0 -2,-2 -7,-7 3,-3 8,-6 13,-7 3,-3 5,-8 7,-13 -8,-3 -15,-5 -20,-7 3,0 8,-2 13,-7 13,-3 25,-10 34,-20 -17,-13 -44,-29 -81,-47l27 -14c-27,-17 -40,-26 -40,-27 -13,-13 -25,-22 -34,-27 13,-13 27,-22 40,-27 0,0 -2,-2 -7,-7 3,-3 8,-6 13,-7 -21,-17 -55,-37 -101,-61 17,-8 28,-15 34,-20 13,-3 25,-10 34,-20 -8,-3 -15,-6 -20,-7 3,-3 10,-8 20,-13z"/>
 </g>
</svg>
