<?xml version="1.0" encoding="UTF-8"?>
<!DOCTYPE svg PUBLIC "-//W3C//DTD SVG 1.1//EN" "http://www.w3.org/Graphics/SVG/1.1/DTD/svg11.dtd">
<!-- Creator: CorelDRAW X6 -->
<svg xmlns="http://www.w3.org/2000/svg" xml:space="preserve" width="168.077mm" height="74.0001mm" version="1.1" style="shape-rendering:geometricPrecision; text-rendering:geometricPrecision; image-rendering:optimizeQuality; fill-rule:evenodd; clip-rule:evenodd"
viewBox="0 0 16808 7400"
 xmlns:xlink="http://www.w3.org/1999/xlink">
 <defs>
  <style type="text/css">
   <![CDATA[
    .fil1 {fill:white}
    .fil13 {fill:#E2B193;fill-rule:nonzero}
    .fil14 {fill:#F4E6C1;fill-rule:nonzero}
    .fil4 {fill:#F53C39;fill-rule:nonzero}
    .fil3 {fill:#FC2121;fill-rule:nonzero}
    .fil12 {fill:white;fill-rule:nonzero;fill-opacity:0.301961}
    .fil17 {fill:#E2B193;fill-rule:nonzero;fill-opacity:0.400000}
    .fil16 {fill:#E6CFB8;fill-rule:nonzero;fill-opacity:0.400000}
    .fil24 {fill:#B68523;fill-rule:nonzero;fill-opacity:0.901961}
    .fil23 {fill:#C89103;fill-rule:nonzero;fill-opacity:0.901961}
    .fil25 {fill:#E8AF2D;fill-rule:nonzero;fill-opacity:0.901961}
    .fil26 {fill:#F7DB49;fill-rule:nonzero;fill-opacity:0.901961}
    .fil22 {fill:#F9CA34;fill-rule:nonzero;fill-opacity:0.901961}
    .fil19 {fill:#FDA100;fill-rule:nonzero;fill-opacity:0.901961}
    .fil18 {fill:#FDB30C;fill-rule:nonzero;fill-opacity:0.901961}
    .fil20 {fill:#FDB823;fill-rule:nonzero;fill-opacity:0.901961}
    .fil21 {fill:#FDCC44;fill-rule:nonzero;fill-opacity:0.901961}
    .fil27 {fill:white;fill-rule:nonzero;fill-opacity:0.901961}
    .fil2 {fill:url(#id4)}
    .fil0 {fill:url(#id5)}
    .fil11 {fill:url(#id6);fill-rule:nonzero}
    .fil10 {fill:url(#id7);fill-rule:nonzero}
    .fil9 {fill:url(#id8);fill-rule:nonzero}
    .fil5 {fill:url(#id9);fill-rule:nonzero}
    .fil6 {fill:url(#id10);fill-rule:nonzero}
    .fil8 {fill:url(#id11);fill-rule:nonzero}
    .fil7 {fill:url(#id12);fill-rule:nonzero}
    .fil15 {fill:url(#id13);fill-rule:nonzero;fill-opacity:0.400000}
   ]]>
  </style>
       <mask id="id0">
  <linearGradient id="id1" gradientUnits="userSpaceOnUse" x1="4913.12" y1="6804.05" x2="4913.12" y2="2169.25">
   <stop offset="0" style="stop-opacity:0.0980392; stop-color:white"/>
   <stop offset="0.388235" style="stop-opacity:0.0980392; stop-color:white"/>
   <stop offset="0.670588" style="stop-opacity:0.447059; stop-color:white"/>
   <stop offset="1" style="stop-opacity:0.8; stop-color:white"/>
  </linearGradient>
        <rect style="fill:url(#id1)" x="1078" y="2165" width="7670" height="4642"/>
       </mask>
       <mask id="id2">
  <linearGradient id="id3" gradientUnits="userSpaceOnUse" x1="1736.26" y1="6154.55" x2="1736.26" y2="4107.77">
   <stop offset="0" style="stop-opacity:0.0980392; stop-color:white"/>
   <stop offset="0.388235" style="stop-opacity:0.0980392; stop-color:white"/>
   <stop offset="0.670588" style="stop-opacity:0.447059; stop-color:white"/>
   <stop offset="1" style="stop-opacity:0.8; stop-color:white"/>
  </linearGradient>
        <rect style="fill:url(#id3)" x="40" y="4104" width="3392" height="2054"/>
       </mask>
  <linearGradient id="id4" gradientUnits="userSpaceOnUse" x1="1736.26" y1="6154.55" x2="1736.26" y2="4107.77">
   <stop offset="0" style="stop-color:#99D0E1"/>
   <stop offset="0.388235" style="stop-color:#99D0E1"/>
   <stop offset="0.670588" style="stop-color:#4D6E7C"/>
   <stop offset="1" style="stop-color:#003444"/>
  </linearGradient>
  <linearGradient id="id5" gradientUnits="userSpaceOnUse" xlink:href="#id4" x1="4913.12" y1="6804.05" x2="4913.12" y2="2169.25">
  </linearGradient>
  <linearGradient id="id6" gradientUnits="userSpaceOnUse" x1="6745.36" y1="2506.65" x2="7323.04" y2="5036.39">
   <stop offset="0" style="stop-color:#AE7E48"/>
   <stop offset="0.270588" style="stop-color:#C8976D"/>
   <stop offset="1" style="stop-color:#E2B193"/>
  </linearGradient>
  <linearGradient id="id7" gradientUnits="userSpaceOnUse" x1="11592" y1="25.58" x2="12750.9" y2="5100.76">
   <stop offset="0" style="stop-color:#E82F38"/>
   <stop offset="0.270588" style="stop-color:#E93536"/>
   <stop offset="1" style="stop-color:#EB3B34"/>
  </linearGradient>
  <linearGradient id="id8" gradientUnits="userSpaceOnUse" x1="12160.5" y1="1324.19" x2="1421.26" y2="4626.15">
   <stop offset="0" style="stop-color:#E2E2EB"/>
   <stop offset="1" style="stop-color:#F2F2F6"/>
  </linearGradient>
  <linearGradient id="id9" gradientUnits="userSpaceOnUse" x1="12374.1" y1="3531.17" x2="6501.89" y2="5336.67">
   <stop offset="0" style="stop-color:#DFE2E8"/>
   <stop offset="1" style="stop-color:#EDEDF2"/>
  </linearGradient>
  <linearGradient id="id10" gradientUnits="userSpaceOnUse" xlink:href="#id8" x1="12305.4" y1="1089.58" x2="5329.38" y2="3234.48">
  </linearGradient>
  <linearGradient id="id11" gradientUnits="userSpaceOnUse" xlink:href="#id7" x1="11945.3" y1="2730.51" x2="12276.5" y2="4180.77">
  </linearGradient>
  <linearGradient id="id12" gradientUnits="userSpaceOnUse" xlink:href="#id8" x1="11338.6" y1="4041.29" x2="9302.43" y2="4667.35">
  </linearGradient>
  <linearGradient id="id13" gradientUnits="userSpaceOnUse" x1="12897.9" y1="1781.18" x2="12482.6" y2="2049.32">
   <stop offset="0" style="stop-color:white"/>
   <stop offset="0.270588" style="stop-color:#FCF8ED"/>
   <stop offset="1" style="stop-color:#F9F0DB"/>
  </linearGradient>
 </defs>
 <g id="图层_x0020_1">
  <metadata id="CorelCorpID_0Corel-Layer"/>
  <g id="_266374000">
   <g>
    <g>
     <g>
      <path class="fil0" style="mask:url(#id0)" d="M3534 6763c-409,0 -818,-2 -1226,-3 -235,-1 -1122,-1046 -1191,-1281 -29,-99 -35,-204 -32,-307 6,-242 68,-466 193,-671 102,-168 243,-291 403,-393 180,-114 377,-179 582,-218 147,-28 295,-47 443,-68 22,-3 28,-13 31,-33 87,-470 303,-863 645,-1178 210,-193 451,-327 724,-391 174,-41 350,-49 528,-40 210,10 413,53 606,141 276,126 497,325 670,582 35,52 69,105 103,159 9,14 18,19 35,16 142,-19 285,-32 429,-21 173,13 335,59 473,178 161,138 238,319 248,535 7,149 -9,296 -27,444 -3,22 4,31 19,41 67,45 142,68 219,84 151,32 289,93 406,200 156,141 242,324 274,535 18,118 656,813 -35,1660 -145,73 -3973,32 -4520,31z"/>
      <path class="fil1" d="M4294 5884c-529,0 -1058,0 -1587,0 -395,0 -791,-2 -1186,-3 -227,-1 -441,-163 -508,-391 -28,-96 -34,-197 -31,-297 6,-234 66,-451 186,-649 99,-162 235,-282 390,-380 174,-110 364,-174 562,-211 142,-27 285,-46 428,-66 21,-3 27,-13 30,-32 85,-454 293,-834 624,-1139 203,-187 436,-316 700,-378 168,-39 339,-47 510,-39 203,10 400,51 586,136 267,122 480,314 648,563 34,51 67,102 100,153 9,14 17,18 34,16 138,-19 276,-31 415,-21 167,13 324,57 458,172 156,134 231,308 240,517 7,144 -9,287 -26,429 -2,21 4,30 19,40 65,44 137,66 211,81 146,31 279,90 393,193 151,137 234,313 265,517 17,114 13,228 -10,341 -33,170 -134,281 -278,353 -140,70 -291,90 -445,90 -572,0 -1145,1 -1717,1 -337,0 -675,0 -1012,0 0,1 0,2 0,2z"/>
     </g>
    </g>
    <g>
     <g>
      <path class="fil2" style="mask:url(#id2)" d="M1127 6136c-181,0 -361,-1 -542,-1 -104,0 -495,-462 -526,-566 -13,-44 -15,-90 -14,-136 3,-107 30,-206 85,-296 45,-74 107,-129 178,-173 79,-50 166,-79 257,-96 65,-12 130,-21 196,-30 10,-1 12,-6 14,-15 39,-207 134,-381 285,-520 93,-85 199,-144 320,-173 77,-18 155,-22 233,-18 93,5 182,23 268,62 122,56 219,143 296,257 15,23 31,46 46,70 4,6 8,8 15,7 63,-9 126,-14 189,-9 76,6 148,26 209,78 71,61 105,141 110,236 3,66 -4,131 -12,196 -1,10 2,14 8,18 30,20 63,30 97,37 67,14 128,41 179,88 69,62 107,143 121,236 8,52 290,359 -15,733 -64,32 -1755,14 -1996,14z"/>
      <path class="fil1" d="M1463 5748c-234,0 -467,0 -701,0 -175,0 -349,-1 -524,-1 -100,0 -195,-72 -224,-173 -13,-42 -15,-87 -14,-131 3,-103 29,-199 82,-287 44,-72 104,-124 172,-168 77,-49 161,-77 248,-93 63,-12 126,-20 189,-29 9,-1 12,-6 13,-14 37,-201 129,-369 276,-503 90,-83 192,-139 309,-167 74,-17 150,-21 225,-17 89,4 176,23 259,60 118,54 212,139 286,249 15,22 30,45 44,68 4,6 8,8 15,7 61,-8 122,-14 183,-9 74,6 143,25 202,76 69,59 102,136 106,228 3,64 -4,127 -12,189 -1,9 2,13 8,18 29,19 61,29 93,36 65,13 123,40 173,85 67,60 103,138 117,229 8,50 6,101 -4,151 -15,75 -59,124 -123,156 -62,31 -128,40 -196,40 -253,0 -506,0 -758,0 -149,0 -298,0 -447,0 0,0 0,1 0,1z"/>
     </g>
    </g>
   </g>
   <g>
    <path class="fil3" d="M9735 4942c-767,-779 -1885,-531 -1885,-531 294,1722 -2327,2987 -2327,2987 0,0 79,0 211,-3 1664,-282 3320,-794 4002,-2452z"/>
    <path class="fil4" d="M8703 6892c722,-505 1225,-1639 1225,-1639 -70,-108 -146,-203 -227,-287 2,10 4,19 7,29 -2,-10 -4,-19 -7,-29 -6,-6 -12,-12 -18,-18 -681,1658 -2338,2170 -4002,2452 618,-14 2427,-92 3022,-508z"/>
    <path class="fil5" d="M11656 2691c-3,-15 -6,-29 -10,-44l-4240 947 206 902c0,0 1603,1086 3750,741 569,-92 1121,-274 1644,-515 -728,-403 -1151,-1156 -1351,-2031z"/>
    <path class="fil6" d="M12152 135c-641,-12 -1291,66 -1911,284 -2934,1033 -2992,2473 -2992,2473l162 708 4240 -947c-205,-942 -74,-1828 501,-2518z"/>
    <path class="fil3" d="M11707 2641l5075 -1133c-254,-146 -2385,-1330 -4631,-1372 -575,691 -651,1564 -444,2506z"/>
    <path class="fil4" d="M16808 1522c0,0 -9,-5 -25,-15l-5134 1136c3,15 15,53 19,68 200,875 587,1701 1344,2017 1711,-789 3123,-2181 3797,-3206z"/>
    <path class="fil7" d="M11717 2684c-3,-15 -6,-29 -10,-44l-57 13c3,15 6,29 10,44 200,875 623,1628 1351,2031 -728,-403 -1094,-1169 -1294,-2044z"/>
    <path class="fil8" d="M11717 2684c-3,-15 -6,-29 -10,-44l-57 13c3,15 6,29 10,44 200,875 623,1628 1351,2031 -728,-403 -1094,-1169 -1294,-2044z"/>
    <path class="fil9" d="M11651 2653l57 -13c-207,-942 -131,-1815 444,-2506 -575,691 -706,1576 -501,2518z"/>
    <path class="fil10" d="M11651 2653l57 -13c-207,-942 -131,-1815 444,-2506 -575,691 -706,1576 -501,2518z"/>
    <g>
     <polygon class="fil11" points="6814,4629 6464,3095 7254,2915 7605,4448 "/>
     <polygon class="fil12" points="6560,3518 6504,3272 7295,3091 7351,3337 "/>
    </g>
    <path class="fil12" d="M15991 1442c0,0 -3894,-1717 -7080,62 0,0 -820,427 -1486,1624l-79 -345c0,0 514,-2227 4304,-2428 2820,-149 4342,1087 4342,1087z"/>
    <g>
     <path class="fil13" d="M12114 4034c-793,181 -1584,-315 -1765,-1109 -181,-794 315,-1584 1109,-1765 794,-181 1584,315 1765,1109 181,794 -315,1584 -1109,1765z"/>
     <path class="fil14" d="M12078 3958c-752,172 -1501,-299 -1672,-1051 -172,-752 299,-1501 1051,-1673 752,-172 1501,299 1672,1051 172,752 -299,1501 -1051,1673z"/>
     <g>
      <path class="fil15" d="M13007 3421c-878,-299 -1675,-1044 -2472,-1600 200,-323 524,-569 924,-660 794,-181 1584,315 1765,1109 94,414 3,826 -217,1152z"/>
     </g>
     <g>
      <path class="fil16" d="M12743 2373c-123,-539 -660,-876 -1199,-753 -138,32 -263,91 -370,170 523,281 1065,530 1594,803 0,-72 -8,-146 -24,-219z"/>
      <path class="fil16" d="M12660 3049c-501,-89 -1062,-846 -1689,-1059 -18,24 -35,48 -51,73 544,369 1111,705 1664,1109 28,-39 54,-80 76,-123z"/>
      <path class="fil16" d="M12447 3330c32,-30 62,-62 90,-96 -597,-281 -1069,-800 -1674,-1066 -8,17 -16,35 -23,53 526,372 1060,763 1607,1109z"/>
      <g>
       <path class="fil17" d="M12373 3393c26,-20 51,-41 75,-63 -548,-347 -1081,-738 -1607,-1109 -12,28 -22,57 -30,86 466,403 986,802 1563,1086z"/>
       <path class="fil16" d="M10810 2306c-49,161 -59,337 -18,513 123,539 660,876 1199,753 144,-33 273,-96 383,-180 -577,-284 -1097,-683 -1563,-1086z"/>
       <path class="fil17" d="M12660 3049c71,-139 109,-295 108,-456 -528,-272 -1070,-522 -1594,-803 -78,57 -146,125 -203,200 627,213 1188,970 1689,1059z"/>
       <path class="fil17" d="M12538 3234c16,-20 32,-40 46,-61 -553,-405 -1121,-740 -1664,-1109 -21,34 -39,69 -56,104 605,266 1077,785 1674,1066z"/>
      </g>
     </g>
    </g>
    <path class="fil3" d="M8906 1312c-353,1034 -1468,1297 -1468,1297 -483,-1679 -3393,-1681 -3393,-1681 0,0 71,-34 191,-88 1622,-468 3336,-725 4670,473z"/>
    <path class="fil4" d="M7197 13c870,141 1815,945 1815,945 -16,128 -44,247 -80,357 -2,-10 -4,-19 -7,-29 2,10 4,19 7,29 -3,8 -6,16 -9,24 -1334,-1198 -3065,-968 -4687,-500 563,-255 2244,-942 2960,-826z"/>
    <g>
     <path class="fil18" d="M4190 4286c0,0 907,-1666 2323,-919 2,1 4,1 5,2l109 477 6 -1 -166 -727c-2,-1 -5,-2 -7,-4 -1902,-1186 -3025,1279 -3025,1279l203 161 702 -166 -150 -103z"/>
     <path class="fil19" d="M6810 4648c0,0 2,0 6,-1l-183 -802 -6 1 122 533c-3,1 -5,1 -5,1 -1070,1267 -2783,153 -2783,153l442 -101 -63 -43 -702 166 85 67 -579 132c0,0 2311,1750 3667,-107z"/>
     <path class="fil20" d="M4402 4432l-442 101c0,0 1714,1114 2783,-153 0,0 2,0 5,-1l-122 -533 -2288 543 63 43z"/>
     <path class="fil21" d="M6512 3366c-1416,-747 -2323,919 -2323,919l150 103 2288 -543 -109 -477c-2,-1 -4,-1 -5,-2z"/>
    </g>
    <g>
     <path class="fil22" d="M12682 4571c-1014,639 -2354,335 -2993,-679 -639,-1014 -335,-2354 679,-2993 1014,-639 2354,-335 2993,679 639,1014 335,2354 -679,2993z"/>
     <path class="fil23" d="M12523 4318c-875,551 -2030,289 -2581,-586 -551,-875 -289,-2031 586,-2582 875,-551 2031,-289 2581,586 551,875 289,2031 -586,2582z"/>
     <g>
      <path class="fil24" d="M10378 1004c1014,-639 2354,-335 2993,679 179,284 284,593 320,906 -23,-348 -131,-696 -330,-1011 -639,-1014 -1979,-1318 -2993,-679 -730,460 -1092,1284 -999,2088 -51,-770 311,-1542 1009,-1982z"/>
     </g>
     <path class="fil25" d="M12473 4239c-831,524 -1929,274 -2452,-556 -524,-831 -274,-1929 556,-2452 831,-524 1929,-275 2452,556 524,831 275,1929 -556,2452z"/>
     <g>
      <path class="fil24" d="M11664 4409c-794,73 -1517,-370 -1836,-1053 254,767 1010,1286 1849,1210 831,-76 1476,-712 1596,-1502 -198,718 -823,1273 -1608,1345z"/>
     </g>
     <g>
      <path class="fil23" d="M12744 2220l-254 157c8,73 -1,146 -35,211l149 -65 221 357 -572 354 -233 -376c171,-106 199,-285 103,-439 -38,-61 -131,-119 -214,-67 -240,148 325,939 -221,1277 -357,221 -651,-3 -812,-251l-252 156 -214 -345 320 -198c-3,-59 1,-119 12,-183l-164 64 -221 -357 589 -365 238 384c-196,121 -104,345 -51,441 44,71 130,166 230,104 181,-112 -343,-887 204,-1226 325,-201 616,-43 756,150l205 -127 214 345z"/>
     </g>
     <g>
      <path class="fil26" d="M12795 2245l-254 158c8,73 -1,146 -35,211l149 -65 221 357 -572 354 -233 -376c171,-106 199,-285 103,-439 -38,-61 -131,-119 -214,-67 -240,148 325,939 -220,1277 -357,221 -651,-2 -812,-251l-252 156 -214 -345 320 -198c-3,-59 1,-119 12,-183l-163 64 -221 -357 589 -365 238 384c-196,121 -104,345 -52,441 44,71 130,166 230,104 181,-112 -343,-887 204,-1226 325,-201 616,-43 756,150l205 -127 214 345z"/>
     </g>
     <g>
      <g>
       <path class="fil27" d="M11335 1393c113,-128 340,-273 420,-278 78,-5 324,109 452,222 -128,-112 -272,-328 -278,-419 -6,-96 109,-324 222,-452 -115,131 -327,272 -431,279 -108,7 -315,-113 -440,-222 128,112 272,329 278,419 6,91 -109,324 -222,452z"/>
      </g>
      <g>
       <path class="fil27" d="M11581 1737c40,-45 121,-97 149,-99 28,-2 115,39 161,79 -46,-40 -97,-117 -99,-149 -2,-34 39,-115 79,-161 -41,47 -116,97 -154,99 -38,2 -112,-40 -157,-79 46,40 97,117 99,149 2,33 -39,115 -79,161z"/>
      </g>
      <g>
       <path class="fil27" d="M10670 1556c56,-63 168,-135 207,-137 38,-3 160,54 223,109 -63,-55 -134,-162 -137,-207 -3,-47 54,-160 109,-223 -57,65 -161,134 -213,138 -53,3 -156,-56 -218,-110 64,55 135,162 138,207 3,45 -54,160 -110,223z"/>
      </g>
     </g>
    </g>
   </g>
  </g>
 </g>
</svg>
