<?xml version="1.0" encoding="UTF-8"?>
<!DOCTYPE svg PUBLIC "-//W3C//DTD SVG 1.1//EN" "http://www.w3.org/Graphics/SVG/1.1/DTD/svg11.dtd">
<!-- Creator: CorelDRAW X6 -->
<svg xmlns="http://www.w3.org/2000/svg" xml:space="preserve" width="80.0011mm" height="62.2167mm" version="1.1" style="shape-rendering:geometricPrecision; text-rendering:geometricPrecision; image-rendering:optimizeQuality; fill-rule:evenodd; clip-rule:evenodd"
viewBox="0 0 16842 13098"
 xmlns:xlink="http://www.w3.org/1999/xlink">
 <defs>
  <style type="text/css">
   <![CDATA[
    .fil1 {fill:none}
    .fil0 {fill:#E62129;fill-rule:nonzero;fill-opacity:0.701961}
   ]]>
  </style>
 </defs>
 <g id="图层_x0020_1">
  <metadata id="CorelCorpID_0Corel-Layer"/>
  <g id="_930936688">
   <g>
    <path class="fil0" d="M5644 4347c14,-58 38,-78 70,-104l-81 -20 12 124zm72 -102l0 0 2 -7 -4 5 2 2zm6151 -1983l0 0 39 -1 -119 -51 79 52zm-2017 1069l0 0 28 16c5,1 2,-5 -28,-16zm-2215 -94l0 0c-24,-2 -38,-4 -49,-8 -2,7 12,10 49,8zm470 -150l0 0 -2 -2 2 2zm3546 -997l0 0 23 -11 -67 -34 44 45zm226 198l0 0 5 13 5 -4 -10 -9zm-194 -965l0 0 71 56 -5 -54 -67 -2zm829 1587l0 0c-46,-38 -88,-85 -137,-136l144 177c15,2 45,20 -7,-41zm-762 -1672l0 0c-12,38 74,75 158,131l-14 -8c52,-25 -44,-76 -144,-123zm-516 532l0 0 -98 -53c52,31 68,48 91,70l7 -17zm13 7l0 0 -13 -7 13 7zm988 812l0 0c17,24 37,50 56,81 -10,-28 -44,-79 -56,-81zm-7549 2957l0 0 -19 -28 0 34 19 -7zm-45 13l0 0 4 -1 1 -27 -5 28zm1537 -2069l0 0 31 13c31,-24 60,-38 86,-48 -60,12 -135,17 -117,34zm-1797 6860l0 0c-35,-37 -80,-75 -115,-114 76,78 95,153 115,114zm4244 -7393l0 0c-45,-16 -94,-25 -146,-11l26 6c37,1 77,-3 120,5zm1227 391l0 0 -44 -27c9,5 20,14 44,27zm3303 -773l0 0c78,112 77,74 100,79 -52,-62 -110,-119 -166,-177l54 115 13 -17zm-629 393l0 0 34 43 8 -3 -48 -55 6 15zm-3778 25l0 0c-49,-17 -88,-28 -123,-36 58,25 103,56 123,36zm2534 -1987l0 0 32 -3 -32 3zm1318 1045l0 0c-65,-61 -118,-94 -59,-23l49 41 10 -18zm-532 418l0 0 40 38c-41,-50 -67,-84 -116,-150 -75,-51 -94,-58 -104,-58l193 181 -14 -11zm-2262 842l0 0c-11,-3 -26,-9 -48,-22l50 32 -3 -10zm2662 -515l0 0c-28,-27 -58,-49 -89,-70 26,22 56,44 89,70zm151 192l0 0 7 2 7 -2c2,-16 -31,-65 4,-39 -58,-64 -115,-112 -170,-153 54,50 100,109 151,192zm-1106 -799l0 0 125 80c-1,6 -51,-20 -23,11 21,-10 152,63 229,167 102,70 93,-39 38,-144 -10,5 -14,8 -124,-64 31,37 198,212 104,153 -138,-104 -103,-95 -160,-159 39,65 -192,-105 -190,-45zm2368 4504l0 0c-6,-89 -32,-39 -27,-44 0,54 21,36 27,44zm-763 2184l0 0c-46,84 -60,99 -87,135 -6,115 117,-238 118,-130 -94,95 -313,591 -416,625 -81,121 50,-19 -30,102l-34 21 -3 43c-53,79 -103,102 -117,98l50 -76c-77,75 -173,233 -219,291l78 -85c-223,325 -580,650 -853,916l31 -8c-216,200 -190,137 -445,328l5 -11c-44,49 -113,100 -187,145 60,-57 -147,54 -65,-16 -259,179 -122,97 -285,236l-55 2c-57,48 -56,63 -200,134 113,-69 -106,9 18,-69 -322,91 -445,229 -614,212 -130,106 286,-59 204,-20 77,-7 -101,87 -207,109 -105,33 -198,-17 -457,43 26,-3 26,-7 54,-13 -102,4 -186,66 -316,58 -63,47 -159,23 -172,74l244 -51c-134,35 -260,112 -495,106 16,-9 84,-29 129,-42 -68,-7 -127,25 -198,15 15,-46 299,-35 440,-98 -72,-4 -275,71 -207,14 -98,75 -263,21 -440,76l11 -28c-32,7 -88,19 -142,20l96 -36c-146,32 -282,-21 -420,-13 293,9 65,35 189,59 -367,23 -210,-73 -611,-99 54,2 201,37 115,43 -77,-12 -177,-39 -221,-61 -266,-30 38,36 -77,36 -86,-43 -135,-9 -253,-20l4 -28c-300,-81 -93,38 -359,-46l124 -10 -141 -26 34 -22c-155,-23 -202,-38 -342,-101 29,31 -37,40 -167,-4 -80,-46 60,-3 -124,-75 50,1 98,3 171,53l57 -6c-88,-50 -231,-97 -299,-121 26,11 57,24 71,33 -93,-23 -183,-47 -273,-79 -35,-28 2,-20 35,-12 -54,-23 -95,-26 -169,-63 27,-11 35,-31 147,9 -86,-29 -169,-65 -250,-99 -12,-16 -105,-90 -69,-78 -122,-84 -333,-147 -483,-277 -9,-1 -30,-10 -65,-33 -145,-113 -253,-235 -437,-358l-60 -112c-130,-115 84,154 -129,-35 -153,-134 -30,-77 -70,-137 -82,-56 -235,-158 -325,-322 44,42 72,83 111,122l-72 -119c136,105 203,205 143,85 -76,37 -346,-416 -414,-393l-2 -11 -238 78c105,174 389,427 340,464 73,90 150,174 232,254l-14 1c148,163 220,200 289,240 35,37 0,18 -5,18 227,229 255,245 492,373l6 39c66,32 357,307 652,427 -5,2 -14,4 -38,-6 321,146 745,432 903,374 77,17 152,31 230,45 -284,-92 57,-30 -57,-81 113,28 284,113 142,79l-20 -11c-69,43 355,113 341,143 578,122 1162,182 1718,133l-66 -37 192 -16c52,3 71,24 -65,38 75,16 230,-44 231,-58 271,-26 -98,67 -15,56l110 -24 -25 -2c86,-34 90,-45 255,-80 105,-15 58,15 97,8 3,3 16,1 66,-13l238 -57 -103 -8c95,-40 207,-59 121,-64 203,3 848,-286 936,-331 127,-86 255,-160 415,-251 -44,18 -85,0 53,-80 -9,96 253,-116 388,-161 -72,17 357,-287 189,-219 106,-81 25,18 113,-33 224,-228 529,-463 769,-780 -4,-10 -55,31 -18,-44 63,-44 113,-90 168,-135 40,-67 -2,-90 104,-189 -20,13 -43,30 -18,-14 477,-616 705,-1401 929,-2151 -41,101 -28,31 -13,-48 -15,50 -26,-7 -41,0 27,-105 57,-208 83,-319 -32,-64 29,-349 -8,-385l1 102c-34,-138 -109,184 -163,160 34,156 -121,380 -101,631 -20,52 -7,-49 -23,-23 12,65 -5,140 -48,272l-3 -15c-97,374 -173,529 -366,918l40 -18zm-3686 3238l0 0 -40 -1c84,-24 61,-10 40,1zm-362 -11129l0 0c-77,-20 -139,-33 -194,-44 92,29 166,61 194,44zm-420 -66l0 0 44 10c59,1 114,2 182,11 -66,-20 -149,-31 -226,-21zm-4747 9907l0 0c-33,-33 -73,-68 -108,-102 69,79 79,151 108,102zm1177 -9047l0 0 39 7c54,-36 98,-60 133,-78 -86,31 -192,54 -172,70zm5630 -291l0 0c-13,-6 -37,-14 -72,-32l86 45 -14 -12zm-2643 -434l0 0 -5 1 5 -1zm2711 470l0 0 45 28c8,-1 4,-7 -45,-28zm5 16l0 0c-16,-12 -40,-27 -59,-40 9,7 25,20 59,40zm2964 6011l0 0c5,-19 9,-53 11,-108 0,27 -7,68 -11,108zm94 -534l0 0c8,-40 13,-77 16,-116l-22 76 5 41zm-1242 2678l0 0 14 -13 -14 13zm1247 -2932l0 0 -31 -72c3,27 3,80 -8,97l39 -26zm-9152 -1218l0 0 220 -71c2,-91 14,-192 53,-324 4,60 41,30 71,48 -58,36 -45,158 -92,257 25,-53 38,-34 37,-19l39 -194c24,15 34,-29 69,-70 -71,11 29,-146 51,-225 20,4 27,30 -18,114 85,-73 -2,-156 87,-228l-18 44c16,-55 100,-164 96,-128l-12 20c81,-135 282,-382 259,-436l33 69c18,-106 46,-211 73,-319 14,47 149,49 76,158 31,-20 64,-52 113,-116 -24,13 -89,1 -69,-27 107,-30 71,-27 188,-74 -37,18 -48,-58 -2,-99l34 67c23,-49 48,-100 77,-145 -25,31 27,46 66,41 -21,0 106,-73 133,-103l-60 25c140,-93 88,-171 239,-257 -13,24 -1,98 77,61 13,-51 77,-224 212,-309l37 3c33,-23 64,-48 101,-65 -54,69 -195,256 -274,335 65,-12 27,14 109,-28 40,2 -34,46 -56,58l202 -80c-29,-34 137,-101 119,-125 -73,35 -137,85 -203,131 -27,-28 78,-167 236,-209 42,1 -8,75 1,86l149 -69 -58 41c87,-15 121,-97 231,-83 36,-5 117,23 116,-1 -64,-28 -111,-159 -78,-199 13,-2 204,-5 249,17 66,23 -78,93 -20,115l46 -33c35,3 -11,31 69,16 8,-38 167,-19 34,-39 80,-19 85,-8 179,-12 -31,-24 83,-89 168,-103l22 28c171,-8 261,31 418,36 13,11 87,28 55,41 21,-1 42,-12 90,-4 85,49 -105,-13 -41,40 9,-23 125,-12 195,-13 -14,-37 -156,-36 -222,-31 2,-50 130,-77 302,-72 136,15 52,42 74,40 238,80 233,-34 421,76 69,59 -20,57 -7,87 -105,-31 -151,-77 -222,-93l83 37c-36,0 -105,-10 -140,-29 57,39 398,128 555,240 36,4 93,23 74,0l-56 -24c-39,-47 117,19 54,-23 80,24 183,31 273,109l0 44c4,-13 -52,-59 -86,-68 50,12 125,136 194,127l-56 -66c77,30 193,50 265,125 -14,-56 -20,-12 -56,-89 24,76 -225,-146 -167,-44 -41,-80 -99,-93 -169,-173 -4,10 20,36 -55,-12l-23 3 -4 -3 2 3 3 2 30 35c-52,3 -175,-59 -220,-67 -46,-29 23,-3 3,-28l-73 -8c6,-26 -112,-90 8,-59l-103 -42c-58,-37 -139,-77 -194,-85 -52,-18 -137,-6 -87,-12l-173 -31 1 -7c-166,-44 -352,-31 -543,-96 -59,5 -119,8 -215,-6l-18 -24c-73,2 -226,-16 -257,5 -84,-66 -365,19 -496,28l2 27c-90,14 -171,45 -276,83l12 23c-87,38 -240,54 -383,105 8,-11 43,-22 72,-24 -196,-1 -337,187 -500,219 -32,29 -58,41 -86,51l8 -9 -13 9 -59 17 51 -13c-27,19 -69,44 -103,74l-34 -13 -10 4c-47,16 -26,31 8,36l-43 48c-57,-15 -90,83 -160,73 -13,32 -155,142 -160,202 -41,29 -86,60 -110,99l-40 -10c-19,33 -35,71 -50,110 -59,35 -88,49 -61,-21 -83,151 -82,110 -143,239l-15 -20c-29,41 -55,121 -89,135 -112,56 -323,447 -478,695 84,-24 -80,110 -32,143 -24,10 -45,44 -41,-5 -37,145 -108,200 -90,313zm4720 -2377l0 0 -2 1c-53,-33 -35,-21 2,-1zm-3575 702l0 0 5 11 -5 -11zm2954 8162l0 0 12 1c58,-14 31,-12 -12,-1zm3587 -2046l0 0 -16 16 16 -16zm-7347 1000l0 0 7 2 7 -1 -14 -1zm14 1l0 0 72 20c-88,-63 -56,-24 -72,-20zm6230 -9944l0 0c45,27 84,52 112,61 -23,-15 -76,-43 -112,-61zm-6287 273l0 0 46 -45c-27,23 -41,36 -46,45zm1927 -901l0 0 45 -11 -25 -85 -20 96zm-4168 5359l0 0c16,-55 32,-111 52,-166 -52,120 -53,-45 -50,-191 -23,41 -43,78 -53,103 9,-77 19,-153 30,-231 13,-24 21,-1 25,40l2 -43c34,-77 43,-30 48,33l-39 76c11,60 24,115 46,109 0,-15 2,-43 7,-76l11 21c5,-7 0,-31 2,-69l52 -41 -12 -16c31,-93 62,-187 101,-278 17,-214 23,-408 144,-730 -10,87 38,37 68,55 -72,71 -90,246 -152,406 34,-84 43,-59 40,-36 24,-102 55,-199 86,-301 19,18 44,-54 88,-121 -77,31 64,-225 111,-343 22,2 26,39 -53,171 121,-128 43,-228 161,-353 47,-85 122,-183 112,-143 141,-219 428,-585 417,-641l22 80c58,-146 115,-297 185,-441 4,56 179,21 51,185 48,-38 99,-87 182,-183 -35,23 -116,27 -78,-16 147,-68 95,-56 260,-149 -51,32 -42,-61 36,-123 -7,17 46,45 24,73 47,-68 93,-135 146,-200 -40,47 24,50 78,32 -27,4 166,-122 216,-162l-90 45c226,-144 169,-227 407,-364 -25,29 -29,112 93,51 35,-58 170,-275 386,-396l50 -4c54,-29 110,-61 164,-89 -93,85 -345,318 -475,431 95,-32 36,7 167,-61 55,-7 -59,61 -98,80 105,-45 211,-95 319,-135 -31,-33 231,-140 210,-162 -116,55 -228,123 -338,184 -31,-27 156,-194 400,-273 63,-7 -23,81 -13,92 24,-27 215,-101 239,-99l-94 50c136,-29 202,-119 372,-125 58,-13 180,9 183,-15 -100,-24 -152,-151 -99,-198 26,-1 317,-24 387,-7 101,18 -129,103 -40,119l70 -38c63,-2 -21,34 109,10 15,-44 268,-27 59,-41 127,-23 137,-9 289,-23 -52,-20 130,-95 262,-108l36 27c269,0 412,24 662,49 21,12 140,35 87,47 35,-3 72,-11 145,0 142,53 -170,-21 -64,37 13,-22 201,-8 310,3 -24,-43 -248,-49 -358,-50 6,-45 203,-79 468,-44 209,30 81,51 120,51 378,105 350,4 653,143 109,73 -18,59 4,90 -164,-49 -240,-106 -354,-134l132 51c-55,-5 -163,-29 -219,-57 95,52 629,204 887,366 52,13 139,44 105,14l-87 -36c-68,-59 178,47 74,-16 123,42 268,82 415,191l13 47c2,-11 -93,-79 -141,-96 75,27 214,181 310,191l-95 -91c119,56 277,113 403,222 -42,-73 -35,-21 -106,-121 57,97 -349,-234 -240,-100 -77,-99 -166,-126 -283,-234 -2,13 38,46 -82,-23l-32 -6 -8 -6 7 5 2 1c28,21 48,39 55,49 -74,-10 -266,-107 -340,-124 -68,-42 37,2 1,-29l-107 -24c0,-27 -182,-123 2,-63l-162 -67c-88,-51 -219,-104 -305,-119 -79,-30 -207,-33 -132,-31 -89,-23 -177,-42 -266,-58l2 -7c-262,-69 -549,-74 -844,-144 -93,-5 -184,-2 -336,-15l-27 -22c-119,3 -351,-24 -398,2 -130,-58 -565,26 -768,59l0 30c-141,26 -272,58 -437,113l17 23c-136,59 -374,85 -594,173 14,-14 69,-32 112,-42 -291,40 -537,265 -780,346 -52,40 -93,59 -133,75l12 -10 -26 14 -81 34c26,-9 51,-18 72,-27 -45,25 -103,68 -164,112l-41 -7 -13 11c-68,28 -42,40 0,36 -26,23 -51,49 -71,69 -73,-3 -151,117 -241,128 -26,44 -245,214 -272,289 -65,46 -128,96 -171,156l-48 -2 -95 155c-88,61 -130,85 -76,-11 -151,215 -132,166 -248,354l-9 -22c-50,62 -105,178 -150,202 -148,107 -507,701 -721,1103 98,-54 -110,179 -68,219 -25,16 -56,71 -41,0 -71,218 -147,317 -152,484 -21,20 -8,-55 -24,-34l-22 95c-17,18 -5,-36 -3,-72 -65,226 -16,264 23,291 -52,109 -60,167 -46,258 -20,38 -52,103 -29,-40 -24,78 -106,490 -66,503 -12,26 -13,114 -13,137 -6,60 -11,103 -13,139l178 -56 15 -4 18 -7c-6,-216 -4,-191 -16,-391zm7363 -4517l0 0 -5 0c-89,-42 -58,-27 5,0zm-5588 1063l0 0 -4 15c-7,-3 -20,5 4,-15zm-1647 2803l0 0c1,32 -14,77 -38,127 7,-39 17,-80 38,-127zm2041 -3683l0 0c178,-86 10,-72 179,-142 27,-44 -137,58 -107,18 -91,81 -152,103 -72,124zm4565 -943l0 0c-20,13 -251,-5 -38,32 20,-10 189,13 38,-32zm1046 928l0 0c35,24 36,-15 51,3 58,-7 -270,-87 -51,-3zm570 -473l0 0 136 85c1,-7 20,-1 44,6 -86,-46 -178,-105 -180,-91zm-1605 -585l0 0 -174 -20c-21,11 24,29 89,33 41,0 107,7 85,-13zm393 242l0 0 82 1c-44,-22 -43,-31 -65,-53l-18 52zm-6422 3182l0 0 -1 0 -2 4 3 -4zm112 -143l0 0 -19 32 19 -32zm549 -651l0 0c34,-84 68,-121 120,-160l-98 -2 -23 162zm-1373 2420l0 0 12 -23 -10 -65c-1,27 -4,56 -2,88zm4566 -4189l0 0c-43,4 -64,3 -76,-1 -3,7 13,12 76,1zm-3071 1609l0 0 3 -6 -5 6 2 0zm-786 958l0 0c-18,30 -31,45 -31,63 11,-19 20,-42 31,-63zm-660 1813l0 0c9,-25 24,-60 39,-111l-39 111zm28 -120l0 0 -20 15c2,17 8,19 20,-15zm9447 -2812l0 0c-44,-14 -145,-98 -107,-22 111,110 91,65 164,124 -176,-180 58,45 -56,-99 38,35 68,66 98,96l-84 -104 6 5 2 2 -2 -1 -2 7 -4 -4 -14 -4c-45,-56 -5,-12 14,4l5 -3 0 -1c-60,-59 -127,-114 -190,-170 35,40 84,84 169,170zm-1394 -2027l0 0c38,32 44,-24 66,-1 68,-18 -318,-88 -66,1zm-1675 -503l0 0c-87,-27 -159,-44 -221,-54 106,37 186,81 221,54zm-4588 903l0 0 45 15c58,-46 109,-70 157,-89 -109,27 -237,51 -202,74zm7084 -5l0 0c-40,-21 -78,-41 -118,-62 64,37 79,57 106,82l12 -19zm-6408 991l0 0c157,-80 16,-54 158,-122 29,-33 -116,56 -85,23 -85,70 -137,91 -74,99zm7139 -389l0 0 6 15 7 -2 -13 -13zm-1335 -926l0 0c-21,-8 -47,-19 -88,-38 35,16 67,33 99,49l-11 -12zm830 664l0 0 77 54c23,-9 -26,-27 -77,-54zm-2941 -1294l0 0c-78,-28 -170,-42 -261,-26l49 13c67,1 132,-2 212,13zm2191 690l0 0c-18,-13 -44,-32 -68,-49 9,9 32,26 68,49zm1717 1311l0 0c-60,-10 -178,-101 -144,-11 128,125 109,70 194,139 -204,-209 72,46 -54,-123 41,37 79,73 116,107 -35,-40 -65,-83 -92,-122l2 9 2 -1 -2 4 -5 -2 -17 0c-54,-67 -4,-15 17,0l7 -2 -2 1c-69,-69 -149,-131 -221,-196 42,48 100,98 199,198zm450 490l0 0 9 8 -9 -8zm-181 -224l0 0c-52,-41 -100,-96 -157,-154 53,69 107,142 164,206 14,3 56,19 -7,-52zm195 258l0 0 -9 -12 9 12zm-509 -629l0 0c19,29 41,61 65,94 -13,-33 -49,-94 -65,-94zm-869 -417l0 0c51,26 97,58 148,87 -4,10 -63,-17 -29,21 28,-20 181,56 261,183 123,75 133,-68 79,-201 -13,9 -21,15 -151,-63 33,47 221,250 108,188 -157,-116 -117,-111 -176,-188 35,84 -234,-105 -240,-28zm1369 1034l0 0 -5 -22c-26,-25 -46,-40 -69,-54 26,29 50,57 74,77zm-2175 -1843l0 0 54 29c7,-2 2,-9 -54,-29zm1473 1093l0 0 47 40c-46,-54 -75,-98 -124,-179 -89,-58 -114,-63 -125,-56 74,68 150,134 220,208l-18 -12zm526 572l0 0c35,56 66,79 101,101 -36,-36 -68,-74 -105,-118l3 16zm7 7675l0 0 15 -16 -15 16zm-4300 2670l0 0 14 4c64,-24 33,-19 -14,-4zm4053 -2337l0 0 -17 16 17 -16zm-8290 1124l0 0 87 14c-100,-67 -66,-23 -87,-14zm-17 -3l0 0 8 4 10 -2 -17 -3zm10081 -4897l0 0c-2,62 33,41 41,49 -11,-101 -52,-47 -41,-49zm-110 228l0 0 4 119c-51,-159 -157,208 -240,176 61,180 -157,428 -112,718 -29,55 -14,-58 -41,-32 22,78 6,165 -47,313l-3 -20c-110,428 -204,599 -427,1039l54 -15c-50,93 -73,108 -103,149 1,138 132,-269 145,-140 -124,99 -350,671 -488,699 -94,134 66,-16 -25,122l-45 21 3 52c-63,87 -124,110 -145,101 16,-19 41,-62 54,-87 -94,85 -197,270 -247,333l97 -95c-256,370 -660,734 -963,1045l38 -7c-236,234 -216,153 -507,371l9 -9c-48,58 -128,116 -211,166 66,-67 -170,52 -80,-32 -292,208 -138,116 -316,290l-60 -5c-62,61 -61,82 -225,163 128,-84 -127,2 11,-98 -370,90 -502,277 -699,235 -138,139 329,-56 244,-9 86,1 -116,113 -233,139 -123,34 -234,-47 -528,24 30,-7 28,-12 58,-20 -113,1 -210,83 -354,65 -71,64 -181,26 -192,98l273 -61c-150,45 -289,149 -559,136 19,-16 97,-44 147,-60 -77,-12 -147,32 -225,16 15,-69 337,-43 494,-130 -79,-11 -309,95 -233,10 -110,110 -296,22 -496,102l11 -41c-31,9 -101,29 -162,29l109 -55c-167,48 -320,-33 -479,-20 333,12 73,56 218,86 -420,40 -237,-106 -692,-132 61,3 228,47 131,57 -91,-13 -199,-46 -250,-76 -302,-36 41,48 -92,55 -96,-62 -151,-6 -287,-13l7 -42c-335,-101 -111,65 -411,-40l142 -25 -161 -25 46 -37c-180,-17 -234,-37 -390,-111 27,44 -47,66 -195,16 -89,-62 68,-15 -138,-93 57,-6 117,-10 193,56l68 -20c-98,-60 -263,-109 -334,-137 28,12 60,28 73,41 -101,-20 -208,-47 -309,-76 -40,-35 0,-31 41,-24 -58,-24 -110,-23 -196,-67 39,-16 49,-48 174,-5 -95,-31 -190,-70 -283,-105 -12,-21 -117,-108 -74,-100 -133,-100 -386,-155 -550,-306 -13,-2 -34,-8 -78,-34 -162,-128 -276,-276 -490,-405l-61 -136c-147,-127 83,187 -164,-22 -176,-149 -24,-96 -66,-164 -98,-62 -280,-167 -374,-363 53,47 81,94 124,140l-75 -142c167,112 237,227 180,81 -107,64 -392,-464 -490,-421l-41 -101c18,25 27,26 41,49 -35,-99 -73,-118 -120,-142l-330 106c26,34 52,60 73,73 -59,184 515,602 419,673 85,100 175,195 267,291l-16 -1c164,189 258,228 341,266 37,46 -2,26 -13,28 255,264 293,286 575,417l1 55c75,32 399,365 742,492 -5,4 -15,7 -43,-4 373,159 843,525 1041,421 88,20 179,30 267,45 -325,-111 66,-51 -59,-115 128,30 319,141 158,103l-24 -13c-83,65 408,135 385,183 665,138 1335,215 1975,160l-80 -55 221 -18c62,8 84,39 -75,55 91,24 264,-59 267,-77 312,-24 -112,92 -17,79l131 -25 -32 -4c100,-43 105,-65 293,-104 119,-11 68,27 115,18 3,5 17,3 74,-14l272 -66 -121 -17c114,-56 251,-67 115,-88 211,45 993,-318 1098,-366 139,-107 288,-189 471,-295 -48,20 -103,-12 53,-101 7,132 296,-126 463,-161 -89,13 410,-332 204,-266 122,-91 34,27 140,-27 247,-268 614,-525 887,-891 -8,-18 -75,28 -30,-63 70,-45 135,-95 204,-143 46,-78 -20,-114 112,-220 -23,11 -56,29 -26,-24 562,-696 792,-1608 1081,-2462 -53,116 -39,34 -20,-56 -20,58 -39,-10 -60,1 35,-123 74,-242 106,-364 -48,-74 32,-402 -25,-444zm-4979 6045l0 0 -43 -1c94,-33 70,-17 43,1zm4957 -5238l0 0c4,-21 8,-58 13,-123 -1,30 -8,77 -13,123zm115 -613l0 0c13,-41 17,-87 28,-133l-35 85 7 48zm6 -292l0 0 -48 -83c2,30 5,90 -9,113l57 -30zm-11101 -4264l0 0c29,-105 70,-142 128,-189l-133 -19 5 208zm4463 -2247l0 0 -8 -1 8 1zm-5357 3339l0 0c31,6 41,52 -47,203 148,-139 25,-272 173,-408 49,-97 140,-207 131,-156l-21 35c152,-242 508,-698 483,-776 11,5 44,87 44,109 46,-179 101,-363 167,-544 14,75 240,61 103,252 53,-40 116,-95 201,-207 -37,23 -145,12 -104,-35 177,-67 115,-57 314,-153 -63,35 -68,-89 20,-158 -6,22 69,70 46,102 45,-84 98,-166 151,-245 -45,52 41,71 104,54 -34,0 190,-137 246,-183l-109 47c259,-161 177,-285 446,-439 -23,35 -16,148 125,86 33,-78 163,-366 409,-513l60 5c61,-37 121,-77 185,-112 -102,116 -371,412 -515,554 111,-32 43,15 194,-61 66,-3 -63,77 -108,101 119,-55 240,-107 365,-152 -44,-49 253,-170 222,-207 -129,66 -251,148 -375,220 -38,-40 161,-258 438,-345 77,-4 -15,118 -2,133 26,-35 239,-124 271,-118l-105 65c157,-26 222,-152 422,-145 63,-15 207,27 207,-9 -115,-41 -188,-236 -129,-300 27,-2 367,-11 447,14 115,32 -143,146 -43,176l82 -54c68,1 -23,52 125,21 17,-61 303,-29 63,-57 144,-29 158,-10 328,-24 -57,-32 148,-140 300,-159l43 44c305,1 468,37 749,64 24,15 159,47 98,66 43,-4 80,-20 170,-9 156,74 -194,-20 -78,59 16,-31 230,-19 357,-13 -27,-62 -283,-59 -407,-53 6,-69 236,-127 539,-96 242,33 93,70 135,68 434,122 408,-25 752,145 125,94 -26,89 -4,132 -188,-51 -273,-126 -402,-160l150 67c-64,-2 -193,-29 -256,-64 112,69 720,235 1010,428 63,13 162,44 126,5l-100 -40c-74,-76 208,42 89,-33 145,44 315,80 482,209l6 65c7,-14 -101,-96 -157,-113 86,27 239,222 350,219l-103 -110c141,56 329,110 469,239 -37,-93 -34,-21 -109,-151 53,126 -403,-267 -290,-98 -79,-129 -185,-151 -315,-291 -4,20 43,59 -92,-22l-40 -1 -11 -9 8 9 1 2c30,25 52,48 59,62 -85,-7 -307,-115 -393,-131 -80,-47 41,0 5,-40l-128 -22c5,-39 -206,-155 7,-92l-182 -77c-100,-62 -253,-125 -353,-141 -89,-35 -239,-28 -149,-33 -104,-23 -207,-41 -310,-59l1 -9c-301,-81 -629,-70 -969,-170 -108,-1 -214,4 -386,-13l-32 -36c-131,6 -403,-33 -459,4 -150,-87 -651,28 -883,60l-2 44c-160,28 -310,68 -498,140l20 33c-155,72 -434,89 -684,194 13,-22 76,-42 127,-50 -342,25 -609,318 -893,397 -59,47 -107,70 -158,87l16 -12 -25 13c-34,12 -67,22 -97,35 28,-6 58,-17 80,-27 -48,31 -119,79 -183,132l-55 -15 -16 12c-79,30 -45,51 8,54 -32,27 -61,58 -74,83 -94,-17 -173,137 -285,137 -26,55 -278,250 -300,347 -77,51 -149,109 -196,179l-64 -13c-35,63 -65,128 -96,192 -109,65 -158,88 -101,-27 -162,254 -148,193 -269,419l-18 -32c-57,71 -109,211 -168,234 -184,115 -583,804 -838,1257 132,-51 -140,203 -73,254 -34,18 -72,80 -63,-5 -72,255 -174,362 -164,558 -32,23 -19,-65 -41,-44 0,23 -4,87 -23,111 -22,21 -7,-42 -7,-88 -74,265 -3,311 57,346 -67,124 -74,191 -49,299 -31,40 -69,115 -46,-50 -27,88 -129,562 -69,579 -17,26 -15,126 -14,153 -22,208 -22,228 -28,435l12 -57c22,28 28,58 33,90l216 -70c22,-96 36,-201 15,-291 19,-49 31,27 54,14 -18,-281 -12,-241 -40,-476 21,-64 44,-127 67,-189 -66,135 -83,-55 -88,-223 -32,46 -55,86 -70,113 7,-88 13,-176 26,-265 16,-28 30,2 39,49l1 -50c40,-87 63,-31 76,42l-59 83c23,70 47,136 82,129 -2,-17 -2,-49 2,-86l17 24c8,-7 -1,-35 -3,-80l76 -41 -23 -22c39,-105 80,-208 125,-312 7,-246 -9,-478 125,-846 -1,107 58,50 105,76 -89,74 -98,279 -171,462 41,-95 58,-64 55,-36 23,-116 54,-232 84,-349 34,27 58,-55 113,-127 -108,25 61,-264 108,-402zm7704 -3155l0 0 -7 1c-101,-53 -64,-33 7,-1zm-6408 1237l0 0 -3 20c-7,-5 -25,7 3,-20zm-1887 3366l0 0c8,-43 20,-93 46,-144 3,39 -15,88 -46,144zm717 -1654l0 0 -1 3 1 -3zm4377 -2896l0 0c-44,1 -69,-2 -87,-7 -2,11 20,16 87,7zm-3476 1824l0 0 6 -7 -11 5 5 2zm-1647 3138l0 0c15,-26 29,-66 50,-121l-50 121zm-88 -223l0 0 14 -28 -18 -75c4,32 1,64 5,103zm123 87l0 0 -27 14c3,21 10,24 27,-14zm710 -1927l0 0c-22,36 -38,51 -33,76 5,-23 18,-50 33,-76zm9381 -2018l0 0 -83 -33 53 54 30 -21zm-2283 2086l0 0 -20 5 20 -5zm-125 -21l0 0 73 46 27 3c-48,-27 -99,-58 -101,-49zm165 81l0 0c-16,-6 -44,-27 -65,-32 25,14 47,28 65,32zm197 124l0 0 -39 3 39 30 0 -33zm-124 -42l0 0 -51 -34 69 53 -19 -20zm-902 -372l0 0 -14 32 48 -2c-24,-13 -25,-18 -34,-30zm-2717 430l0 0 23 -26 -23 26zm1059 -516l0 0 26 -4 -17 -57 -9 61zm1402 75l0 0c10,-9 103,3 21,-22 -13,7 -141,5 -21,22zm28 -108l0 0 -97 -8c-12,8 13,20 49,20 25,-1 61,0 48,-11zm-2526 623l0 0c100,-43 2,-43 96,-79 15,-25 -76,28 -59,5 -51,45 -88,55 -37,73zm2947 -2523l0 0c-18,8 -219,-12 -31,22 15,-9 165,15 31,-22zm-2252 -58l0 0 37 -9 -18 -57 -19 66zm-1705 762l0 0 39 -34 -39 34zm3959 -793l0 0 -151 -19c-18,5 25,20 80,26 36,2 92,8 70,-7zm824 2352l0 0 -72 -39c34,20 44,35 56,48 3,-6 -5,-22 15,-9zm-466 -220l0 0c20,17 26,-21 40,-5 38,-14 -182,-46 -40,5zm480 340l0 0c-11,24 40,39 89,71l-10 -6c34,-16 -22,-45 -79,-65zm97 77l0 0 43 34c13,-8 -15,-17 -43,-34zm-569 -2398l0 0 -13 32 70 11c-37,-20 -39,-27 -57,-43zm-1132 8719l0 0 8 1c35,-15 18,-11 -8,-1zm3910 -8407l0 0c-46,-18 -95,-32 -146,-49l98 56 48 -7zm-6245 7725l0 0 50 4c-54,-40 -37,-14 -50,-4zm4153 -5660l0 0 26 32 19 -16 -45 -17zm553 4859l0 0 10 -9 -10 9zm634 -7258l0 0 -34 -34 -95 -60c45,32 88,60 129,94zm173 5934l0 0c3,-10 6,-31 10,-67 -1,17 -5,43 -10,67zm1558 -4770l0 0c57,31 -23,-92 29,-52 -64,-74 -138,-127 -202,-172 63,55 115,125 173,224zm-3229 7002l0 0c-25,37 -68,67 -114,93 35,-38 -99,23 -50,-25 -158,121 -74,70 -169,174l-36 -8c-31,37 -33,48 -123,94 70,-51 -71,-2 3,-63 -204,52 -275,156 -384,128 -74,90 180,-28 135,1 48,2 -61,69 -127,84 -65,26 -133,-41 -294,1l29 -11c-63,-2 -113,53 -194,36 -40,41 -99,10 -104,58l150 -32c-83,24 -161,87 -310,81 14,-10 54,-25 82,-38 -43,-10 -81,22 -126,9 9,-43 187,-34 274,-80 -46,-12 -170,56 -130,2 -58,74 -164,14 -275,62l8 -28c-18,5 -56,19 -89,18l60 -37c-91,33 -177,-17 -264,-11 182,13 40,37 119,59 -231,26 -130,-78 -380,-83 34,1 127,26 73,33 -50,-3 -111,-25 -138,-44 -167,-23 22,30 -54,35 -51,-42 -83,-1 -159,-1l6 -28c-182,-56 -64,45 -226,-20l78 -17 -87 -14 26 -25c-100,-6 -131,-12 -217,-57 15,27 -26,43 -110,14 -50,-37 41,-14 -75,-55 32,-3 67,-15 108,28l38 -13c-49,-41 -143,-61 -182,-76l41 24c-61,-8 -118,-22 -174,-36 -20,-23 2,-20 26,-18 -33,-12 -64,-13 -110,-33 21,-16 31,-35 100,-14l-159 -49c-5,-15 -64,-64 -37,-60 -69,-61 -216,-80 -305,-165 -8,-1 -19,-4 -42,-16 -88,-80 -155,-153 -269,-225l-31 -83c-83,-65 38,103 -92,1l-253 81c86,97 138,112 187,132 17,26 -4,14 -8,16 134,156 160,160 323,233l-5 33c43,17 221,206 414,276l-27 1c212,82 467,300 582,231 48,11 101,12 149,19 -179,-60 42,-35 -31,-73 75,15 177,81 86,61l-11 -8c-48,43 225,83 212,114 371,75 743,119 1100,94l-43 -38c43,-2 82,-7 124,-12 31,5 47,27 -43,37 52,17 146,-38 147,-49 174,-7 -60,57 -9,52l73 -14 -17 -3c57,-28 59,-36 161,-61 70,-7 41,18 65,13 0,2 10,2 40,-9l157 -32 -70 -18c63,-32 142,-35 64,-52 120,32 553,-177 614,-201 77,-57 154,-111 260,-166 -29,9 -65,-13 27,-63 13,89 172,-71 271,-77 -76,17 229,-186 104,-155 66,-52 20,20 83,-10 136,-152 345,-291 494,-497 -6,-9 -43,16 -23,-36l124 -74c25,-44 -17,-69 57,-124 -12,5 -33,14 -17,-17 319,-385 434,-898 611,-1372 -32,66 -27,20 -19,-32 -12,35 -25,-5 -39,0 14,-39 25,-77 42,-115l-201 62c-18,51 -26,106 -7,162 -20,31 -14,-31 -31,-18 21,44 9,93 -24,173l-3 -12c-57,238 -118,329 -240,573l33 -8c-29,52 -40,59 -62,81 8,79 80,-147 94,-72 -84,48 -193,371 -284,379 -47,75 41,-5 -5,71l-31 11 6 31c-33,50 -73,57 -84,53l28 -47c-61,48 -126,174 -146,190l58 -62c-128,211 -362,404 -520,582l22 -1c-129,135 -127,77 -283,204l5 -5zm-1091 692l0 0 -24 0c51,-22 37,-11 24,0zm4038 -7993l0 0c32,25 71,51 109,76 -32,-27 -70,-53 -109,-76zm490 570l0 0 -32 -25 32 25zm-7287 6623l0 0 2 2 6 -1 -9 -1zm4899 -7429l0 0 -81 -53c36,27 77,51 114,79l-33 -26zm-198 -191l0 0 -27 -1 27 1zm-185 -57l0 0 119 73 39 9c-76,-42 -157,-91 -158,-81zm720 391l0 0 66 47c16,-3 -25,-23 -66,-47zm-562 -310l0 0c39,22 77,46 99,55 -21,-14 -66,-40 -99,-55zm1606 1296l0 0 -30 -32 22 36 8 -4zm-1200 -1108l0 0c-4,28 69,60 140,111l-13 -9c40,-11 -43,-61 -127,-103zm746 705l0 0 7 -11c-55,-55 -103,-84 -49,-26l42 37zm-730 -602l0 0 -11 -41 -53 -8 64 49z"/>
    <path class="fil0" d="M15818 2235c45,23 96,45 139,78 -16,-33 -140,-108 -90,-87 -149,-74 -123,-43 -49,9z"/>
    <path class="fil0" d="M15675 2204l71 22c-10,-8 -27,-19 -71,-22z"/>
    <path class="fil0" d="M15900 2301c-51,-26 -96,-60 -153,-74 20,17 17,23 72,31 -18,3 15,11 81,43z"/>
    <path class="fil0" d="M14937 2227l57 16 85 -36c-47,9 -132,31 -141,20z"/>
    <path class="fil0" d="M14994 2243l-126 58c119,-36 138,-50 126,-58z"/>
    <path class="fil0" d="M15636 2238c85,17 167,45 246,90 -93,-53 -191,-91 -294,-100l48 10z"/>
    <polygon class="fil0" points="14434,2386 14503,2342 14380,2414 "/>
    <path class="fil0" d="M14104 2496c47,-34 -86,-2 -32,-31 -87,33 -160,69 -226,105 71,-30 150,-55 257,-74z"/>
    <path class="fil0" d="M13735 2624c38,-16 74,-36 111,-55 -39,15 -76,34 -111,55z"/>
    <path class="fil0" d="M14645 2368c-13,0 -39,-8 -115,9l62 9 53 -18z"/>
    <path class="fil0" d="M14592 2385c-56,16 -98,29 -112,35 14,-6 48,-15 112,-35z"/>
    <polygon class="fil0" points="14657,2363 14645,2368 "/>
    <path class="fil0" d="M15222 2215c-79,37 -229,103 -69,72 51,-32 -47,-17 69,-72z"/>
    <path class="fil0" d="M14729 2373l142 -38c-7,-7 -34,-8 3,-26l-144 64z"/>
    <polygon class="fil0" points="14666,2401 14729,2373 14677,2388 "/>
    <path class="fil0" d="M13981 2571c-56,28 -121,50 -196,75 81,-20 165,-44 243,-69 9,-12 38,-34 -47,-7z"/>
    <polygon class="fil0" points="14278,2482 14266,2488 "/>
    <polygon class="fil0" points="13051,2880 13067,2879 13069,2877 "/>
    <path class="fil0" d="M14043 2577c61,-14 94,-33 126,-51 -42,17 -91,33 -140,51l15 0z"/>
    <path class="fil0" d="M13534 2699c33,-4 72,-10 108,-19 -32,3 -97,12 -108,19z"/>
    <polygon class="fil0" points="14244,2487 14253,2483 "/>
    <path class="fil0" d="M14244 2487c-31,14 -51,28 -76,40 36,-14 71,-26 97,-39l-22 -1z"/>
    <path class="fil0" d="M12877 3102c6,-27 158,-96 300,-117 129,-60 20,-102 -110,-106 -1,13 3,20 -134,80 54,-6 316,-71 205,-15 -179,69 -151,38 -244,57 85,4 -218,114 -164,142l155 -68c7,6 -50,34 -6,27z"/>
    <path class="fil0" d="M13328 2798l56 -20c-67,17 -113,24 -205,36 -89,38 -106,54 -110,64l279 -89 -20 10z"/>
    <path class="fil0" d="M13638 2696c-37,39 -169,93 -77,92 166,-54 110,-58 208,-98 -267,88 74,-38 -127,9 51,-19 100,-36 143,-52l-143 34 7 0 5 2 -7 4 -9 10c-78,23 -14,-1 9,-10l2 -6 -265 97c59,-14 129,-38 253,-82z"/>
    <path class="fil0" d="M15026 2385l-10 -4c-16,7 -23,14 10,4z"/>
    <path class="fil0" d="M14909 2405c18,-9 32,-23 97,-41 56,-11 2,12 9,17 36,-17 129,-59 3,-31l-19 9c-110,26 -259,40 -241,32 41,10 73,18 151,14z"/>
    <path class="fil0" d="M14268 2560l-217 83 119 -16 -7 -11c126,-34 94,-43 106,-56z"/>
    <polygon class="fil0" points="13024,2877 13046,2842 12927,2918 "/>
    <polygon class="fil0" points="12734,2973 12738,2947 12665,2985 "/>
    <path class="fil0" d="M1652 10224l64 -26c-31,11 -50,19 -64,26z"/>
    <polygon class="fil0" points="1247,10254 1236,10261 "/>
    <path class="fil0" d="M5593 5256c-99,10 -218,13 -201,34l41 16c64,-28 117,-40 160,-50z"/>
    <path class="fil0" d="M4243 9369l69 -50c-120,39 -63,33 -69,50z"/>
    <path class="fil0" d="M9760 3933c-85,17 -152,34 -211,50 104,-16 190,-22 211,-50z"/>
    <path class="fil0" d="M1525 10532c48,-16 69,-23 68,-29 -51,15 -77,26 -68,29z"/>
    <path class="fil0" d="M9310 4061l45 -9c59,-23 118,-46 194,-68 -77,14 -164,34 -239,77z"/>
    <polygon class="fil0" points="13676,6376 13698,6372 "/>
    <polygon class="fil0" points="11889,3335 11870,3353 "/>
    <polygon class="fil0" points="8745,4406 8738,4407 "/>
    <path class="fil0" d="M11658 3319c-25,2 -52,9 -81,18 11,-3 38,-8 81,-18z"/>
    <path class="fil0" d="M11642 3310l54 -15c5,-7 0,-5 -54,15z"/>
    <path class="fil0" d="M11477 3366l100 -30 -15 -1c-19,6 -45,16 -85,31z"/>
    <path class="fil0" d="M8647 8054l13 -2c59,-29 34,-20 -13,2z"/>
    <polygon class="fil0" points="4069,6017 4076,6011 4067,6014 "/>
    <path class="fil0" d="M3853 6104c86,-59 141,-73 214,-89l-96 -45 -118 135z"/>
    <path class="fil0" d="M2607 9917c214,-32 394,-134 498,-189 81,-15 -44,75 176,-9 306,-115 -77,-36 107,-103l149 -8c233,-105 420,-135 626,-196 42,-16 67,-28 75,-36 221,-52 442,-183 607,-222 -34,20 101,-5 123,-3l288 -117c-129,51 -116,72 -128,102 88,-32 128,-58 189,-80 -36,20 -70,40 -21,35l296 -136c-20,3 -55,12 -86,21 80,-26 241,-92 356,-109l-50 43c-97,4 -143,42 -186,77 209,-74 56,-13 163,-30 149,-48 200,-99 156,-102 172,-48 226,-59 393,-137l-23 41 157 -60 -119 79c312,-80 42,-70 385,-162l8 25c129,-51 158,-110 268,-112 121,-56 -227,32 69,-68 56,-2 171,-28 260,-51 91,-42 -82,-8 -143,15 445,-156 308,2 698,-162 -144,26 98,-87 -227,18 152,-65 318,-58 472,-140l-96 68c61,-18 121,-52 151,-65l-6 30c187,-109 379,-99 480,-194 -68,72 149,-51 235,-59 -155,87 -475,150 -484,202 84,-13 144,-56 224,-66 -51,22 -121,58 -140,74 261,-58 389,-154 540,-214l-268 95c9,-49 117,-46 182,-103 144,-21 241,-88 355,-110 -31,10 -31,14 -59,24 295,-96 397,-51 515,-88 118,-29 330,-124 243,-117 91,-43 -388,137 -236,29 190,10 341,-135 722,-208 -153,74 106,7 -32,70 172,-61 177,-73 247,-117l59 4c214,-119 43,-57 380,-193 -112,54 148,-14 66,27 96,-28 188,-63 255,-100l-13 8c346,-122 294,-66 608,-191l-37 -1c407,-167 943,-315 1372,-469l-156 39c47,-9 286,-113 427,-137 -25,9 -72,32 -97,38 8,12 67,15 172,-16l33 -32 47 2c157,-51 -55,-17 103,-66 112,31 684,-210 838,-201 95,-77 -301,89 -195,13 53,-9 75,-8 179,-37l-43 -15c482,-139 673,-175 1097,-317l-13 10c154,-38 235,-69 294,-113 36,3 -70,43 -8,35 262,-126 504,-164 540,-358 55,62 192,-301 197,-142 10,-41 2,-83 2,-128 71,49 -64,402 -106,469 -97,102 -213,189 -347,221 17,5 -40,51 23,29 -95,44 -163,57 -48,43 -855,179 -1675,536 -2505,749 -55,20 -18,22 5,23 -159,15 -138,63 -219,94l-236 22c-86,43 -8,35 -13,48 -412,142 -834,223 -1162,359 -109,18 18,-47 -128,-5 210,-13 -404,154 -270,151 -156,-12 -511,148 -477,56 -170,50 -129,76 -78,65 -197,62 -356,113 -508,187 -115,17 -892,305 -1086,306 133,-3 -5,21 -113,73l115 -2 -260 80c-51,20 -67,22 -66,19 -47,14 2,-20 -111,7 -175,55 -178,75 -271,122l29 -3 -120 39c-89,29 302,-129 8,-54 -1,10 -159,105 -240,109 145,-45 123,-63 65,-54l-207 63 81 18c-589,186 -1212,354 -1838,557 -3,-38 -447,139 -408,69l27 -2c153,-53 -57,-25 -183,21 140,-27 -219,125 105,32l-239 103c-107,143 -662,202 -1025,353 26,-10 29,-18 33,-21 -322,136 -754,209 -829,250l-34 -18c-273,134 -306,147 -649,239 2,-7 40,-27 -15,-14 -76,47 -152,91 -386,161l5 -13 -360 119c-25,-83 -606,251 -746,197 -62,46 -319,141 -443,188 -3,-3 -12,-7 -36,-5 -168,101 -504,-31 -627,-165 -96,-77 -70,-30 -39,20 -193,-199 -329,-572 -345,-632 -45,-146 15,-64 20,-109 -74,-213 -63,60 -123,-241 13,32 38,95 35,67 -29,-113 2,-342 -52,-446l8 77c-84,-197 -84,-500 -149,-515l-19 26c-79,-360 -61,-145 -141,-508l5 1c-55,-152 -51,-239 -108,-318l8 61c-45,-219 -39,-249 36,-463 -3,-28 58,-125 82,-147 -14,-14 68,-129 199,-207 138,-71 271,-96 315,-111 -155,54 -77,45 -28,46 82,-57 143,-81 278,-101 3,-50 13,-103 261,-185 -37,18 -96,42 -67,43 28,2 83,-26 100,-37 29,1 -49,32 -15,40 152,-96 289,-96 527,-188 -72,38 -5,26 29,32 3,-55 345,-63 234,-98 487,-114 1210,-383 1409,-401 55,1 182,-71 262,-97l-4 25c218,-113 177,-72 438,-200 -108,63 -55,60 64,42l173 -102 49 19c70,-37 161,-60 247,-81 -41,15 -18,9 -14,14 25,-57 365,-161 408,-200 98,19 223,-81 297,-60 25,-15 55,-32 95,-49 -46,-6 -68,-23 9,-38l20 -5 40 14c77,-30 153,-59 204,-76 -22,7 -52,10 -84,12l99 -15 28 -9 -17 7c49,-9 100,-22 165,-51 282,-47 581,-249 898,-288 -50,8 -111,27 -126,40 247,-83 506,-123 659,-194l-21 -20c180,-70 318,-123 468,-168l-3 -31c216,-59 662,-248 811,-234 44,-39 296,-87 417,-133l37 12c159,-45 254,-85 346,-121 334,-57 620,-196 902,-283l3 5 279 -106c-66,43 52,-32 140,-54 88,-38 236,-81 349,-100l181 -59c-198,82 24,28 43,49l110 -57c52,-2 -71,43 17,22 75,-38 303,-110 368,-158 -14,-3 -42,0 -79,5l-2 1 -9 3 10 -2 28 -22c146,-40 90,-34 81,-43 177,-13 260,-70 399,-64 -185,3 375,-121 253,-134 136,-2 86,-26 174,-19 -174,45 -334,135 -468,196l145 -21c-75,72 -313,82 -388,123 52,-28 178,-56 184,-47l-44 -23c-202,48 -347,124 -479,186 133,-31 -152,69 -49,64l100 -39c52,-3 -46,40 -98,68 -335,79 -921,291 -1044,301 67,-12 187,-58 242,-87l-157 35c125,-41 230,-41 410,-111 -38,-12 88,-83 -62,-67 -360,76 -270,146 -694,275 -36,17 76,-65 -144,18 -275,112 -465,227 -449,272 111,-51 343,-156 391,-130 -117,49 -316,122 -320,149 -135,0 220,-84 48,-65 -81,27 -115,51 -150,70 51,-32 -85,-4 -112,-4 -270,86 -428,117 -718,208l-50 -16c-138,55 -321,180 -260,185 -166,54 -181,39 -317,96 234,-37 -47,6 -58,53 -146,50 -58,-1 -125,9l-78 54c-98,0 149,-128 34,-127 -81,0 -398,62 -421,68 -59,53 1,177 117,184 -6,25 -142,22 -208,40 -193,23 -271,115 -429,151l114 -58c-31,-1 -251,83 -280,108 -10,-11 92,-101 20,-93 -276,81 -516,232 -487,263l411 -172c24,26 -290,126 -260,157l-390 112c48,-15 193,-71 131,-71 -165,55 -89,22 -204,44 178,-99 494,-311 603,-398l-191 84 -58 -2c-252,107 -448,302 -505,357 -152,39 -120,-42 -90,-67 -293,90 -258,187 -559,272l117 -22c-69,26 -327,96 -295,99 -65,2 -133,-22 -70,-55l-244 146c39,-18 -4,-62 7,-78 -106,32 -159,120 -90,105 -218,28 -159,34 -340,42 -61,23 21,54 69,46 -133,59 -214,76 -283,91 219,-93 24,-137 53,-190l-436 313 30 -83c-25,62 -583,245 -858,326l41 -14c51,-34 -189,28 -282,77 13,-14 37,-19 79,-33 -197,23 -215,147 -416,165 172,-49 197,-79 182,-93 -130,61 -456,145 -372,179 -92,16 -171,48 -173,19l-330 141c23,-15 41,-38 -61,-10 196,-54 363,-164 474,-159 -6,-34 -85,-31 -3,-89 -359,134 -543,256 -762,369l-333 79 -7 19 -73 -21c-36,22 -59,39 -73,37l17 -19c-32,13 -64,26 -77,35 -21,-17 28,-57 84,-100l94 -4c58,-41 99,-75 7,-60l-45 22c38,-28 57,-47 27,-43l-244 99c30,-4 77,-6 129,-11 -150,73 -308,167 -168,145 -63,16 -116,26 -170,52 -127,158 -127,128 -185,351 -18,6 -11,-57 -35,-18 -16,162 -7,440 47,484 61,157 55,57 98,155 -6,-2 -17,-9 -11,19l66 112c8,52 -54,-103 -19,35 93,224 150,356 195,553 98,273 21,-135 90,97 -14,43 -31,81 12,229 41,72 55,54 107,181l-39 2c41,121 80,216 55,225 45,92 65,163 74,214 76,178 30,-156 29,-202 29,179 85,323 77,396 -18,-35 -42,-72 -63,-130 70,315 166,198 208,345 -83,-51 -167,-143 -149,-81 41,32 80,67 124,87 9,22 -74,-45 -25,5 42,23 127,46 167,44l-3 2c80,24 169,30 250,12 -47,9 -58,22 -8,16 51,-16 107,-36 176,-67 -57,28 7,19 101,-4 258,-71 180,-143 389,-172 -28,8 -32,15 -62,22l107 -17c-2,-80 604,-199 601,-281 156,-17 17,15 -160,109l163 -27c-64,22 -115,35 -183,63zm-1678 42l0 0c4,-22 -40,-117 -60,-158 16,76 12,134 60,158zm35 -3017l0 0c59,-7 112,-21 144,-39 -54,10 -103,25 -144,39zm9924 -3367l0 0 5 -4c-72,20 -109,27 -5,4zm110 -29l0 0c53,-16 101,-31 113,-43l-8 15c-61,25 -87,31 -104,28zm-1680 4482l0 0 42 -8c24,-14 45,-30 -42,8z"/>
    <polygon class="fil0" points="4230,9379 4237,9376 4243,9369 "/>
    <path class="fil0" d="M7945 4776c-46,8 -69,12 -88,12 0,7 23,6 88,-12z"/>
    <path class="fil0" d="M12195 3120l-132 50c64,-22 90,-24 125,-29 -2,-5 -34,-5 7,-20z"/>
    <path class="fil0" d="M13409 2914l59 -23 -11 -13c-81,30 -136,57 -48,36z"/>
    <path class="fil0" d="M12346 3168c21,18 100,-16 195,-47l-18 3c17,-41 -79,3 -177,44z"/>
    <path class="fil0" d="M12560 3111l84 -29c10,-16 -33,9 -84,29z"/>
    <path class="fil0" d="M11365 3419c47,-8 19,-36 46,-36 42,-45 -285,129 -46,36z"/>
    <polygon class="fil0" points="12446,3218 12404,3200 12358,3239 "/>
    <path class="fil0" d="M11702 3433l149 -39 40 -22c-91,26 -195,56 -189,61z"/>
    <path class="fil0" d="M11890 3372c48,-15 94,-30 119,-44 -25,9 -81,28 -119,44z"/>
    <polygon class="fil0" points="12243,3291 12197,3300 12091,3332 "/>
    <path class="fil0" d="M10090 3943l-159 59c-13,15 34,7 90,-17 40,-19 98,-42 69,-42z"/>
    <path class="fil0" d="M10609 3858c-45,10 -51,3 -76,5l2 34 74 -38z"/>
    <path class="fil0" d="M10136 4019c-12,14 -227,102 -22,35 12,-16 173,-75 22,-35z"/>
    <polygon class="fil0" points="7664,4762 7705,4748 7681,4695 "/>
    <path class="fil0" d="M5537 5589c200,-48 38,-51 217,-88 41,-28 -149,31 -105,6 -113,51 -176,62 -112,83z"/>
    <path class="fil0" d="M5649 5506l58 -29c-34,15 -50,24 -58,29z"/>
    <polygon class="fil0" points="1798,10140 1767,10149 1835,10163 "/>
    <path class="fil0" d="M3201 9646c-59,18 -123,47 -184,64 125,-45 211,-27 184,-64z"/>
    <path class="fil0" d="M11325 7226c-233,1105 -1051,2008 -2125,2354 -1084,349 -2277,90 -3117,-678l-39 40c855,783 2071,1048 3173,693 1093,-356 1923,-1272 2165,-2399l-57 -10z"/>
    <path class="fil0" d="M5244 5484c335,-930 1068,-1636 2007,-1940 926,-300 1917,-163 2729,374l31 -46c-824,-548 -1836,-686 -2779,-384 -955,308 -1700,1031 -2044,1977l56 19z"/>
    <path class="fil0" d="M13425 6629c-28,2234 -1476,4194 -3602,4881 -1082,349 -2221,337 -3295,-34 -1039,-359 -1950,-1051 -2572,-1947l-48 34c631,904 1554,1604 2602,1968 1083,375 2236,387 3329,33 2150,-693 3615,-2678 3644,-4934l-59 -1z"/>
    <path class="fil0" d="M3036 6221c70,-1028 436,-2005 1067,-2825 644,-840 1516,-1457 2526,-1782 1987,-641 4156,-36 5526,1541l45 -39c-1384,-1593 -3580,-2205 -5590,-1556 -1020,329 -1905,952 -2555,1801 -634,828 -1007,1816 -1075,2854l55 6z"/>
   </g>
   <path class="fil0" d="M6387 7286l-15 4 15 -4zm246 -208l-13 -8c-11,12 -15,26 -11,41 4,15 13,20 26,15 3,-10 3,-19 3,-29 -1,-9 -3,-16 -5,-18zm-186 -106l-18 10c-23,23 -45,45 -69,66 -23,22 -48,43 -74,65 -7,0 -12,3 -16,10 -4,7 -3,12 2,16 22,55 60,82 114,81 54,-1 86,-37 96,-106 -6,-22 -9,-53 -11,-93 -1,-40 -9,-57 -23,-49zm358 -353l-29 13 -145 143c-46,31 -59,67 -41,107 18,41 50,76 94,106 17,8 31,8 42,-2 11,-10 20,-26 26,-49l28 -116c5,-32 13,-67 22,-105 9,-38 11,-70 3,-97zm-568 -607c28,-28 55,-40 80,-37 25,3 58,10 99,20 32,24 47,49 45,75 -2,27 -12,58 -31,94 -10,21 -12,38 -3,52 8,14 25,12 49,-5 30,-21 59,-38 87,-53 28,-14 61,-24 101,-32 40,-5 66,3 78,26 11,23 11,54 -1,94 -57,95 -112,186 -165,273 -53,87 -107,181 -164,284 -11,14 -15,23 -12,29 2,5 11,5 26,-1l310 -291c25,-36 54,-55 87,-59 33,-4 70,-6 112,-6 55,10 89,30 101,60 12,30 13,69 2,117 -49,89 -84,169 -103,240 -19,71 -31,146 -34,226 -3,22 -10,36 -21,41 -12,5 -28,5 -49,0 -10,-3 -19,-2 -28,2 -9,4 -18,10 -27,18 -25,34 -53,61 -84,81 -31,21 -64,42 -97,66 -28,28 -54,51 -76,70 -22,19 -49,36 -80,54 -25,14 -39,31 -42,49 -3,19 -1,40 8,63 3,77 20,139 50,188 30,49 94,62 191,38 92,-32 181,-64 267,-94 86,-30 174,-69 265,-117 107,-71 170,-151 188,-241 19,-90 14,-185 -13,-283 -8,-37 -2,-65 20,-83 22,-18 49,-13 80,17 22,13 39,28 51,43 12,15 24,30 33,48 22,46 38,92 49,137 10,45 27,91 49,140 3,30 5,61 5,92 1,31 2,65 5,100 -3,35 -13,60 -30,74 -17,15 -38,27 -64,38 -128,55 -248,107 -362,158 -113,50 -238,96 -376,137 -70,21 -132,28 -188,21 -55,-7 -126,-35 -214,-84 -35,-31 -64,-62 -85,-93 -21,-30 -38,-65 -50,-102l-88 -437c0,-14 -3,-25 -9,-31 -5,-6 -13,-7 -23,-3 -37,23 -63,41 -78,57 -15,15 -24,47 -26,96 -7,111 -26,219 -54,326 -28,107 -66,223 -113,348 -13,65 -34,98 -62,99 -29,2 -68,-15 -119,-49 -25,-26 -35,-61 -31,-107 5,-46 19,-87 43,-125 60,-56 95,-110 103,-162 8,-52 0,-108 -26,-168 -15,-17 -30,-26 -45,-27 -14,0 -32,-6 -53,-16 -22,-28 -39,-70 -52,-124 -12,-54 -3,-96 27,-124 20,-52 37,-99 50,-141 14,-42 23,-85 27,-129 2,-13 -1,-22 -6,-28 -6,-6 -15,-4 -27,5 -39,40 -75,74 -107,103 -32,29 -64,69 -97,121 -19,25 -39,37 -60,37 -22,0 -46,-8 -71,-22 -26,-35 -50,-69 -74,-105 -23,-36 -36,-76 -36,-119 -12,-36 -16,-67 -12,-91 4,-25 21,-58 52,-98 31,-64 56,-124 77,-178 20,-54 42,-111 66,-170 26,-65 59,-110 101,-136 42,-26 87,-35 136,-27 24,13 45,42 66,86 20,44 26,78 18,102 -5,55 -3,105 3,149 7,44 1,95 -18,153 -4,17 -2,28 5,34 8,5 19,8 34,10 30,-1 55,5 75,19 20,13 28,36 24,68 5,63 -2,127 -21,191 -19,64 -40,134 -64,211 -23,68 -27,112 -11,132 16,20 51,54 108,102 11,6 20,4 29,-6 8,-9 17,-20 27,-31l72 -171c3,-28 2,-49 -4,-63 -6,-14 -5,-34 2,-62 4,-25 7,-47 9,-68 1,-20 18,-37 50,-52 13,-18 27,-28 41,-29 14,-1 29,-10 46,-28 82,-109 160,-225 236,-349 75,-124 143,-251 202,-383 2,-19 -1,-33 -8,-43 -7,-10 -19,-8 -35,5l-171 226c-30,42 -54,86 -75,131 -20,45 -38,93 -55,143 -18,37 -35,57 -50,59 -15,2 -39,-6 -71,-26 -17,-10 -30,-21 -37,-32 -7,-11 -15,-23 -24,-33 -12,-31 -24,-62 -35,-93 -11,-31 -20,-61 -26,-90 31,-64 56,-124 76,-177 19,-54 40,-112 61,-174l52 -145 15 -25zm3993 619c-25,12 -39,31 -40,56 -1,25 1,49 5,73 7,20 21,32 41,36 20,4 38,3 55,-3l87 -40c19,-11 39,-19 59,-26 21,-6 37,-18 48,-36 -28,-61 -66,-90 -114,-85 -48,4 -95,12 -141,25zm28 -78c79,-74 98,-128 57,-160 -41,-33 -39,-67 7,-101 28,-15 54,-21 78,-19 24,2 55,13 93,31 26,3 51,11 75,22 24,11 45,29 65,53 4,28 6,55 7,82 1,27 2,56 2,89 -6,20 -5,35 1,45 7,11 22,13 45,7 55,-15 98,-39 129,-73 31,-33 45,-83 44,-147 -9,-32 -20,-52 -33,-60 -13,-8 -36,-13 -69,-15 -20,0 -32,-7 -38,-22 -6,-15 0,-27 17,-37 70,-48 143,-65 219,-50 76,14 134,67 174,159 11,51 25,99 42,144 18,45 32,93 43,147 1,64 -20,103 -64,117 -44,14 -89,-3 -135,-52 -16,-28 -32,-45 -45,-51 -13,-6 -34,-1 -62,16 -55,35 -109,67 -161,95 -52,28 -105,56 -158,85 -69,19 -131,41 -188,68 -56,26 -115,62 -176,108 -16,13 -34,23 -53,29 -19,6 -38,8 -57,6 -44,-28 -89,-59 -137,-94 -47,-35 -79,-69 -96,-102 -2,-34 0,-68 7,-101 6,-33 12,-67 19,-101 11,-41 26,-65 48,-73 21,-8 42,-13 63,-17 33,-45 68,-52 106,-19 37,32 81,29 131,-8zm20 -1029l-24 12c-15,26 -26,53 -35,83 -9,30 -14,57 -16,83 1,16 5,25 13,26 8,2 17,-4 28,-16 18,-34 36,-75 56,-123 19,-47 12,-69 -21,-66zm-387 -305c10,-54 -11,-93 -64,-118 -53,-25 -49,-68 12,-128 75,-26 151,-24 225,7 75,31 134,87 180,168 5,13 13,22 23,26 10,4 20,1 31,-8l104 -34c40,-11 74,-22 102,-32 28,-10 62,-27 102,-51 19,-3 39,-3 60,0 21,4 44,8 69,14 30,-3 61,0 93,8 32,8 60,29 83,62 33,49 40,83 19,103 -21,20 -51,43 -91,68 -39,16 -77,26 -116,30 -39,4 -79,8 -121,13 -11,-1 -20,-2 -27,-5 -7,-2 -11,-8 -12,-17 -4,-15 0,-28 11,-39 11,-11 21,-23 28,-36 14,-27 18,-48 12,-63 -5,-15 -22,-19 -49,-14l-111 30c-46,4 -85,15 -117,32 -32,18 -68,35 -109,52l-100 71c-43,14 -80,34 -111,60 -31,26 -62,61 -93,104 -33,24 -62,51 -87,82 -25,31 -45,70 -59,115l-93 155c-7,22 -9,42 -8,60 1,19 1,41 -1,67 2,21 12,37 30,49 17,11 40,14 67,6 14,-8 28,-16 42,-24 14,-8 29,-17 47,-28 13,-11 25,-14 35,-11 10,4 19,14 25,32 -1,20 -4,42 -8,65 -4,23 -8,48 -13,77 -4,5 -4,10 0,16 4,6 11,6 20,0 22,-26 45,-54 70,-84 25,-30 47,-61 65,-94 -8,-16 -24,-32 -47,-48 -23,-16 -45,-29 -64,-41 -16,-4 -29,-4 -39,3 -10,7 -17,18 -22,36 -28,28 -57,37 -85,29 -28,-8 -35,-34 -19,-76 10,-21 19,-38 25,-53 6,-15 15,-27 26,-37 35,-18 71,-20 108,-5 38,15 77,36 119,62 22,14 38,21 48,22 10,1 21,-7 33,-23 15,-18 22,-35 23,-48 1,-14 -8,-21 -26,-21 -50,-13 -85,-33 -104,-60 -19,-26 -31,-57 -35,-92 -4,-9 -8,-22 -9,-39 -2,-17 3,-28 17,-33l60 21c26,-9 52,-25 76,-49 24,-24 48,-52 72,-84 46,-82 113,-119 199,-113 87,6 148,50 185,132 3,12 9,18 18,18 9,0 20,-1 34,-5 51,-12 102,-20 153,-25 51,-4 105,-7 163,-8 21,-2 45,3 72,15 27,12 50,27 69,43 22,23 32,44 27,66 -4,21 -21,36 -51,44 -28,2 -54,3 -75,3 -22,0 -47,9 -74,27 -67,-14 -129,-24 -184,-30 -56,-6 -115,-6 -176,-1 -46,24 -83,64 -110,122 -27,58 -59,117 -95,178 -7,19 -7,30 1,34 8,4 20,5 37,5 37,-3 72,-9 104,-16 32,-8 65,-18 100,-29 17,-5 25,-11 23,-21 -2,-9 -12,-20 -32,-31 -18,-6 -28,-13 -29,-22 -2,-9 6,-17 22,-25 77,-41 161,-57 252,-47 91,11 188,48 291,114 17,15 25,31 24,47 -1,16 -13,30 -37,44 -29,4 -58,13 -86,25 -28,12 -60,21 -94,25 -52,20 -98,37 -135,51 -38,14 -82,25 -134,34 -34,7 -65,15 -91,22 -27,7 -59,10 -95,8 -35,2 -67,2 -93,0 -27,-3 -63,-11 -109,-26 -17,-10 -32,-9 -45,3 -13,12 -26,26 -40,42 -89,116 -174,227 -254,331 -80,104 -166,209 -257,313 -13,11 -25,19 -36,22 -10,4 -21,6 -32,7 -28,-16 -44,-33 -48,-52 -4,-19 -11,-39 -20,-59 -16,-17 -26,-37 -31,-58 -5,-21 8,-41 37,-57 28,-21 54,-44 78,-70 23,-26 49,-59 76,-97 21,-16 42,-37 62,-62 21,-25 35,-53 44,-87 -51,12 -92,3 -123,-29 -31,-31 -53,-67 -66,-109 -5,-17 -14,-33 -28,-48 -14,-15 -29,-22 -44,-19l-40 11c-85,-42 -150,-93 -193,-153 -42,-60 -44,-130 -5,-210 24,-68 52,-129 84,-184 31,-55 70,-113 116,-174 5,-16 12,-23 23,-21 10,1 24,8 42,19 16,14 30,30 40,50 11,20 22,41 34,65 4,15 9,24 15,27 6,3 19,2 40,-4 50,-28 98,-58 144,-91 46,-33 97,-64 152,-93 3,-1 8,-5 14,-13 6,-8 5,-15 -2,-23 -11,-6 -21,-9 -32,-9 -11,0 -20,1 -29,4 -29,-5 -50,-13 -64,-26 -14,-12 -17,-31 -7,-57z"/>
   <path class="fil0" d="M4301 4392l-10 18c1,44 4,87 9,131 5,44 20,87 44,128 7,6 14,9 19,10 6,0 9,-6 9,-19 1,-32 -1,-64 -5,-96 -5,-32 -13,-61 -25,-88 -7,-19 -13,-37 -19,-53 -5,-16 -13,-26 -24,-32zm-229 207c-4,5 -6,9 -7,12 -1,3 -1,7 -1,11l3 25c5,33 9,66 13,99 3,33 11,65 23,96 62,42 121,81 178,114 57,33 118,72 181,116 14,6 25,7 32,3 7,-4 8,-16 1,-37 1,-19 -2,-37 -10,-54 -8,-16 -16,-34 -26,-51 -1,-37 -11,-71 -28,-100 -17,-29 -40,-50 -67,-63l-69 12c-47,3 -80,-12 -97,-45 -18,-33 -14,-66 12,-101 5,-7 6,-15 5,-25 -2,-10 -6,-19 -14,-27 -22,4 -40,7 -55,7 -15,0 -31,-1 -49,-2l-25 11zm-93 -9l-6 12c-2,8 0,19 7,33 6,14 13,20 22,18 2,-9 2,-23 0,-41 -2,-18 -10,-25 -22,-21zm264 -546c-13,36 -22,62 -26,79 -4,16 -9,39 -15,69 -2,18 -4,36 -5,53 -2,17 -4,35 -8,54 3,21 8,42 14,62 6,20 13,38 20,54 7,17 11,21 13,14 2,-8 5,-16 9,-26 1,-18 6,-37 14,-59 8,-21 23,-33 47,-36 10,5 18,14 24,25 6,11 12,25 20,41 9,22 17,32 26,31 9,-1 21,-8 36,-22 4,-6 10,-8 17,-7 7,1 12,5 16,12l14 78c18,25 37,47 57,65 20,18 42,35 67,51 7,4 15,6 24,7 9,1 17,-1 26,-5 17,-16 31,-39 41,-71 10,-31 13,-61 10,-87 -7,-7 -13,-15 -19,-23 -7,-8 -8,-15 -5,-21 10,-10 25,-16 43,-18 18,-1 36,-5 54,-10 9,2 15,6 18,13 3,7 3,15 2,25l-20 99c-4,4 -5,9 -3,12 2,3 7,4 15,2 14,-12 26,-25 36,-38 10,-13 19,-29 28,-46 24,-39 32,-67 25,-86 -7,-19 -32,-37 -74,-53l-505 -243c-8,-4 -15,-6 -21,-5 -6,1 -10,4 -14,11zm-402 607c-7,6 -8,10 -4,14 4,4 9,7 17,8 19,7 35,15 50,25 15,10 31,20 50,31 6,6 12,8 17,8 5,-1 7,-7 5,-20 -14,-37 -30,-68 -47,-92 -17,-24 -42,-21 -75,9l-13 17zm348 -639c-1,-16 -13,-29 -38,-38 -25,-9 -38,-2 -40,22 -4,24 -10,43 -17,57 -7,14 -20,30 -37,49l3 17c13,10 28,22 47,34 18,12 33,7 45,-14 7,-21 12,-42 15,-63 3,-21 11,-42 23,-63zm-269 5l-7 20c10,14 20,24 32,31 12,6 25,11 39,14 11,6 20,5 26,-3 6,-8 10,-16 12,-24 2,-21 6,-38 12,-50 6,-12 20,-24 41,-37 1,-2 3,-6 5,-11 2,-6 3,-9 3,-12 -7,-6 -15,-11 -23,-15 -9,-4 -17,-8 -24,-14 -34,-12 -55,-14 -61,-3 -7,10 -12,31 -16,61l-38 43zm-65 -116c1,-10 3,-17 7,-22 3,-5 7,-10 12,-15 18,-32 48,-58 90,-76 41,-19 80,-15 114,9 9,10 18,18 27,23 9,5 20,12 33,20 102,53 200,101 295,146 95,44 197,90 306,139 57,28 112,54 165,77 53,23 112,44 179,62 31,18 45,43 42,75 -4,32 -21,56 -52,73 -55,18 -102,39 -139,60 -37,22 -78,45 -121,71 -23,9 -42,13 -58,14 -16,0 -29,9 -41,25 -38,35 -78,50 -120,44 -42,-5 -78,-22 -108,-50 -9,-5 -16,-7 -21,-5 -5,2 -7,9 -7,22 0,16 2,32 6,50 4,18 9,37 12,57 24,50 44,101 61,152 17,51 38,107 63,167 2,18 1,33 -5,43 -6,11 -16,15 -32,12 -20,-1 -34,4 -41,16 -7,12 -7,27 1,46 10,26 11,45 4,57 -7,12 -20,23 -39,34 -15,14 -27,21 -37,21 -9,0 -21,-3 -37,-8 -23,-5 -43,-12 -61,-20 -17,-8 -35,-21 -53,-39 -22,-13 -42,-24 -61,-35 -18,-10 -37,-24 -56,-42 -105,-62 -206,-119 -302,-171 -96,-51 -193,-119 -289,-203l-28 -30c-23,-47 -14,-75 26,-85 39,-10 75,-6 107,12 8,10 24,16 46,19 23,3 41,1 53,-7 -1,-21 1,-40 4,-57 3,-16 7,-34 10,-54 4,-16 4,-28 -2,-35 -6,-8 -14,-16 -25,-26 -7,-4 -16,-9 -25,-15 -10,-6 -20,-8 -30,-6 -9,12 -17,22 -25,29 -8,7 -20,14 -36,21 -5,3 -10,4 -14,4 -4,1 -7,-1 -9,-5 -7,-10 -10,-20 -9,-30 1,-10 1,-20 0,-29 -12,-20 -16,-35 -12,-42 4,-8 11,-19 20,-36 4,-23 22,-44 54,-64 32,-20 57,-16 74,13 27,34 57,63 89,87 32,25 65,49 99,73 7,6 13,9 17,8 4,-1 9,-6 14,-15 1,-5 4,-6 10,-4 6,2 11,6 17,13l23 32c12,17 26,24 42,21 16,-3 24,-17 24,-42 -2,-34 -6,-68 -13,-103 -6,-35 -5,-68 3,-98 0,-10 -4,-18 -12,-23 -8,-5 -15,-8 -22,-10l-184 -99c-43,-38 -58,-78 -46,-119 12,-41 20,-85 23,-132zm2263 -1035l-15 10c-25,28 -47,54 -68,79 -21,25 -45,50 -72,74 -16,24 -25,48 -26,72 -1,25 10,45 32,62 7,11 14,22 21,33 7,11 15,24 23,38 3,11 8,15 15,14 7,-1 14,-4 22,-9 18,-23 34,-48 47,-74 13,-26 26,-54 39,-85 14,-36 21,-80 21,-131 0,-52 -13,-79 -39,-83zm-643 -600c9,-20 28,-32 58,-35 30,-3 54,3 73,18 6,7 14,14 24,20 10,7 22,13 36,19 23,9 38,24 42,43 5,19 1,41 -11,66 -28,40 -54,78 -80,115 -26,37 -55,71 -88,103 -22,23 -44,47 -65,72 -21,25 -44,47 -68,68 -10,6 -13,13 -10,20 3,7 9,15 19,24 27,15 52,29 76,42 23,13 45,32 66,56 10,10 18,13 23,11 5,-2 12,-9 21,-20 51,-80 103,-152 156,-215 53,-63 110,-131 172,-203 13,-18 29,-34 47,-45 19,-12 38,-23 59,-34 13,-2 26,-2 39,0 14,2 28,0 45,-6 12,-3 20,-1 24,6 4,6 3,16 -1,29l-104 158c-14,37 -29,71 -44,102 -15,32 -33,63 -54,95l-54 125c-9,24 -17,43 -23,58 -6,15 -16,30 -28,47 -12,22 -15,43 -9,63 6,20 14,38 24,53 9,12 18,16 24,12 6,-4 13,-9 19,-16 15,-33 29,-65 41,-96 12,-31 25,-62 41,-93 30,-76 75,-131 135,-163 60,-33 136,-32 227,3 12,20 19,44 21,74 2,29 2,60 -1,93 -6,27 -6,46 0,59 6,13 16,25 32,37 28,27 42,54 40,81 -2,27 -19,52 -53,74 -38,27 -74,55 -108,83 -34,28 -64,65 -90,109 -8,11 -17,18 -26,22 -9,3 -21,6 -34,6 -19,-4 -35,-7 -47,-9 -12,-2 -25,-2 -39,0 -40,-2 -74,-8 -102,-19 -27,-10 -56,-22 -86,-36 -9,-6 -17,-13 -22,-19 -5,-6 -9,-15 -12,-26 -33,-36 -55,-76 -65,-117 -11,-42 0,-90 31,-145l18 -16c15,-44 30,-86 44,-127 14,-41 28,-85 42,-132 -4,-6 -7,-8 -9,-7 -2,1 -4,3 -6,4l-114 148c-9,14 -19,27 -30,37 -11,10 -23,21 -36,33 -10,8 -18,19 -24,33 -6,15 -13,27 -21,38 -13,16 -18,33 -15,51 3,18 8,36 15,54l43 114 40 246c0,21 0,40 1,57 0,17 3,36 7,55 2,21 -5,37 -22,47 -16,10 -33,11 -50,1 -32,-18 -61,-37 -89,-57 -28,-20 -47,-43 -60,-70 4,-53 5,-99 4,-139 -1,-40 -5,-83 -12,-128 -14,-73 -31,-140 -50,-201 -19,-60 -48,-120 -87,-178l-88 -75c-13,-11 -23,-23 -29,-36 -7,-13 -11,-28 -13,-45 -2,-9 0,-16 5,-23 5,-7 10,-12 15,-16 11,-20 19,-33 27,-41 7,-8 21,-16 41,-26 21,-16 37,-38 49,-63 12,-25 26,-51 42,-77 10,-37 22,-73 36,-107 14,-34 25,-71 32,-110l3 -14zm2092 -97c-4,1 -9,3 -12,6 -3,3 -8,8 -13,15 -21,16 -42,29 -61,41 -19,12 -36,28 -50,47 -9,20 -14,40 -14,61 0,21 0,43 -1,67 0,10 3,17 10,18 6,2 14,1 24,-1 27,-14 54,-33 80,-55 25,-23 52,-46 79,-71 28,-28 35,-54 22,-78 -13,-24 -34,-41 -64,-50zm-45 -131l-17 2 -81 77c-11,12 -14,21 -10,27 5,6 13,5 23,-4 14,-9 35,-25 63,-48 28,-23 35,-41 22,-55zm-120 -58c-4,0 -6,1 -9,1 -2,0 -5,3 -8,8 -4,10 -3,20 2,31 5,11 9,22 13,33 5,10 9,14 13,13 4,-1 9,-5 15,-13 16,-29 23,-48 20,-57 -3,-9 -19,-14 -47,-17zm791 -391l-23 10c-25,13 -48,28 -69,47 -21,19 -44,34 -70,45 -19,7 -28,18 -27,32 1,14 -1,30 -4,50 0,43 2,85 7,125 5,39 10,84 15,132 2,28 19,47 54,57 35,10 63,8 86,-5l19 -13c14,-28 23,-54 26,-80 3,-26 4,-51 3,-75 -1,-55 -2,-106 -1,-154 1,-48 -2,-98 -7,-150 -2,-5 -3,-8 -3,-11 0,-3 -3,-6 -7,-9zm-78 -85c23,-10 49,-14 77,-14 28,1 57,2 86,3 11,2 23,5 37,10 13,5 23,14 28,27 -3,17 -7,32 -14,46 -6,14 -11,29 -13,45 -3,31 -4,61 -2,90 1,29 4,61 9,96 -4,46 -6,89 -4,128 1,39 7,81 17,127 1,29 3,58 6,88 3,30 8,60 17,92 0,25 -10,45 -28,60 -19,15 -39,14 -63,-2l-53 -32c-24,4 -49,3 -75,-4 -25,-7 -51,-20 -75,-39 -8,-11 -15,-16 -20,-16 -5,0 -8,7 -7,20 -1,83 5,162 17,237 12,75 16,155 10,241 -2,12 -8,27 -17,46 -9,19 -19,28 -30,27 -25,-7 -43,-21 -56,-41 -13,-20 -21,-39 -23,-57 0,-61 -3,-120 -9,-176 -6,-56 -15,-117 -27,-181 -13,-64 -22,-126 -29,-186 -6,-60 -13,-125 -21,-194 -2,-24 -5,-48 -8,-72 -4,-23 -12,-46 -24,-68 -28,-19 -44,-40 -48,-65 -4,-25 4,-49 23,-73 13,-7 25,-12 37,-14 11,-2 24,-6 37,-13 41,-26 81,-52 121,-76 40,-25 81,-44 125,-58zm-858 203c-10,-7 -17,-13 -21,-18 -4,-5 -4,-11 -1,-18 38,-24 75,-45 113,-63 37,-18 66,-52 87,-100 14,-13 29,-20 45,-18 17,1 34,5 53,12 27,-7 53,-8 77,-2 24,6 52,10 83,13 12,4 19,10 21,16 2,7 4,15 5,26 -5,26 -10,49 -17,67 -6,18 -15,42 -25,72 -8,18 -12,33 -12,47 0,14 1,30 4,49l-15 125c0,12 4,19 11,23 7,4 16,5 28,3 9,0 19,1 27,2 9,1 17,5 24,13 4,12 2,25 -6,39 -8,13 -20,27 -36,41 -7,9 -17,20 -32,33 -14,13 -20,25 -19,37l41 44c8,8 15,11 19,7 5,-4 10,-8 15,-15 11,-31 19,-59 24,-85 5,-26 14,-54 28,-84 1,-11 3,-17 7,-19 4,-2 7,3 9,13 -2,31 -4,60 -5,87 -2,27 1,57 7,89 -6,28 -8,52 -8,74 0,22 7,46 20,72 -3,31 -12,44 -27,39 -15,-5 -32,-8 -49,-8 -19,23 -38,44 -55,61 -18,17 -37,34 -56,52 -18,24 -33,45 -46,62 -13,17 -30,32 -52,45 -19,14 -37,28 -52,42 -16,14 -32,25 -50,35 -14,10 -27,20 -39,30 -12,10 -24,16 -35,19 -41,-9 -67,-28 -78,-57 -11,-29 -18,-59 -21,-87 -9,-18 -14,-34 -15,-50 -1,-16 10,-30 31,-44 17,-18 31,-37 40,-60 9,-22 13,-41 12,-56 3,-65 -1,-125 -13,-179 -12,-54 -29,-112 -50,-171 -12,-18 -22,-34 -32,-47 -10,-13 -16,-29 -19,-48 -6,-47 0,-77 20,-90 20,-13 51,-3 95,30 28,41 58,55 92,43 33,-12 50,-42 50,-90 -4,-11 -8,-17 -14,-17 -5,0 -12,0 -20,0 -27,1 -54,0 -81,-3 -27,-3 -55,-14 -81,-32zm2876 756l-1 -16c-22,6 -40,13 -55,22 -15,9 -33,16 -56,20 -9,3 -15,9 -17,15 -2,7 0,15 7,26 8,28 4,50 -11,68 -15,18 -36,34 -63,48 -21,10 -31,25 -31,44 0,20 15,26 45,19 17,-5 35,-10 53,-16 18,-6 35,-14 53,-24 5,-6 9,-11 10,-17 2,-6 1,-16 -2,-28 19,-23 31,-49 37,-77 5,-28 15,-56 30,-84zm332 -364c-9,3 -14,6 -17,10 -2,4 0,9 5,16 7,-1 11,-2 12,-4 2,-2 1,-9 -1,-22zm-638 -149c6,-2 10,-5 12,-7 2,-2 5,-4 9,-6 19,-29 37,-56 53,-81 16,-25 36,-49 61,-74 30,-14 62,-18 95,-12 33,6 55,23 68,50 -3,19 -9,35 -16,49 -7,14 -15,29 -22,45 -15,30 -18,52 -8,67 10,15 29,27 58,36 17,5 28,12 34,20 5,9 -1,21 -20,35 -13,14 -28,22 -46,26 -18,3 -35,6 -53,7 -28,-1 -48,0 -60,4 -12,4 -26,17 -39,40 -8,16 -8,24 1,27 9,3 20,4 34,4 7,-1 12,0 17,3 4,3 5,10 3,21 -14,23 -31,38 -51,44 -20,6 -44,16 -73,30 -18,27 -32,54 -43,83 -11,29 -24,58 -39,86 -8,13 -17,23 -26,31 -9,8 -21,18 -35,29 -17,7 -38,8 -63,2 -25,-6 -40,-18 -48,-36 1,-21 4,-41 10,-59 6,-18 11,-37 14,-55 1,-17 0,-29 -3,-35 -3,-6 -13,-7 -30,-3 -29,9 -56,16 -80,21 -25,5 -51,9 -79,12 -38,-3 -61,-19 -69,-48 -8,-29 8,-52 48,-68 24,-10 47,-19 67,-28 20,-9 41,-19 61,-30 27,-13 54,-27 80,-42 26,-14 46,-31 59,-49 -5,-4 -11,-6 -20,-6 -9,1 -16,0 -22,-1 -108,-15 -154,-53 -137,-116 16,-63 74,-83 174,-62 19,14 38,25 56,33 18,8 40,13 68,14zm677 -66c12,-2 25,0 38,6 13,6 22,16 26,30l-21 55c5,21 6,37 4,46 -3,10 -6,23 -12,41 4,26 14,44 31,54 17,10 35,20 54,30 17,10 25,21 23,33 -2,12 -11,23 -26,34 -32,3 -61,5 -89,6 -28,2 -56,1 -84,-3 -9,-2 -21,-1 -35,2 -14,3 -24,8 -30,16 -14,28 -26,56 -35,84 -10,28 -21,57 -33,87 1,9 2,18 4,24 1,7 8,9 18,4 43,14 82,33 117,56 35,23 71,51 108,81 22,31 25,53 9,66 -16,13 -38,18 -67,15 -37,-18 -72,-39 -107,-64 -35,-25 -62,-63 -81,-115 -7,-13 -13,-20 -18,-19 -5,0 -10,7 -16,20 -15,21 -27,43 -37,66 -10,22 -20,47 -30,76 -4,6 -5,12 -2,19 2,7 7,15 14,24 8,13 9,25 3,37 -6,13 -16,23 -30,31 -43,8 -84,16 -124,25 -40,9 -79,16 -118,20 -17,1 -26,5 -27,11 -1,6 1,14 3,25l39 135c36,86 78,148 128,187 49,39 103,79 163,121 29,15 46,31 52,47 6,16 9,42 11,80 0,8 -4,13 -14,15 -10,2 -20,5 -30,8 -59,-19 -114,-40 -166,-60 -52,-20 -105,-45 -160,-73 -43,-69 -75,-141 -95,-217 -20,-76 -40,-155 -60,-236 -4,-13 -9,-21 -13,-23 -5,-2 -12,1 -22,8l-171 111c-51,35 -97,55 -137,60 -40,6 -86,9 -137,9 -48,-1 -83,-12 -106,-34 -23,-22 -48,-55 -75,-99 -9,-31 -4,-52 17,-63 21,-11 42,-8 63,11 6,4 10,7 13,9 3,2 7,4 11,6 72,13 143,3 213,-31 70,-33 136,-71 198,-115 8,-7 10,-12 8,-16 -3,-4 -9,-5 -20,0 -23,6 -47,13 -71,20 -24,7 -47,12 -70,13 -23,0 -40,-4 -53,-14 -13,-9 -30,-14 -53,-14 -9,-5 -16,-12 -20,-21 -4,-8 -6,-16 -5,-25 6,-31 18,-59 34,-84 16,-25 45,-36 87,-34 29,-10 51,-15 66,-14 15,1 32,14 49,38 7,10 16,21 29,31 13,10 24,18 34,24 15,6 29,11 44,13 14,2 29,3 44,4 24,-12 43,-27 56,-43 13,-17 22,-34 28,-53 0,-21 6,-41 18,-61 12,-19 28,-35 48,-47 12,-8 21,-14 28,-19 6,-6 13,-12 20,-21 43,-4 86,-16 127,-37 41,-21 79,-44 114,-69 6,-8 8,-13 8,-17 0,-3 -5,-6 -12,-8 -22,-8 -40,-19 -54,-30 -14,-12 -33,-21 -55,-25 -14,-8 -19,-16 -14,-23 5,-8 16,-13 31,-15 13,-3 25,-4 36,-4 11,0 23,1 37,2 19,4 40,9 64,13 24,4 47,4 68,-1l125 -188c6,-16 13,-29 22,-37 9,-8 24,-14 47,-16z"/>
   <circle class="fil1" transform="matrix(1.06673 -0.380751 0.380751 1.06673 8236.02 6548.92)" r="4590"/>
   <path class="fil0" d="M8442 11091c-32,0 -60,8 -83,24 -23,16 -50,37 -80,64 -6,12 -7,23 -2,33 5,9 9,21 11,35 1,22 9,39 22,49 14,11 32,12 54,5 49,-25 89,-64 119,-117 30,-53 18,-84 -37,-93l-6 0zm51 -48c13,-2 29,0 48,4 20,4 38,18 55,39 17,17 30,33 39,49 9,16 13,33 13,51 -5,17 -16,36 -32,56 -16,20 -33,37 -49,51 -10,7 -13,14 -10,20 3,6 9,13 17,21 22,11 31,24 29,38 -3,14 -15,27 -37,40 -41,12 -80,21 -117,26 -37,5 -76,17 -117,37 -11,1 -24,1 -40,-1 -16,-2 -29,-9 -41,-19 -4,-8 -6,-16 -5,-25 1,-9 0,-17 -5,-24 -31,-19 -53,-39 -63,-59 -11,-20 -23,-43 -37,-70 -12,-7 -20,-13 -23,-17 -3,-4 -1,-12 7,-25 7,-16 16,-31 25,-45 9,-14 18,-29 27,-46 57,-29 108,-50 152,-63 44,-13 99,-26 164,-41zm-614 -414l23 -5c11,12 20,19 26,23 6,3 17,6 34,8 9,9 14,21 13,35 -1,14 -3,27 -6,37 -8,27 -9,50 -4,69 5,19 25,26 59,20 16,0 32,0 47,0 15,0 30,4 45,12 20,8 30,19 31,31 1,12 -7,25 -22,39 -28,8 -52,20 -72,37 -20,17 -42,34 -67,52 -17,14 -21,28 -13,42 8,14 21,24 37,32 13,0 26,1 38,0 12,0 26,0 43,-1 17,2 29,7 34,15 6,8 3,20 -7,35l-51 48c-21,18 -41,34 -62,48 -20,14 -38,29 -54,44 -9,15 -14,28 -14,37 0,9 10,18 30,28l49 19c17,18 32,35 46,51 14,16 27,35 38,55 5,16 8,27 7,34 -1,7 -9,18 -24,32 -10,19 -22,28 -34,27 -12,-1 -26,-6 -42,-15l-17 -15c-13,-23 -25,-43 -36,-61 -11,-18 -22,-37 -33,-58 -7,-10 -14,-14 -18,-13 -5,1 -9,6 -14,15l-37 65c-18,41 -38,79 -60,112 -22,34 -52,72 -89,116 -22,18 -40,24 -53,19 -14,-5 -25,-19 -33,-42 -4,-6 -6,-12 -7,-19 -1,-7 -1,-12 -1,-16 2,-24 5,-48 10,-73 5,-24 13,-48 23,-71 20,-10 35,-24 47,-41 12,-17 23,-36 34,-55 3,-12 3,-19 -2,-23 -5,-4 -12,-4 -21,-1 -29,6 -57,14 -83,23 -26,9 -53,20 -82,33 -12,6 -27,5 -45,-1 -18,-6 -31,-16 -38,-31l4 -35c7,-16 14,-31 19,-45 6,-14 14,-26 24,-35 20,-3 40,-4 58,-4 18,1 38,2 58,5 5,-1 11,-2 18,-5 7,-2 14,-6 20,-12 27,-11 53,-21 79,-30 26,-9 54,-22 82,-37 10,-23 19,-44 27,-65 8,-21 15,-41 20,-61 1,-6 1,-11 -2,-15 -2,-4 -7,-4 -15,0 -17,20 -33,30 -49,31 -16,1 -32,0 -51,-2 -15,-11 -26,-23 -31,-34 -6,-12 -9,-25 -10,-39 -6,-12 -9,-23 -8,-33 1,-10 3,-20 4,-31 -3,-11 -6,-20 -10,-28 -4,-8 -6,-16 -6,-25 1,-9 5,-14 11,-16 6,-2 11,-6 16,-13 20,-40 40,-79 61,-117 21,-38 55,-74 103,-107zm1698 -224c7,-13 14,-20 21,-22 6,-1 15,2 27,9 22,12 43,24 65,37 22,12 44,26 65,41 18,11 26,26 23,45 -3,19 -12,36 -26,52 -41,34 -78,72 -111,115 -33,42 -69,88 -108,138 -10,16 -13,28 -11,36 2,8 13,18 32,27 24,14 46,28 66,42 20,15 41,31 62,49 8,9 13,19 18,30 4,11 11,23 18,36 12,37 23,73 32,109 9,36 19,73 29,112 2,25 6,47 12,65 6,18 19,37 39,56 7,25 0,52 -21,82 -21,29 -42,45 -64,47l-50 14c-23,-3 -43,-3 -59,0 -17,3 -36,6 -58,11 -11,-1 -22,-4 -33,-10 -11,-6 -22,-9 -33,-11 -26,-3 -50,-6 -71,-8 -22,-2 -46,-7 -74,-16 -13,-8 -20,-18 -20,-28 0,-10 8,-15 24,-16 26,-1 49,-6 70,-15 21,-9 45,-19 71,-29 27,-7 50,-19 70,-35 19,-16 38,-43 55,-81 4,-24 5,-48 2,-70 -3,-22 -7,-44 -12,-66 -7,-42 -20,-79 -39,-108 -19,-30 -49,-61 -89,-94 -27,-19 -41,-43 -41,-74 -1,-31 6,-62 20,-91 14,-35 29,-68 45,-99 16,-31 29,-64 42,-100 5,-11 5,-20 1,-26 -4,-6 -12,-5 -23,2 -28,19 -55,38 -80,57 -25,19 -52,40 -80,62 -24,25 -47,49 -68,72 -21,23 -43,47 -68,71 -12,10 -24,15 -33,17 -10,2 -23,0 -39,-7 -23,-9 -40,-17 -49,-24 -9,-7 -17,-21 -23,-41 -4,-22 -6,-43 -7,-62 -1,-19 4,-41 14,-66 13,-23 29,-39 48,-48 19,-9 40,-6 62,8 7,2 12,3 17,1 5,-2 10,-5 17,-10l247 -164c12,-5 25,-9 38,-11 14,-3 28,-7 42,-14zm1224 -186c-11,1 -16,5 -16,13 1,8 1,15 1,22 -2,23 -2,41 1,55 3,13 3,32 0,56 0,10 3,14 9,13 6,-1 12,-3 20,-9 4,-17 8,-34 10,-50 3,-16 6,-33 11,-50 2,-21 1,-34 -3,-39 -4,-5 -15,-9 -32,-11zm-422 -237c24,-22 51,-31 82,-29 31,2 52,21 63,57 7,13 13,27 16,40 3,13 1,30 -8,50 -6,13 -7,20 -2,22 5,2 13,5 23,9 12,12 23,20 32,24 9,4 22,1 38,-10 11,-8 22,-14 33,-17 10,-3 23,-7 37,-11 14,-4 23,-3 28,3 5,6 7,17 5,34 -10,22 -21,42 -32,61 -11,19 -21,39 -32,59 -2,16 1,30 10,42 8,13 14,25 19,37 6,10 12,14 17,11 6,-3 10,-9 13,-18 8,-20 15,-40 21,-60 6,-20 12,-41 20,-62 0,-10 0,-17 -2,-22 -2,-5 -4,-10 -6,-15 -4,-7 -4,-14 -1,-21 3,-7 7,-12 11,-15 22,-11 43,-23 64,-35 21,-12 48,-20 81,-22 15,0 25,5 28,15 3,10 2,21 -4,32 -22,25 -37,49 -47,72 -10,23 -14,56 -13,99 2,6 4,10 6,13 2,2 6,1 11,-3l100 -150c9,-11 11,-21 7,-29 -4,-8 -9,-16 -15,-22 -25,-31 -47,-61 -66,-91 -20,-30 -41,-61 -63,-95 -6,-9 -11,-12 -16,-11 -5,1 -9,8 -15,18l-10 21c-9,10 -20,19 -32,27 -12,8 -23,15 -33,23 -14,-3 -25,-6 -33,-8 -8,-2 -19,-2 -34,-2 -17,-8 -28,-16 -33,-25 -4,-9 1,-20 16,-34 11,-17 24,-31 39,-41 15,-10 32,-20 49,-30 3,-7 7,-13 10,-18 3,-5 12,-7 25,-7 6,3 11,3 13,2 2,-1 2,-5 1,-12 -13,-25 -22,-48 -25,-69 -4,-21 1,-49 13,-82 18,-20 35,-30 51,-32 16,-1 30,12 44,39 16,28 30,55 42,82 12,27 26,56 42,86 19,29 38,57 55,83 17,26 37,55 58,86 4,7 8,9 12,7 5,-2 10,-5 15,-9 24,-31 48,-55 73,-72 24,-17 59,-27 105,-29 12,0 19,3 22,9 3,6 2,14 -2,23 -19,29 -37,54 -56,77 -19,23 -39,47 -60,74 -10,8 -14,15 -12,21 1,6 6,14 13,25 49,71 97,139 143,204 46,65 96,136 150,211l15 36c-1,12 -5,20 -12,23 -7,4 -16,4 -28,1l-45 -32c-43,-7 -74,-20 -92,-38 -18,-18 -43,-36 -74,-54 -30,-38 -57,-76 -79,-115 -22,-39 -48,-79 -77,-120 -8,-11 -15,-16 -20,-16 -5,1 -12,6 -19,15 -22,30 -41,57 -59,83 -18,26 -33,59 -45,101 -22,41 -49,59 -81,52 -33,-7 -58,-28 -77,-64 -1,-3 -2,-7 -4,-13 -2,-6 -4,-7 -8,-3 -2,9 -2,19 0,27 1,9 5,15 11,19 17,21 33,43 47,65 14,23 30,46 46,71 15,21 30,43 44,65 14,22 26,47 35,75 3,19 1,33 -5,41 -6,8 -20,8 -40,2l-31 -14c-26,-20 -50,-41 -73,-63 -23,-22 -43,-47 -60,-74 -5,-6 -9,-9 -12,-7 -4,1 -7,6 -9,12 -11,33 -21,64 -29,94 -9,30 -19,59 -30,88 -5,11 -13,19 -23,23 -10,5 -21,4 -33,-1 -24,-10 -41,-22 -51,-36 -10,-14 -18,-32 -24,-53 -12,-14 -17,-24 -16,-30 2,-6 7,-17 16,-35 10,-41 16,-79 17,-115 1,-36 -1,-70 -8,-102 0,-6 -2,-10 -6,-13 -3,-3 -7,-2 -11,4 -20,26 -38,53 -53,81 -15,28 -30,56 -46,85 -18,32 -39,43 -65,33 -26,-10 -44,-27 -57,-53 -20,-24 -28,-49 -24,-76 4,-27 21,-46 51,-57 5,-3 10,-6 17,-8 7,-2 14,-4 22,-6 16,-9 30,-21 43,-36 12,-15 25,-31 36,-49 8,-15 18,-28 27,-40 10,-12 17,-27 22,-45 1,-21 -3,-37 -11,-48 -8,-11 -15,-26 -21,-43 -2,-4 -5,-5 -8,-2 -3,3 -6,5 -7,6l-47 69c-6,7 -12,12 -18,15 -6,3 -13,5 -21,6 -28,-8 -48,-25 -60,-53 -12,-28 -12,-58 1,-90l40 -103c-2,-21 -2,-36 2,-46 3,-9 10,-20 22,-32zm1542 -220c-6,3 -9,7 -9,12 -1,5 0,11 2,16l1 70c3,16 7,23 12,23 5,0 14,-3 25,-9l49 -35c2,-3 4,-6 6,-8 1,-3 2,-6 2,-11 -11,-11 -25,-23 -42,-36 -17,-13 -33,-20 -46,-20zm165 -528l-1 7c-8,20 -12,41 -12,63 0,22 0,47 1,75 -1,12 3,18 10,18 7,0 18,0 32,-1 17,-3 30,-7 39,-11 9,-5 11,-16 7,-34 -7,-23 -18,-52 -33,-88 -15,-37 -29,-46 -42,-28zm-723 -22c0,-22 7,-35 22,-39 15,-3 31,-1 48,9 19,12 37,24 55,35 18,11 36,24 54,38 9,7 17,11 24,12 7,1 15,-4 26,-14 8,-9 16,-13 23,-11 8,1 15,7 23,18 7,14 16,28 25,43 10,15 15,31 16,51 -3,38 8,70 32,94 24,24 47,48 68,71 6,6 12,7 19,4 6,-3 10,-11 10,-23 -3,-15 -6,-28 -9,-40 -3,-12 -3,-24 -1,-37 0,-14 4,-23 12,-25 7,-2 15,2 24,12 18,30 32,63 41,98 9,35 19,73 32,112 43,43 87,80 131,112 45,32 94,64 148,96 16,11 23,24 22,39 -1,15 -13,24 -36,27 -24,6 -44,7 -62,4 -17,-3 -36,-6 -57,-7 -26,11 -49,26 -68,43 -20,17 -36,36 -49,57 -31,29 -63,38 -96,29 -33,-10 -47,-36 -41,-79 3,-21 5,-41 5,-60 1,-19 1,-41 1,-67 2,-24 3,-49 5,-75 1,-26 0,-52 -4,-78 -18,-19 -37,-36 -56,-50 -19,-14 -39,-29 -60,-43 -9,-7 -16,-9 -20,-6 -5,3 -7,11 -8,24 -7,24 -13,49 -18,73 -6,24 -15,47 -28,68 -32,42 -64,53 -94,33 -30,-20 -38,-55 -23,-105 16,-21 29,-41 38,-61 9,-20 15,-45 17,-77 3,-10 5,-20 7,-30 1,-10 -1,-21 -6,-32 -34,-32 -65,-63 -95,-94 -30,-31 -60,-66 -91,-107 -3,-4 -5,-10 -6,-18 -1,-8 -1,-16 1,-23zm251 -316c-14,-22 -17,-40 -11,-56 7,-16 24,-24 52,-26 24,2 44,10 61,23 17,13 34,26 50,42 18,18 36,29 55,33 19,3 38,-8 59,-33 20,-13 39,-19 59,-17 20,2 30,17 32,46 0,27 0,52 1,77 0,24 0,50 -2,77 -8,29 -8,51 -1,64 7,14 19,30 34,49 9,9 16,11 21,7 5,-4 8,-12 10,-24 0,-8 1,-16 4,-24 2,-7 6,-15 11,-24 14,-22 33,-37 57,-44 25,-7 42,7 52,40 11,43 23,81 37,115 13,34 27,72 41,113 4,14 11,21 20,22 10,1 22,0 38,-3 73,-18 135,-41 186,-70 50,-29 99,-63 145,-103 12,-12 24,-22 37,-30 13,-8 32,-12 56,-12 13,2 22,7 27,13 5,6 5,16 0,29 -20,32 -41,62 -63,89 -22,27 -44,56 -65,87 -35,34 -78,57 -130,69 -52,12 -109,23 -171,32 -17,3 -27,7 -31,12 -4,5 -3,16 4,33 7,33 12,67 15,100 3,33 3,66 1,98 -2,24 -10,40 -25,46 -15,7 -34,6 -57,-3 -25,-15 -49,-31 -73,-46 -24,-16 -46,-35 -67,-58 22,8 46,17 72,27 26,10 50,5 73,-15 3,-24 1,-50 -4,-78 -5,-28 -10,-56 -15,-83 -6,-14 -14,-21 -23,-23 -8,-2 -21,-2 -36,0 -35,-1 -65,0 -90,5 -26,4 -55,10 -87,17 -7,3 -11,7 -13,14 -1,6 1,12 6,18 8,11 16,21 24,30 8,9 18,19 29,30 2,2 2,4 1,6 -1,2 -3,2 -7,1 -21,-12 -40,-25 -56,-41 -16,-15 -33,-31 -51,-49 -13,-20 -16,-36 -8,-50 8,-14 24,-22 50,-24 5,2 11,1 17,-1 6,-2 12,-5 17,-10 12,-23 13,-46 4,-70 -9,-24 -20,-43 -33,-59 -8,-11 -17,-21 -27,-32 -10,-10 -21,-15 -33,-14 -15,6 -28,13 -37,24 -10,10 -21,19 -35,27 -14,6 -25,7 -32,4 -7,-3 -10,-14 -9,-31 1,-29 5,-55 12,-79 7,-24 10,-51 8,-81 -29,-40 -60,-75 -92,-105 -32,-31 -64,-65 -97,-102z"/>
  </g>
 </g>
</svg>
