<?xml version="1.0" encoding="UTF-8"?>
<!DOCTYPE svg PUBLIC "-//W3C//DTD SVG 1.1//EN" "http://www.w3.org/Graphics/SVG/1.1/DTD/svg11.dtd">
<!-- Creator: CorelDRAW X6 -->
<svg xmlns="http://www.w3.org/2000/svg" xml:space="preserve" width="184.155mm" height="32.1085mm" version="1.1" style="shape-rendering:geometricPrecision; text-rendering:geometricPrecision; image-rendering:optimizeQuality; fill-rule:evenodd; clip-rule:evenodd"
viewBox="0 0 18504 3226"
 xmlns:xlink="http://www.w3.org/1999/xlink">
 <defs>
  <style type="text/css">
   <![CDATA[
    .fil1 {fill:#FFD000;fill-rule:nonzero}
    .fil0 {fill:white;fill-rule:nonzero}
   ]]>
  </style>
 </defs>
 <g id="图层_x0020_1">
  <metadata id="CorelCorpID_0Corel-Layer"/>
  <g id="_784847200">
   <path class="fil0" d="M100 2442l-100 -66c164,-235 306,-445 425,-632l113 73c-13,13 -29,33 -47,60 -13,13 -22,24 -27,33 106,80 206,162 299,246 -5,-13 -7,-29 -7,-47l133 0 0 47c5,0 7,0 7,0 13,-22 31,-53 53,-93 18,-31 44,-77 80,-140 -40,0 -97,-2 -173,-7 -66,0 -115,0 -146,0l0 -120c217,13 459,20 725,20l-13 126c-80,-9 -164,-13 -253,-13 -40,62 -80,126 -119,193 44,-9 77,-13 100,-13 182,-4 270,91 266,286 0,146 -13,286 -40,419l-126 -7c26,-151 40,-275 40,-372 0,-142 -49,-210 -146,-206 -75,5 -157,24 -246,60 0,151 7,304 20,459 75,-119 128,-217 159,-292l113 73c-120,221 -270,434 -452,638l-93 -86c80,-71 157,-159 233,-266l-93 0c0,-213 -7,-425 -20,-638l-73 86c-53,-62 -153,-146 -299,-252 -93,133 -191,277 -292,432zm512 612l-73 86c-49,-35 -149,-95 -299,-180 -22,-13 -40,-24 -53,-33l66 -106c9,5 24,13 47,27 18,13 31,24 40,33 155,-106 233,-213 233,-319 5,-35 -13,-51 -53,-47 -111,5 -231,53 -359,146l-40 -120c89,-53 175,-93 259,-120 -31,-44 -66,-89 -106,-133l100 -73c9,9 20,24 33,47 22,35 55,82 100,140l7 0c124,4 188,62 193,173 -5,124 -91,248 -259,372 27,13 62,35 106,66 27,18 47,31 60,40zm851 20l-86 86c-53,-49 -140,-122 -259,-219 -40,-31 -71,-55 -93,-73l86 -93c124,124 241,224 352,299zm5320 -718l0 126c-452,-13 -833,-18 -1143,-13l0 -133c155,9 317,13 485,13 80,5 168,7 266,7 84,0 215,0 392,0zm740 -465l133 -7c0,119 7,257 20,412 80,-9 159,-16 239,-20 0,-177 0,-354 0,-532l126 0c0,58 0,120 0,186 124,13 255,20 392,20l-13 126c-124,-18 -250,-29 -379,-33 0,80 0,155 0,226 191,-13 379,-27 565,-40l7 113c-425,26 -449,29 -73,7 -377,22 -780,49 -1210,80l-7 -126c75,0 151,-2 226,-7 0,-71 -7,-173 -20,-306 -4,-45 -7,-78 -7,-100zm-73 1323l-60 -126c155,-35 332,-104 532,-206 13,-120 11,-259 -7,-419l133 0c0,146 2,263 7,352 168,-93 297,-188 385,-286l93 113c-261,213 -622,403 -1083,572zm-20 -346l-113 -73c89,-93 168,-190 239,-292l113 73c-97,106 -177,204 -239,292zm2832 -977l133 -7c0,119 7,257 20,412 80,-9 159,-16 239,-20 0,-177 0,-354 0,-532l126 0c0,58 0,120 0,186 124,13 255,20 392,20l-13 126c-124,-18 -250,-29 -379,-33 0,80 0,155 0,226 191,-13 379,-27 565,-40l7 113c-425,26 -449,29 -73,7 -377,22 -780,49 -1210,80l-7 -126c75,0 151,-2 226,-7 0,-71 -7,-173 -20,-306 -4,-45 -7,-78 -7,-100zm-73 1323l-60 -126c155,-35 332,-104 532,-206 13,-120 11,-259 -7,-419l133 0c0,146 2,263 7,352 168,-93 297,-188 385,-286l93 113c-261,213 -622,403 -1083,572zm-20 -346l-113 -73c89,-93 168,-190 239,-292l113 73c-97,106 -177,204 -239,292zm1864 -977l133 -7c0,119 7,257 20,412 80,-9 159,-16 239,-20 0,-177 0,-354 0,-532l126 0c0,58 0,120 0,186 124,13 255,20 392,20l-13 126c-124,-18 -250,-29 -379,-33 0,80 0,155 0,226 191,-13 379,-27 565,-40l7 113c-425,26 -449,29 -73,7 -377,22 -780,49 -1210,80l-7 -126c75,0 151,-2 226,-7 0,-71 -7,-173 -20,-306 -4,-45 -7,-78 -7,-100zm-73 1323l-60 -126c155,-35 332,-104 532,-206 13,-120 11,-259 -7,-419l133 0c0,146 2,263 7,352 168,-93 297,-188 385,-286l93 113c-261,213 -622,403 -1083,572zm-20 -346l-113 -73c89,-93 168,-190 239,-292l113 73c-97,106 -177,204 -239,292zm1671 -425l-100 -66c164,-235 306,-445 425,-632l113 73c-13,13 -29,33 -47,60 -13,13 -22,24 -27,33 106,80 206,162 299,246 -5,-13 -7,-29 -7,-47l133 0 0 47c5,0 7,0 7,0 13,-22 31,-53 53,-93 18,-31 44,-77 80,-140 -40,0 -97,-2 -173,-7 -66,0 -115,0 -146,0l0 -120c217,13 459,20 725,20l-13 126c-80,-9 -164,-13 -253,-13 -40,62 -80,126 -119,193 44,-9 77,-13 100,-13 182,-4 270,91 266,286 0,146 -13,286 -40,419l-126 -7c26,-151 40,-275 40,-372 0,-142 -49,-210 -146,-206 -75,5 -157,24 -246,60 0,151 7,304 20,459 75,-119 128,-217 159,-292l113 73c-120,221 -270,434 -452,638l-93 -86c80,-71 157,-159 233,-266l-93 0c0,-213 -7,-425 -20,-638l-73 86c-53,-62 -153,-146 -299,-252 -93,133 -191,277 -292,432zm512 612l-73 86c-49,-35 -149,-95 -299,-180 -22,-13 -40,-24 -53,-33l66 -106c9,5 24,13 47,27 18,13 31,24 40,33 155,-106 233,-213 233,-319 5,-35 -13,-51 -53,-47 -111,5 -231,53 -359,146l-40 -120c89,-53 175,-93 259,-120 -31,-44 -66,-89 -106,-133l100 -73c9,9 20,24 33,47 22,35 55,82 100,140l7 0c124,4 188,62 193,173 -5,124 -91,248 -259,372 27,13 62,35 106,66 27,18 47,31 60,40zm851 20l-86 86c-53,-49 -140,-122 -259,-219 -40,-31 -71,-55 -93,-73l86 -93c124,124 241,224 352,299z"/>
   <path class="fil1" d="M4482 928l0 263c-83,0 -217,0 -401,0 -194,-9 -342,-14 -443,-14 0,65 4,157 14,277 0,111 0,194 0,249 351,-28 688,-56 1011,-83l14 277c-1034,46 -1865,102 -2492,166l-14 -276c222,-9 591,-32 1108,-69 -37,9 -5,9 97,0 0,-167 -5,-346 -14,-541 -259,0 -471,0 -637,0 -83,148 -157,291 -222,430l-249 -138c175,-268 346,-587 512,-956l249 139c-56,83 -111,175 -166,277 166,0 337,4 512,14 0,-64 -5,-161 -14,-291 0,-139 -4,-236 -14,-291l291 0c0,175 0,369 0,581 102,0 254,-5 457,-14 184,0 318,0 401,0zm-789 1066l277 56c-74,222 -115,466 -125,734 -9,139 74,203 249,194 231,0 443,-41 637,-125l83 222c-333,83 -586,125 -762,125 -314,0 -471,-129 -471,-388 0,-249 37,-522 110,-817zm-1052 1232l-263 -97c175,-314 341,-688 499,-1121l249 110c-157,341 -318,711 -484,1108z"/>
  </g>
  <path class="fil1" d="M17120 1302l-28 -249c489,-46 891,-106 1205,-180l56 263c-277,18 -558,55 -845,110 0,37 -4,102 -14,194 0,83 -5,148 -14,194 360,28 702,32 1025,14l0 263c-37,0 -102,0 -194,0 -93,-9 -162,-14 -208,-14 -9,424 0,835 28,1232l-291 0c0,-305 0,-540 0,-707 0,-194 -5,-374 -14,-540 -120,0 -245,0 -373,0 0,92 -5,226 -14,402 -18,351 -28,609 -28,775l-291 -14c56,-572 92,-1159 111,-1759 -9,0 -28,0 -56,0 -18,9 -37,14 -56,14zm1191 -1011l-14 263c-166,0 -332,0 -498,0 0,28 -5,69 -14,125 -9,65 -18,111 -28,139l-277 -42c28,-74 47,-152 56,-235 -351,0 -701,0 -1052,0 0,18 5,51 14,97 0,37 0,69 0,97l-235 14c92,83 194,167 305,249 138,-18 286,-32 443,-41l14 235c-443,9 -886,37 -1329,83l-14 -235c194,0 378,-9 554,-28 -18,-19 -51,-46 -97,-83 -46,-37 -79,-64 -97,-83l152 -166c9,0 14,5 14,14 9,9 14,18 14,27 0,-64 0,-124 0,-180l-513 14 -14 -263c166,0 333,5 499,14 -9,-102 -23,-199 -42,-291l277 -14c0,110 9,212 28,304 379,0 753,0 1122,0 18,-92 32,-194 41,-304l291 41c-9,28 -23,79 -41,152 -9,46 -19,83 -28,110 56,0 138,-4 249,-14 102,0 175,0 222,0zm-2423 2728l-249 -83c93,-167 180,-346 263,-541 -37,0 -83,5 -139,14 -56,0 -97,0 -125,0l-28 -249c213,0 416,-5 610,-14l-14 -222 291 0c0,18 0,50 0,97 -9,46 -14,83 -14,110 194,0 383,-14 568,-41l14 263c-194,0 -388,0 -581,0 0,83 0,157 0,222l125 -152c203,167 369,291 499,374l-152 180c-148,-111 -305,-222 -471,-333 0,93 0,152 0,180 28,277 -115,402 -430,374l-69 -236c166,19 249,-32 249,-152 0,-249 -5,-397 -14,-443l-42 0c-18,46 -46,106 -83,180 -93,213 -162,369 -208,471zm-332 -1094l-14 -249c129,0 254,0 374,0 -18,-129 -41,-254 -69,-374l249 -28c9,83 28,199 55,346 -18,-102 -14,-83 14,56 110,0 231,-5 360,-14 56,-138 102,-281 139,-429l249 69c-56,120 -102,240 -139,360 111,0 213,-9 305,-28l0 263c-508,-9 -1016,0 -1523,28z"/>
 </g>
</svg>
