<svg viewBox="0 0 1024 1024" version="1.1" xmlns="http://www.w3.org/2000/svg">
<path d="M512 987.428571C248.685714 987.428571 36.571429 775.314286 36.571429 512S248.685714 36.571429 512 36.571429s475.428571 212.114286 475.428571 475.428571-212.114286 475.428571-475.428571 475.428571z m0-877.714285C292.571429 109.714286 109.714286 292.571429 109.714286 512S292.571429 914.285714 512 914.285714 914.285714 731.428571 914.285714 512 731.428571 109.714286 512 109.714286z" fill="rgb(109,203,129)"></path>
<path d="M775.314286 409.6l-292.571429 292.571429c-7.314286 7.314286-14.628571 14.628571-29.257143 14.628571-7.314286 0-21.942857-7.314286-29.257143-14.628571l-146.285714-146.285715c-14.628571-14.628571-14.628571-43.885714 0-58.514285 14.628571-14.628571 43.885714-14.628571 58.514286 0l117.028571 117.028571 263.314286-263.314286c14.628571-14.628571 43.885714-14.628571 58.514286 0 14.628571 14.628571 14.628571 43.885714 0 58.514286z" fill="rgb(109,203,129)"></path></svg>