<?xml version="1.0" encoding="UTF-8"?>
<!DOCTYPE svg PUBLIC "-//W3C//DTD SVG 1.1//EN"
  "http://www.w3.org/Graphics/SVG/1.1/DTD/svg11.dtd">
<!-- Created with Inkpad (http://www.taptrix.com/) --><svg xmlns:inkpad="http://taptrix.com/inkpad/svg_extensions" height="149pt" xmlns:xlink="http://www.w3.org/1999/xlink" xmlns="http://www.w3.org/2000/svg" width="149pt" version="1.1" viewBox="0,0,149,149">
<defs/>
<g id="Untitled" inkpad:layerName="Untitled">
<path d="M130.289-1L17.8086-1C7.45703-1-0.941406+7.39844-0.941406+17.75L-0.941406+130.23C-0.941406+140.582+7.45703+148.98+17.8086+148.98L130.289+148.98C140.641+148.98+149.039+140.582+149.039+130.23L149.039+17.75C149.039+7.39844+140.641-1+130.289-1ZM119.586+100.621C117.75+102.477+114.762+102.477+112.926+100.621L74.1172+61.6758L35.3281+100.621C33.4922+102.477+30.5039+102.477+28.668+100.621C26.832+98.7656+26.832+95.7773+28.668+93.9219L70.5625+51.8711C71.5391+50.8945+72.8477+50.4648+74.1367+50.5234C75.4258+50.4648+76.7344+50.875+77.7109+51.8711L119.586+93.9219C121.441+95.7773+121.441+98.7656+119.586+100.621Z" opacity="1" fill="#222222"/>
</g>
</svg>
