<?xml version="1.0" encoding="UTF-8"?>
<!DOCTYPE svg PUBLIC "-//W3C//DTD SVG 1.1//EN" "http://www.w3.org/Graphics/SVG/1.1/DTD/svg11.dtd">
<!-- Creator: CorelDRAW X6 -->
<svg xmlns="http://www.w3.org/2000/svg" xml:space="preserve" width="9.5361mm" height="9.8667mm" version="1.1" style="shape-rendering:geometricPrecision; text-rendering:geometricPrecision; image-rendering:optimizeQuality; fill-rule:evenodd; clip-rule:evenodd"
viewBox="0 0 223 230"
 xmlns:xlink="http://www.w3.org/1999/xlink">
 <defs>
  <style type="text/css">
   <![CDATA[
    .fil0 {fill:#999999}
   ]]>
  </style>
 </defs>
 <g id="图层_x0020_1">
  <metadata id="CorelCorpID_0Corel-Layer"/>
  <path class="fil0" d="M214 201l-29 0 0 25c0,2 -2,4 -4,4 -2,0 -4,-2 -4,-4l0 -25 -29 0c-4,0 -8,-4 -8,-8l0 -38c0,-4 4,-8 8,-8l30 0 0 -29c0,-2 2,-4 4,-4 2,0 4,2 4,4l0 30 30 0c4,0 8,4 8,8l0 38c-1,4 -4,8 -9,8zm-63 -46c-1,0 -2,0 -3,1 -1,1 -1,2 -1,3l0 30c0,1 0,2 1,3 1,1 2,1 3,1l26 0 0 -38 -26 0 0 0zm63 4c0,-1 0,-2 -1,-3 -1,-1 -2,-1 -3,-1l-26 0 0 38 26 0c1,0 2,0 3,-1 1,-1 1,-2 1,-3l0 -30zm-18 -56l0 -76c0,-9 -8,-17 -17,-17l-152 0c-9,0 -17,8 -17,17l0 152c0,9 8,17 17,17l95 0 0 10 -95 0c-7,0 -14,-3 -19,-8 -5,-5 -8,-12 -8,-19l0 -152c0,-7 3,-14 8,-19 5,-5 12,-8 19,-8l152 0c7,0 14,3 19,8 5,5 8,12 8,19l0 76 -10 0zm-139 65l-10 0 50 -127 10 0 36 95 -8 0 -5 -13 -55 0 -18 45zm70 -52c0,0 -24,-61 -25,-65 -1,5 -25,65 -25,65l50 0 0 0z"/>
 </g>
</svg>
