<?xml version="1.0" encoding="UTF-8"?>
<!DOCTYPE svg PUBLIC "-//W3C//DTD SVG 1.1//EN"
  "http://www.w3.org/Graphics/SVG/1.1/DTD/svg11.dtd">
<!-- Created with Inkpad (http://www.taptrix.com/) --><svg xmlns:inkpad="http://taptrix.com/inkpad/svg_extensions" height="176pt" xmlns:xlink="http://www.w3.org/1999/xlink" xmlns="http://www.w3.org/2000/svg" width="176pt" version="1.1" viewBox="0,0,176,176">
<defs/>
<g id="Untitled" inkpad:layerName="Untitled">
<path d="M99.65+87.9883C97.6467+87.9883+95.6428+89.8486+95.6428+92.1387C95.6428+93.9994+97.6457+95.86+99.65+95.86C102.656+95.86+104.803+93.9992+104.803+92.1387C104.803+89.8488+102.657+87.9883+99.65+87.9883L99.65+87.9883ZM86.4814+68.6641C89.6305+68.6641+91.6348+66.6607+91.6348+63.6541C91.6348+60.5051+89.6307+58.6445+86.4814+58.6445C83.4756+58.6445+80.6127+60.5053+80.6127+63.6541C80.6125+66.6611+83.4758+68.6641+86.4814+68.6641L86.4814+68.6641ZM88.0561+0.205469C39.5352+0.205469+0.201953+39.5387+0.201953+88.0596C0.201953+136.58+39.5352+175.913+88.0561+175.913C136.577+175.913+175.91+136.58+175.91+88.0596C175.91+39.5387+136.577+0.205469+88.0561+0.205469L88.0561+0.205469ZM71.4521+110.317C66.1555+110.317+62.2908+109.459+57.2811+108.027L42.8242+115.328L46.976+103.017C36.8129+95.8611+30.8006+86.8434+30.8006+75.8215C30.8006+56.3547+49.1225+41.4682+71.4523+41.4682C91.2053+41.4682+108.812+53.2059+112.247+69.8106C110.815+69.5236+109.527+69.3811+108.382+69.3811C88.915+69.3811+73.8859+83.9807+73.8859+101.587C73.8859+104.592+74.3154+107.312+75.0311+110.175C73.8859+110.317+72.5973+110.317+71.4521+110.317C71.4521+110.317+71.4521+110.317+71.4521+110.317ZM131.141+124.345L134.003+134.651L123.125+128.497C118.974+129.355+114.966+130.643+110.815+130.643C91.6346+130.643+76.4621+117.475+76.4621+101.157C76.4621+84.8395+91.635+71.6709+110.815+71.6709C128.994+71.6709+145.311+84.8395+145.311+101.157C145.311+110.317+139.157+118.476+131.141+124.345L131.141+124.345L131.141+124.345ZM58.14+58.6445C55.1342+58.6445+51.9854+60.5053+51.9854+63.6541C51.9854+66.6609+55.1342+68.665+58.14+68.665C61.0033+68.665+63.2934+66.6609+63.2934+63.6541C63.2934+60.5053+61.0033+58.6445+58.14+58.6445L58.14+58.6445ZM122.123+87.9883C119.976+87.9883+118.115+89.8486+118.115+92.1387C118.115+93.9994+119.976+95.86+122.123+95.86C124.986+95.86+127.133+93.9992+127.133+92.1387C127.133+89.8488+124.986+87.9883+122.123+87.9883L122.123+87.9883ZM122.123+87.9883" opacity="1" fill="#3bb816"/>
</g>
</svg>
