<?xml version="1.0" encoding="UTF-8"?>
<!DOCTYPE svg PUBLIC "-//W3C//DTD SVG 1.1//EN" "http://www.w3.org/Graphics/SVG/1.1/DTD/svg11.dtd">
<!-- Creator: CorelDRAW X6 -->
<svg xmlns="http://www.w3.org/2000/svg" xml:space="preserve" width="7.356mm" height="7.3782mm" version="1.1" style="shape-rendering:geometricPrecision; text-rendering:geometricPrecision; image-rendering:optimizeQuality; fill-rule:evenodd; clip-rule:evenodd"
viewBox="0 0 28 28"
 xmlns:xlink="http://www.w3.org/1999/xlink">
 <defs>
  <style type="text/css">
   <![CDATA[
    .fil0 {fill:#E62129}
   ]]>
  </style>
 </defs>
 <g id="图层_x0020_1">
  <metadata id="CorelCorpID_0Corel-Layer"/>
  <path class="fil0" d="M2 0l-2 2c4,3 8,6 11,10 -5,5 -9,10 -11,12l4 4c2,-3 5,-8 9,-13 4,5 8,10 9,13 0,0 4,-4 5,-4 -2,-2 -6,-7 -11,-13 3,-3 6,-6 10,-9l-1 -2c-4,2 -8,5 -12,8 -4,-3 -8,-7 -12,-9z"/>
 </g>
</svg>
