<?xml version="1.0" encoding="UTF-8"?>
<!DOCTYPE svg PUBLIC "-//W3C//DTD SVG 1.1//EN" "http://www.w3.org/Graphics/SVG/1.1/DTD/svg11.dtd">
<!-- Creator: CorelDRAW X6 -->
<svg xmlns="http://www.w3.org/2000/svg" xml:space="preserve" width="24.1984mm" height="21.1667mm" version="1.1" style="shape-rendering:geometricPrecision; text-rendering:geometricPrecision; image-rendering:optimizeQuality; fill-rule:evenodd; clip-rule:evenodd"
viewBox="0 0 246 215"
 xmlns:xlink="http://www.w3.org/1999/xlink">
 <defs>
  <style type="text/css">
   <![CDATA[
    .fil0 {fill:white}
   ]]>
  </style>
 </defs>
 <g id="图层_x0020_1">
  <metadata id="CorelCorpID_0Corel-Layer"/>
  <g id="_162955904">
   <path class="fil0" d="M241 177l-180 0c-5,0 -10,-2 -14,-6 -4,-4 -6,-9 -6,-14l1 -133c0,-5 -2,-9 -11,-10l0 0 -26 -5c-3,0 -4,-3 -4,-5 0,-3 3,-4 5,-4l26 5c13,2 19,9 19,20l-1 133c0,3 1,5 3,7 2,2 5,3 7,3l180 0c3,0 5,2 5,5 0,3 -2,5 -5,5z"/>
   <path class="fil0" d="M228 150l-167 -1c-5,0 -10,-2 -14,-6 -4,-4 -6,-9 -6,-14l1 -98 189 14c9,0 15,7 15,16l0 70c0,10 -8,18 -18,18zm-167 -10l167 1c5,0 9,-4 9,-9l0 -70c0,-3 -3,-6 -6,-6l0 0 -179 -13 0 88c0,3 1,5 3,7 2,2 4,3 7,3z"/>
   <path class="fil0" d="M61 193c0,10 8,18 18,18 10,0 18,-8 18,-18 0,-10 -8,-18 -18,-18 -10,0 -18,8 -18,18z"/>
   <path class="fil0" d="M79 215c-12,0 -22,-10 -22,-22 0,-12 10,-22 22,-22 12,0 22,10 22,22 0,12 -10,22 -22,22zm0 -35c-7,0 -13,6 -13,13 0,7 6,13 13,13 7,0 13,-6 13,-13 0,-7 -6,-13 -13,-13z"/>
   <path class="fil0" d="M197 193c0,6 3,12 9,15 5,3 12,3 18,0 5,-3 9,-9 9,-15 0,-6 -3,-12 -9,-15 -5,-3 -12,-3 -18,0 -5,3 -9,9 -9,15z"/>
   <path class="fil0" d="M214 215c-12,0 -22,-10 -22,-22 0,-12 10,-22 22,-22 12,0 22,10 22,22 0,12 -10,22 -22,22zm0 -35c-7,0 -13,6 -13,13 0,7 6,13 13,13 7,0 13,-6 13,-13 0,-7 -6,-13 -13,-13z"/>
   <path class="fil0" d="M186 87l-96 0c-3,0 -5,-2 -5,-5 0,-3 2,-5 5,-5l96 0c3,0 5,2 5,5 0,3 -2,5 -5,5zm0 27l-96 0c-3,0 -5,-2 -5,-5 0,-3 2,-5 5,-5l96 0c3,0 5,2 5,5 0,3 -2,5 -5,5z"/>
  </g>
 </g>
</svg>
